<?xml version="1.0" encoding="UTF-8"?>
<svg xmlns="http://www.w3.org/2000/svg" width="1200" height="900" viewBox="0 0 1200 900" fill="none">
  <rect width="1200" height="900" fill="#C5CFBF"/>
  
        <g transform="translate(490 228) scale(2.2916666666666665)">
    <rect width="96" height="96" rx="26" fill="#C5CFBF"/>
    
    <rect x="31" y="14" width="34" height="68" rx="17" stroke="rgba(21,29,42,.15)" stroke-width="2.6"/>
    <rect x="43" y="28" width="10" height="40" rx="5" fill="#F6F3EC"/>
  </g>
        <path d="M416.57 547L408.65 547L408.65 484.30Q408.65 475.17 413.38 470.77Q418.12 466.37 427.57 466.37L427.57 466.37L434.94 466.37L434.94 473.41L426.03 473.41Q421.41 473.41 419.00 475.83Q416.57 478.25 416.57 482.65L416.57 482.65L416.57 547ZM436.15 495.63L400.19 495.63L400.19 489.25L436.15 489.25L436.15 495.63Z" fill="#151D2A" opacity="1"/><path d="M490.27 547L483.67 547L483.67 529.51L482.35 529.51L482.35 508.83Q482.35 502.34 478.94 498.88Q475.53 495.41 468.38 495.41L468.38 495.41Q465.08 495.41 461.73 495.52Q458.38 495.63 455.35 495.80Q452.32 495.96 450.01 496.18L450.01 496.18L450.01 488.92Q452.44 488.70 454.96 488.48Q457.50 488.26 460.19 488.20Q462.88 488.15 465.41 488.15L465.41 488.15Q474.32 488.15 479.77 490.35Q485.21 492.55 487.75 497.23Q490.27 501.90 490.27 509.60L490.27 509.60L490.27 547ZM463.98 548.54L463.98 548.54Q457.82 548.54 453.09 546.34Q448.36 544.14 445.78 539.96Q443.19 535.78 443.19 529.84L443.19 529.84Q443.19 524.01 445.89 519.94Q448.58 515.87 453.70 513.73Q458.81 511.58 466.07 511.58L466.07 511.58L483.13 511.58L483.13 517.85L465.52 517.85Q458.59 517.85 454.91 521.21Q451.22 524.56 451.22 529.95L451.22 529.95Q451.22 535.45 455.07 538.70Q458.92 541.94 465.52 541.94L465.52 541.94Q469.59 541.94 473.33 540.46Q477.07 538.97 479.60 535.39Q482.13 531.82 482.35 525.55L482.35 525.55L484.77 528.96Q484.33 535.45 481.69 539.79Q479.05 544.14 474.54 546.34Q470.03 548.54 463.98 548.54Z" fill="#151D2A" opacity="1"/><path d="M519.09 547L510.84 547L510.84 488.81L517.44 488.81L517.44 513.12L516.78 513.12Q516.78 500.36 522.39 494.25Q528.00 488.15 540.00 488.15L540.00 488.15L541.87 488.15L541.87 495.63L538.45 495.63Q529.00 495.63 524.04 500.52Q519.09 505.42 519.09 514.88L519.09 514.88L519.09 547Z" fill="#151D2A" opacity="1"/><path d="M597.19 547L590.60 547L590.60 529.51L589.27 529.51L589.27 508.83Q589.27 502.34 585.87 498.88Q582.46 495.41 575.30 495.41L575.30 495.41Q572.00 495.41 568.65 495.52Q565.29 495.63 562.27 495.80Q559.25 495.96 556.93 496.18L556.93 496.18L556.93 488.92Q559.36 488.70 561.88 488.48Q564.41 488.26 567.11 488.20Q569.80 488.15 572.34 488.15L572.34 488.15Q581.25 488.15 586.69 490.35Q592.13 492.55 594.66 497.23Q597.19 501.90 597.19 509.60L597.19 509.60L597.19 547ZM570.90 548.54L570.90 548.54Q564.75 548.54 560.01 546.34Q555.28 544.14 552.70 539.96Q550.12 535.78 550.12 529.84L550.12 529.84Q550.12 524.01 552.81 519.94Q555.50 515.87 560.62 513.73Q565.74 511.58 573.00 511.58L573.00 511.58L590.04 511.58L590.04 517.85L572.45 517.85Q565.51 517.85 561.83 521.21Q558.14 524.56 558.14 529.95L558.14 529.95Q558.14 535.45 562.00 538.70Q565.85 541.94 572.45 541.94L572.45 541.94Q576.51 541.94 580.25 540.46Q584.00 538.97 586.52 535.39Q589.05 531.82 589.27 525.55L589.27 525.55L591.69 528.96Q591.25 535.45 588.62 539.79Q585.98 544.14 581.47 546.34Q576.96 548.54 570.90 548.54Z" fill="#151D2A" opacity="1"/><path d="M641.63 548.87L641.63 548.87Q635.25 548.87 630.03 546.50Q624.81 544.14 621.01 539.90Q617.22 535.67 615.18 530.23Q613.14 524.78 613.14 518.62L613.14 518.62L613.14 517.08Q613.14 511.14 615.13 505.69Q617.11 500.25 620.79 496.01Q624.48 491.78 629.70 489.31Q634.93 486.83 641.42 486.83L641.42 486.83Q648.79 486.83 654.39 490.02Q660.00 493.21 663.42 499.20Q666.83 505.20 667.05 513.89L667.05 513.89L663.42 507.07L663.42 466.70L671.67 466.70L671.67 547L665.07 547L665.07 521.15L667.71 521.15Q667.49 530.28 663.91 536.50Q660.34 542.71 654.56 545.79Q648.79 548.87 641.63 548.87ZM642.74 541.61L642.74 541.61Q648.68 541.61 653.46 538.97Q658.25 536.33 661.00 531.43Q663.75 526.54 663.75 520.16L663.75 520.16L663.75 514.88Q663.75 508.72 661.00 504.05Q658.25 499.37 653.46 496.73Q648.68 494.09 642.63 494.09L642.63 494.09Q636.13 494.09 631.35 497.23Q626.57 500.36 623.98 505.75Q621.39 511.14 621.39 517.85L621.39 517.85Q621.39 524.78 624.04 530.17Q626.68 535.56 631.51 538.59Q636.36 541.61 642.74 541.61Z" fill="#151D2A" opacity="1"/><path d="M735.03 547L728.43 547L728.43 529.51L727.11 529.51L727.11 508.83Q727.11 502.34 723.70 498.88Q720.29 495.41 713.13 495.41L713.13 495.41Q709.84 495.41 706.48 495.52Q703.13 495.63 700.10 495.80Q697.08 495.96 694.76 496.18L694.76 496.18L694.76 488.92Q697.19 488.70 699.72 488.48Q702.25 488.26 704.94 488.20Q707.63 488.15 710.17 488.15L710.17 488.15Q719.08 488.15 724.52 490.35Q729.97 492.55 732.50 497.23Q735.03 501.90 735.03 509.60L735.03 509.60L735.03 547ZM708.74 548.54L708.74 548.54Q702.58 548.54 697.85 546.34Q693.12 544.14 690.53 539.96Q687.95 535.78 687.95 529.84L687.95 529.84Q687.95 524.01 690.64 519.94Q693.34 515.87 698.45 513.73Q703.57 511.58 710.83 511.58L710.83 511.58L727.88 511.58L727.88 517.85L710.28 517.85Q703.35 517.85 699.66 521.21Q695.98 524.56 695.98 529.95L695.98 529.95Q695.98 535.45 699.83 538.70Q703.68 541.94 710.28 541.94L710.28 541.94Q714.35 541.94 718.09 540.46Q721.83 538.97 724.36 535.39Q726.88 531.82 727.11 525.55L727.11 525.55L729.53 528.96Q729.09 535.45 726.45 539.79Q723.81 544.14 719.30 546.34Q714.79 548.54 708.74 548.54Z" fill="#151D2A" opacity="1"/><path d="M757.47 569.66L750.43 569.66L750.43 562.29L757.91 562.29Q761.76 562.29 764.51 561.36Q767.26 560.42 769.13 558.11Q771.00 555.80 772.32 551.73L772.32 551.73L791.90 488.81L799.93 488.81L779.47 554.04Q777.71 559.65 774.63 563.12Q771.55 566.58 767.26 568.12Q762.97 569.66 757.47 569.66L757.47 569.66ZM779.80 545.57L769.35 545.57L769.35 538.64L779.80 538.64L779.80 545.57ZM776.06 545.57L768.36 545.57L747.24 488.81L755.71 488.81L776.06 545.57Z" fill="#151D2A" opacity="1"/>
        
      
</svg>