<?xml version="1.0" encoding="UTF-8"?>
<svg xmlns="http://www.w3.org/2000/svg" width="2400" height="1080" viewBox="0 0 2400 1080" fill="none">
  <rect width="2400" height="1080" fill="#C5CFBF"/>
  
        <g transform="translate(156 417) scale(2.5625)">
    <rect width="96" height="96" rx="26" fill="#C5CFBF"/>
    <rect class="led-aura" x="32" y="15" width="32" height="66" rx="16" fill="#F6F3EC" opacity="0.16"/>
    <rect x="31" y="14" width="34" height="68" rx="17" stroke="rgba(21,29,42,.15)" stroke-width="2.6"/>
    <rect x="43" y="28" width="10" height="40" rx="5" fill="#F6F3EC"/>
  </g>
        <path d="M479.55 545L470.34 545L470.34 472.04Q470.34 461.42 475.84 456.30Q481.34 451.18 492.35 451.18L492.35 451.18L500.93 451.18L500.93 459.37L490.56 459.37Q485.18 459.37 482.37 462.18Q479.55 465 479.55 470.12L479.55 470.12L479.55 545ZM502.34 485.22L460.48 485.22L460.48 477.80L502.34 477.80L502.34 485.22Z" fill="#151D2A" opacity="1"/><path d="M565.31 545L557.63 545L557.63 524.65L556.10 524.65L556.10 500.58Q556.10 493.03 552.13 489Q548.16 484.97 539.84 484.97L539.84 484.97Q536 484.97 532.10 485.10Q528.19 485.22 524.67 485.42Q521.15 485.61 518.46 485.86L518.46 485.86L518.46 477.42Q521.28 477.16 524.22 476.90Q527.17 476.65 530.30 476.58Q533.44 476.52 536.38 476.52L536.38 476.52Q546.75 476.52 553.09 479.08Q559.42 481.64 562.37 487.08Q565.31 492.52 565.31 501.48L565.31 501.48L565.31 545ZM534.72 546.79L534.72 546.79Q527.55 546.79 522.05 544.23Q516.54 541.67 513.54 536.81Q510.53 531.94 510.53 525.03L510.53 525.03Q510.53 518.25 513.66 513.51Q516.80 508.78 522.75 506.28Q528.70 503.78 537.15 503.78L537.15 503.78L556.99 503.78L556.99 511.08L536.51 511.08Q528.45 511.08 524.16 514.98Q519.87 518.89 519.87 525.16L519.87 525.16Q519.87 531.56 524.35 535.34Q528.83 539.11 536.51 539.11L536.51 539.11Q541.25 539.11 545.60 537.38Q549.95 535.66 552.90 531.50Q555.84 527.34 556.10 520.04L556.10 520.04L558.91 524.01Q558.40 531.56 555.33 536.62Q552.26 541.67 547.01 544.23Q541.76 546.79 534.72 546.79Z" fill="#151D2A" opacity="1"/><path d="M598.85 545L589.25 545L589.25 477.29L596.93 477.29L596.93 505.58L596.16 505.58Q596.16 490.73 602.69 483.62Q609.22 476.52 623.17 476.52L623.17 476.52L625.34 476.52L625.34 485.22L621.38 485.22Q610.37 485.22 604.61 490.92Q598.85 496.62 598.85 507.62L598.85 507.62L598.85 545Z" fill="#151D2A" opacity="1"/><path d="M689.73 545L682.05 545L682.05 524.65L680.51 524.65L680.51 500.58Q680.51 493.03 676.54 489Q672.58 484.97 664.26 484.97L664.26 484.97Q660.42 484.97 656.51 485.10Q652.61 485.22 649.09 485.42Q645.57 485.61 642.88 485.86L642.88 485.86L642.88 477.42Q645.70 477.16 648.64 476.90Q651.58 476.65 654.72 476.58Q657.86 476.52 660.80 476.52L660.80 476.52Q671.17 476.52 677.50 479.08Q683.84 481.64 686.78 487.08Q689.73 492.52 689.73 501.48L689.73 501.48L689.73 545ZM659.14 546.79L659.14 546.79Q651.97 546.79 646.46 544.23Q640.96 541.67 637.95 536.81Q634.94 531.94 634.94 525.03L634.94 525.03Q634.94 518.25 638.08 513.51Q641.22 508.78 647.17 506.28Q653.12 503.78 661.57 503.78L661.57 503.78L681.41 503.78L681.41 511.08L660.93 511.08Q652.86 511.08 648.58 514.98Q644.29 518.89 644.29 525.16L644.29 525.16Q644.29 531.56 648.77 535.34Q653.25 539.11 660.93 539.11L660.93 539.11Q665.66 539.11 670.02 537.38Q674.37 535.66 677.31 531.50Q680.26 527.34 680.51 520.04L680.51 520.04L683.33 524.01Q682.82 531.56 679.74 536.62Q676.67 541.67 671.42 544.23Q666.18 546.79 659.14 546.79Z" fill="#151D2A" opacity="1"/><path d="M741.44 547.18L741.44 547.18Q734.02 547.18 727.94 544.42Q721.86 541.67 717.44 536.74Q713.02 531.82 710.66 525.48Q708.29 519.14 708.29 511.98L708.29 511.98L708.29 510.18Q708.29 503.27 710.59 496.94Q712.90 490.60 717.18 485.67Q721.47 480.74 727.55 477.86Q733.63 474.98 741.18 474.98L741.18 474.98Q749.76 474.98 756.29 478.70Q762.82 482.41 766.78 489.38Q770.75 496.36 771.01 506.47L771.01 506.47L766.78 498.54L766.78 451.56L776.38 451.56L776.38 545L768.70 545L768.70 514.92L771.78 514.92Q771.52 525.54 767.36 532.78Q763.20 540.01 756.48 543.59Q749.76 547.18 741.44 547.18ZM742.72 538.73L742.72 538.73Q749.63 538.73 755.20 535.66Q760.77 532.58 763.97 526.89Q767.17 521.19 767.17 513.77L767.17 513.77L767.17 507.62Q767.17 500.46 763.97 495.02Q760.77 489.58 755.20 486.50Q749.63 483.43 742.59 483.43L742.59 483.43Q735.04 483.43 729.47 487.08Q723.90 490.73 720.90 497Q717.89 503.27 717.89 511.08L717.89 511.08Q717.89 519.14 720.96 525.42Q724.03 531.69 729.66 535.21Q735.30 538.73 742.72 538.73Z" fill="#151D2A" opacity="1"/><path d="M850.11 545L842.43 545L842.43 524.65L840.90 524.65L840.90 500.58Q840.90 493.03 836.93 489Q832.96 484.97 824.64 484.97L824.64 484.97Q820.80 484.97 816.90 485.10Q812.99 485.22 809.47 485.42Q805.95 485.61 803.26 485.86L803.26 485.86L803.26 477.42Q806.08 477.16 809.02 476.90Q811.97 476.65 815.10 476.58Q818.24 476.52 821.18 476.52L821.18 476.52Q831.55 476.52 837.89 479.08Q844.22 481.64 847.17 487.08Q850.11 492.52 850.11 501.48L850.11 501.48L850.11 545ZM819.52 546.79L819.52 546.79Q812.35 546.79 806.85 544.23Q801.34 541.67 798.34 536.81Q795.33 531.94 795.33 525.03L795.33 525.03Q795.33 518.25 798.46 513.51Q801.60 508.78 807.55 506.28Q813.50 503.78 821.95 503.78L821.95 503.78L841.79 503.78L841.79 511.08L821.31 511.08Q813.25 511.08 808.96 514.98Q804.67 518.89 804.67 525.16L804.67 525.16Q804.67 531.56 809.15 535.34Q813.63 539.11 821.31 539.11L821.31 539.11Q826.05 539.11 830.40 537.38Q834.75 535.66 837.70 531.50Q840.64 527.34 840.90 520.04L840.90 520.04L843.71 524.01Q843.20 531.56 840.13 536.62Q837.06 541.67 831.81 544.23Q826.56 546.79 819.52 546.79Z" fill="#151D2A" opacity="1"/><path d="M876.22 571.37L868.03 571.37L868.03 562.79L876.74 562.79Q881.22 562.79 884.42 561.70Q887.62 560.62 889.79 557.93Q891.97 555.24 893.50 550.50L893.50 550.50L916.29 477.29L925.63 477.29L901.82 553.19Q899.78 559.72 896.19 563.75Q892.61 567.78 887.62 569.58Q882.62 571.37 876.22 571.37L876.22 571.37ZM902.21 543.34L890.05 543.34L890.05 535.27L902.21 535.27L902.21 543.34ZM897.86 543.34L888.90 543.34L864.32 477.29L874.18 477.29L897.86 543.34Z" fill="#151D2A" opacity="1"/><path d="M467.08 601L458.59 601L458.59 574.36L467.08 574.36Q467.41 574.36 468.40 574.38Q469.39 574.40 470.32 574.51L470.32 574.51Q473.48 574.91 475.67 576.76Q477.87 578.60 479.00 581.45Q480.12 584.29 480.12 587.68L480.12 587.68Q480.12 591.07 479.00 593.91Q477.87 596.76 475.67 598.60Q473.48 600.45 470.32 600.85L470.32 600.85Q469.41 600.96 468.41 600.98Q467.41 601 467.08 601L467.08 601ZM463.12 578.56L463.12 596.80L467.08 596.80Q467.64 596.80 468.50 596.76Q469.36 596.73 470.02 596.60L470.02 596.60Q471.91 596.25 473.09 594.91Q474.28 593.58 474.84 591.68Q475.41 589.77 475.41 587.68L475.41 587.68Q475.41 585.52 474.83 583.61Q474.26 581.70 473.07 580.41Q471.87 579.11 470.02 578.76L470.02 578.76Q469.36 578.62 468.50 578.59Q467.64 578.56 467.08 578.56L467.08 578.56L463.12 578.56Z" fill="#151D2A" opacity="0.6"/><path d="M501.34 601L496.88 601L496.88 574.36L501.34 574.36L501.34 601Z" fill="#151D2A" opacity="0.6"/><path d="M528.75 601.55L528.75 601.55Q525.82 601.55 523.48 600.54Q521.14 599.52 519.64 597.62Q518.13 595.73 517.72 593.12L517.72 593.12L522.35 592.42Q522.94 594.78 524.78 596.08Q526.62 597.37 529.02 597.37L529.02 597.37Q530.45 597.37 531.71 596.93Q532.97 596.49 533.75 595.63Q534.54 594.78 534.54 593.54L534.54 593.54Q534.54 592.99 534.35 592.52Q534.17 592.05 533.81 591.68Q533.45 591.31 532.88 591.00Q532.32 590.70 531.58 590.47L531.58 590.47L524.70 588.44Q523.81 588.18 522.78 587.74Q521.75 587.31 520.84 586.54Q519.92 585.77 519.34 584.58Q518.76 583.39 518.76 581.63L518.76 581.63Q518.76 579.06 520.06 577.31Q521.37 575.56 523.58 574.69Q525.79 573.82 528.49 573.84L528.49 573.84Q531.23 573.86 533.37 574.78Q535.52 575.69 536.96 577.43Q538.40 579.17 539.00 581.63L539.00 581.63L534.21 582.46Q533.91 581.06 533.07 580.07Q532.23 579.08 531.01 578.56Q529.80 578.04 528.43 578.00L528.43 578.00Q527.10 577.99 525.96 578.40Q524.83 578.82 524.13 579.60Q523.44 580.37 523.44 581.41L523.44 581.41Q523.44 582.39 524.03 583.01Q524.62 583.63 525.50 583.99Q526.38 584.35 527.29 584.59L527.29 584.59L532.06 585.92Q533.04 586.18 534.26 586.63Q535.48 587.07 536.61 587.87Q537.74 588.66 538.47 589.96Q539.20 591.25 539.20 593.25L539.20 593.25Q539.20 595.32 538.34 596.88Q537.48 598.45 536.02 599.48Q534.56 600.52 532.68 601.04Q530.80 601.55 528.75 601.55Z" fill="#151D2A" opacity="0.6"/><path d="M566.48 601.55L566.48 601.55Q562.49 601.55 559.64 599.81Q556.79 598.06 555.26 594.93Q553.73 591.81 553.73 587.68L553.73 587.68Q553.73 583.55 555.26 580.43Q556.79 577.30 559.64 575.55Q562.49 573.80 566.48 573.80L566.48 573.80Q571.09 573.80 574.16 576.11Q577.23 578.41 578.47 582.32L578.47 582.32L573.97 583.55Q573.20 580.95 571.33 579.48Q569.46 578.00 566.48 578.00L566.48 578.00Q563.80 578.00 562.01 579.21Q560.23 580.41 559.33 582.58Q558.43 584.76 558.41 587.68L558.41 587.68Q558.41 590.60 559.31 592.78Q560.21 594.95 562.00 596.15Q563.80 597.36 566.48 597.36L566.48 597.36Q569.46 597.36 571.33 595.88Q573.20 594.40 573.97 591.81L573.97 591.81L578.47 593.04Q577.23 596.95 574.16 599.25Q571.09 601.55 566.48 601.55Z" fill="#151D2A" opacity="0.6"/><path d="M605.81 601.55L605.81 601.55Q601.81 601.55 598.96 599.81Q596.11 598.06 594.59 594.93Q593.06 591.81 593.06 587.68L593.06 587.68Q593.06 583.55 594.59 580.43Q596.11 577.30 598.96 575.55Q601.81 573.80 605.81 573.80L605.81 573.80Q609.80 573.80 612.66 575.55Q615.52 577.30 617.04 580.43Q618.57 583.55 618.57 587.68L618.57 587.68Q618.57 591.81 617.04 594.93Q615.52 598.06 612.66 599.81Q609.80 601.55 605.81 601.55ZM605.81 597.36L605.81 597.36Q608.49 597.37 610.27 596.17Q612.06 594.97 612.96 592.79Q613.85 590.60 613.85 587.68L613.85 587.68Q613.85 584.76 612.96 582.60Q612.06 580.45 610.27 579.24Q608.49 578.04 605.81 578.00L605.81 578.00Q603.12 577.99 601.35 579.19Q599.57 580.39 598.67 582.57Q597.78 584.76 597.78 587.68L597.78 587.68Q597.78 590.60 598.66 592.76Q599.55 594.91 601.34 596.12Q603.12 597.32 605.81 597.36Z" fill="#151D2A" opacity="0.6"/><path d="M638.78 601L634.27 601L634.27 574.36L638.78 574.36L651.14 593.14L651.14 574.36L655.66 574.36L655.66 601L651.14 601L638.78 582.22L638.78 601Z" fill="#151D2A" opacity="0.6"/><path d="M677.35 601L672.84 601L672.84 574.36L677.35 574.36L689.71 593.14L689.71 574.36L694.22 574.36L694.22 601L689.71 601L677.35 582.22L677.35 601Z" fill="#151D2A" opacity="0.6"/><path d="M728.61 601L711.40 601L711.40 574.36L728.61 574.36L728.61 578.54L715.86 578.54L715.86 585.11L726.39 585.11L726.39 589.29L715.86 589.29L715.86 596.82L728.61 596.82L728.61 601Z" fill="#151D2A" opacity="0.6"/><path d="M756.31 601.55L756.31 601.55Q752.32 601.55 749.47 599.81Q746.62 598.06 745.09 594.93Q743.57 591.81 743.57 587.68L743.57 587.68Q743.57 583.55 745.09 580.43Q746.62 577.30 749.47 575.55Q752.32 573.80 756.31 573.80L756.31 573.80Q760.92 573.80 763.99 576.11Q767.06 578.41 768.30 582.32L768.30 582.32L763.81 583.55Q763.03 580.95 761.16 579.48Q759.29 578.00 756.31 578.00L756.31 578.00Q753.63 578.00 751.85 579.21Q750.06 580.41 749.16 582.58Q748.27 584.76 748.25 587.68L748.25 587.68Q748.25 590.60 749.15 592.78Q750.04 594.95 751.84 596.15Q753.63 597.36 756.31 597.36L756.31 597.36Q759.29 597.36 761.16 595.88Q763.03 594.40 763.81 591.81L763.81 591.81L768.30 593.04Q767.06 596.95 763.99 599.25Q760.92 601.55 756.31 601.55Z" fill="#151D2A" opacity="0.6"/><path d="M795.23 601L790.77 601L790.77 578.54L782.15 578.54L782.15 574.36L803.85 574.36L803.85 578.54L795.23 578.54L795.23 601Z" fill="#151D2A" opacity="0.6"/><path d="M854.25 601L849.79 601L849.79 578.54L841.17 578.54L841.17 574.36L862.87 574.36L862.87 578.54L854.25 578.54L854.25 601Z" fill="#151D2A" opacity="0.6"/><path d="M889.10 601.55L889.10 601.55Q885.10 601.55 882.25 599.81Q879.41 598.06 877.88 594.93Q876.35 591.81 876.35 587.68L876.35 587.68Q876.35 583.55 877.88 580.43Q879.41 577.30 882.25 575.55Q885.10 573.80 889.10 573.80L889.10 573.80Q893.10 573.80 895.95 575.55Q898.81 577.30 900.34 580.43Q901.86 583.55 901.86 587.68L901.86 587.68Q901.86 591.81 900.34 594.93Q898.81 598.06 895.95 599.81Q893.10 601.55 889.10 601.55ZM889.10 597.36L889.10 597.36Q891.78 597.37 893.57 596.17Q895.35 594.97 896.25 592.79Q897.15 590.60 897.15 587.68L897.15 587.68Q897.15 584.76 896.25 582.60Q895.35 580.45 893.57 579.24Q891.78 578.04 889.10 578.00L889.10 578.00Q886.42 577.99 884.64 579.19Q882.87 580.39 881.97 582.57Q881.07 584.76 881.07 587.68L881.07 587.68Q881.07 590.60 881.96 592.76Q882.85 594.91 884.63 596.12Q886.42 597.32 889.10 597.36Z" fill="#151D2A" opacity="0.6"/><path d="M946.60 601L942.14 601L942.14 574.36L953.15 574.36Q953.54 574.36 954.15 574.39Q954.76 574.42 955.28 574.51L955.28 574.51Q957.59 574.86 959.10 576.04Q960.61 577.23 961.34 579.03Q962.07 580.84 962.07 583.04L962.07 583.04Q962.07 586.29 960.42 588.63Q958.78 590.97 955.37 591.53L955.37 591.53L953.47 591.69L946.60 591.69L946.60 601ZM962.49 601L957.44 601L952.19 590.16L956.72 589.16L962.49 601ZM946.60 578.54L946.60 587.53L952.97 587.53Q953.34 587.53 953.80 587.50Q954.26 587.46 954.65 587.35L954.65 587.35Q955.76 587.07 956.40 586.37Q957.04 585.66 957.31 584.78Q957.57 583.89 957.57 583.04L957.57 583.04Q957.57 582.19 957.31 581.29Q957.04 580.39 956.40 579.69Q955.76 578.99 954.65 578.71L954.65 578.71Q954.26 578.60 953.80 578.57Q953.34 578.54 952.97 578.54L952.97 578.54L946.60 578.54Z" fill="#151D2A" opacity="0.6"/><path d="M995.77 601L978.56 601L978.56 574.36L995.77 574.36L995.77 578.54L983.02 578.54L983.02 585.11L993.55 585.11L993.55 589.29L983.02 589.29L983.02 596.82L995.77 596.82L995.77 601Z" fill="#151D2A" opacity="0.6"/><path d="M1023.48 601.55L1023.48 601.55Q1019.48 601.55 1016.63 599.81Q1013.78 598.06 1012.26 594.93Q1010.73 591.81 1010.73 587.68L1010.73 587.68Q1010.73 583.55 1012.26 580.43Q1013.78 577.30 1016.63 575.55Q1019.48 573.80 1023.48 573.80L1023.48 573.80Q1028.08 573.80 1031.15 576.11Q1034.22 578.41 1035.46 582.32L1035.46 582.32L1030.97 583.55Q1030.19 580.95 1028.32 579.48Q1026.45 578.00 1023.48 578.00L1023.48 578.00Q1020.79 578.00 1019.01 579.21Q1017.22 580.41 1016.33 582.58Q1015.43 584.76 1015.41 587.68L1015.41 587.68Q1015.41 590.60 1016.31 592.78Q1017.20 594.95 1019.00 596.15Q1020.79 597.36 1023.48 597.36L1023.48 597.36Q1026.45 597.36 1028.32 595.88Q1030.19 594.40 1030.97 591.81L1030.97 591.81L1035.46 593.04Q1034.22 596.95 1031.15 599.25Q1028.08 601.55 1023.48 601.55Z" fill="#151D2A" opacity="0.6"/><path d="M1062.80 601.55L1062.80 601.55Q1058.80 601.55 1055.96 599.81Q1053.11 598.06 1051.58 594.93Q1050.05 591.81 1050.05 587.68L1050.05 587.68Q1050.05 583.55 1051.58 580.43Q1053.11 577.30 1055.96 575.55Q1058.80 573.80 1062.80 573.80L1062.80 573.80Q1066.80 573.80 1069.65 575.55Q1072.51 577.30 1074.04 580.43Q1075.57 583.55 1075.57 587.68L1075.57 587.68Q1075.57 591.81 1074.04 594.93Q1072.51 598.06 1069.65 599.81Q1066.80 601.55 1062.80 601.55ZM1062.80 597.36L1062.80 597.36Q1065.48 597.37 1067.27 596.17Q1069.05 594.97 1069.95 592.79Q1070.85 590.60 1070.85 587.68L1070.85 587.68Q1070.85 584.76 1069.95 582.60Q1069.05 580.45 1067.27 579.24Q1065.48 578.04 1062.80 578.00L1062.80 578.00Q1060.12 577.99 1058.34 579.19Q1056.57 580.39 1055.67 582.57Q1054.77 584.76 1054.77 587.68L1054.77 587.68Q1054.77 590.60 1055.66 592.76Q1056.55 594.91 1058.33 596.12Q1060.12 597.32 1062.80 597.36Z" fill="#151D2A" opacity="0.6"/><path d="M1095.78 601L1091.27 601L1091.27 574.36L1095.78 574.36L1108.14 593.14L1108.14 574.36L1112.65 574.36L1112.65 601L1108.14 601L1095.78 582.22L1095.78 601Z" fill="#151D2A" opacity="0.6"/><path d="M1134.35 601L1129.83 601L1129.83 574.36L1134.35 574.36L1146.70 593.14L1146.70 574.36L1151.22 574.36L1151.22 601L1146.70 601L1134.35 582.22L1134.35 601Z" fill="#151D2A" opacity="0.6"/><path d="M1185.60 601L1168.40 601L1168.40 574.36L1185.60 574.36L1185.60 578.54L1172.86 578.54L1172.86 585.11L1183.38 585.11L1183.38 589.29L1172.86 589.29L1172.86 596.82L1185.60 596.82L1185.60 601Z" fill="#151D2A" opacity="0.6"/><path d="M1213.31 601.55L1213.31 601.55Q1209.31 601.55 1206.46 599.81Q1203.62 598.06 1202.09 594.93Q1200.56 591.81 1200.56 587.68L1200.56 587.68Q1200.56 583.55 1202.09 580.43Q1203.62 577.30 1206.46 575.55Q1209.31 573.80 1213.31 573.80L1213.31 573.80Q1217.92 573.80 1220.99 576.11Q1224.06 578.41 1225.30 582.32L1225.30 582.32L1220.80 583.55Q1220.02 580.95 1218.16 579.48Q1216.29 578.00 1213.31 578.00L1213.31 578.00Q1210.63 578.00 1208.84 579.21Q1207.06 580.41 1206.16 582.58Q1205.26 584.76 1205.24 587.68L1205.24 587.68Q1205.24 590.60 1206.14 592.78Q1207.04 594.95 1208.83 596.15Q1210.63 597.36 1213.31 597.36L1213.31 597.36Q1216.29 597.36 1218.16 595.88Q1220.02 594.40 1220.80 591.81L1220.80 591.81L1225.30 593.04Q1224.06 596.95 1220.99 599.25Q1217.92 601.55 1213.31 601.55Z" fill="#151D2A" opacity="0.6"/><path d="M1252.23 601L1247.77 601L1247.77 578.54L1239.15 578.54L1239.15 574.36L1260.85 574.36L1260.85 578.54L1252.23 578.54L1252.23 601Z" fill="#151D2A" opacity="0.6"/>
      
</svg>