<?xml version="1.0" encoding="UTF-8"?>
<svg xmlns="http://www.w3.org/2000/svg" width="1200" height="900" viewBox="0 0 1200 900" fill="none">
  <rect width="1200" height="900" fill="#F6F3EC"/>
  
        <g transform="translate(490 110) scale(2.2916666666666665)">
    <rect width="96" height="96" rx="26" fill="#F6F3EC"/>
    
    <rect x="31" y="14" width="34" height="68" rx="17" stroke="rgba(21,29,42,.15)" stroke-width="2.6"/>
    <rect x="43" y="28" width="10" height="40" rx="5" fill="#FF9361"/>
  </g>
        <path d="M392.05 540L380.64 540L380.64 470.44Q380.64 459.40 386.47 454.19Q392.30 448.98 403.58 448.98L403.58 448.98L411.77 448.98L411.77 458.90L401.60 458.90Q397.01 458.90 394.53 461.45Q392.05 463.99 392.05 468.45L392.05 468.45L392.05 540ZM413.01 483.46L371.47 483.46L371.47 474.53L413.01 474.53L413.01 483.46Z" fill="#151D2A" opacity="1"/><path d="M475.38 540L465.96 540L465.96 520.16L463.97 520.16L463.97 497.22Q463.97 490.40 460.44 486.93Q456.90 483.46 450.08 483.46L450.08 483.46Q446.24 483.46 442.15 483.58Q438.06 483.70 434.34 483.83Q430.62 483.95 427.89 484.20L427.89 484.20L427.89 473.78Q430.62 473.54 433.65 473.35Q436.69 473.16 439.92 473.10Q443.14 473.04 446.12 473.04L446.12 473.04Q456.28 473.04 462.73 475.46Q469.18 477.88 472.28 483.33Q475.38 488.79 475.38 498.09L475.38 498.09L475.38 540ZM444.26 541.74L444.26 541.74Q436.82 541.74 431.42 539.19Q426.03 536.65 423.11 531.82Q420.20 526.98 420.20 520.16L420.20 520.16Q420.20 513.09 423.36 508.38Q426.52 503.67 432.60 501.25Q438.68 498.83 447.23 498.83L447.23 498.83L465.21 498.83L465.21 507.76L446.74 507.76Q439.54 507.76 435.70 511.23Q431.86 514.70 431.86 520.16L431.86 520.16Q431.86 525.62 435.70 528.96Q439.54 532.31 446.74 532.31L446.74 532.31Q450.95 532.31 454.80 530.76Q458.64 529.21 461.18 525.55Q463.72 521.90 463.97 515.45L463.97 515.45L467.20 520.16Q466.58 527.23 463.79 532.00Q461.00 536.78 456.10 539.26Q451.20 541.74 444.26 541.74Z" fill="#151D2A" opacity="1"/><path d="M509.11 540L497.20 540L497.20 473.78L506.63 473.78L506.63 501.06L506.13 501.06Q506.13 486.56 512.52 479.80Q518.90 473.04 531.68 473.04L531.68 473.04L533.91 473.04L533.91 483.70L529.69 483.70Q519.77 483.70 514.44 488.97Q509.11 494.24 509.11 504.16L509.11 504.16L509.11 540Z" fill="#151D2A" opacity="1"/><path d="M597.52 540L588.10 540L588.10 520.16L586.11 520.16L586.11 497.22Q586.11 490.40 582.58 486.93Q579.04 483.46 572.22 483.46L572.22 483.46Q568.38 483.46 564.29 483.58Q560.20 483.70 556.48 483.83Q552.76 483.95 550.03 484.20L550.03 484.20L550.03 473.78Q552.76 473.54 555.79 473.35Q558.83 473.16 562.06 473.10Q565.28 473.04 568.26 473.04L568.26 473.04Q578.42 473.04 584.87 475.46Q591.32 477.88 594.42 483.33Q597.52 488.79 597.52 498.09L597.52 498.09L597.52 540ZM566.40 541.74L566.40 541.74Q558.96 541.74 553.56 539.19Q548.17 536.65 545.25 531.82Q542.34 526.98 542.34 520.16L542.34 520.16Q542.34 513.09 545.50 508.38Q548.66 503.67 554.74 501.25Q560.82 498.83 569.37 498.83L569.37 498.83L587.35 498.83L587.35 507.76L568.88 507.76Q561.68 507.76 557.84 511.23Q554.00 514.70 554.00 520.16L554.00 520.16Q554.00 525.62 557.84 528.96Q561.68 532.31 568.88 532.31L568.88 532.31Q573.09 532.31 576.94 530.76Q580.78 529.21 583.32 525.55Q585.86 521.90 586.11 515.45L586.11 515.45L589.34 520.16Q588.72 527.23 585.93 532.00Q583.14 536.78 578.24 539.26Q573.34 541.74 566.40 541.74Z" fill="#151D2A" opacity="1"/><path d="M647.00 542.23L647.00 542.23Q639.93 542.23 633.98 539.63Q628.02 537.02 623.62 532.31Q619.22 527.60 616.80 521.40Q614.38 515.20 614.38 508.01L614.38 508.01L614.38 505.78Q614.38 498.71 616.74 492.51Q619.10 486.31 623.37 481.60Q627.65 476.88 633.54 474.22Q639.43 471.55 646.62 471.55L646.62 471.55Q654.19 471.55 660.39 474.71Q666.59 477.88 670.56 484.57Q674.52 491.27 675.02 501.93L675.02 501.93L670.06 494.00L670.06 449.48L681.96 449.48L681.96 540L672.54 540L672.54 510.61L676.01 510.61Q675.52 521.90 671.30 528.90Q667.08 535.91 660.70 539.07Q654.31 542.23 647.00 542.23ZM648.61 531.82L648.61 531.82Q654.68 531.82 659.64 529.09Q664.60 526.36 667.58 521.21Q670.56 516.07 670.56 509.12L670.56 509.12L670.56 503.42Q670.56 496.60 667.52 491.83Q664.48 487.05 659.46 484.51Q654.44 481.97 648.48 481.97L648.48 481.97Q641.91 481.97 636.89 485.07Q631.87 488.17 629.08 493.75Q626.29 499.33 626.29 506.89L626.29 506.89Q626.29 514.46 629.14 520.10Q631.99 525.74 637.08 528.78Q642.16 531.82 648.61 531.82Z" fill="#151D2A" opacity="1"/><path d="M754.26 540L744.83 540L744.83 520.16L742.85 520.16L742.85 497.22Q742.85 490.40 739.31 486.93Q735.78 483.46 728.96 483.46L728.96 483.46Q725.12 483.46 721.02 483.58Q716.93 483.70 713.21 483.83Q709.49 483.95 706.76 484.20L706.76 484.20L706.76 473.78Q709.49 473.54 712.53 473.35Q715.57 473.16 718.79 473.10Q722.02 473.04 724.99 473.04L724.99 473.04Q735.16 473.04 741.61 475.46Q748.06 477.88 751.16 483.33Q754.26 488.79 754.26 498.09L754.26 498.09L754.26 540ZM723.13 541.74L723.13 541.74Q715.69 541.74 710.30 539.19Q704.90 536.65 701.99 531.82Q699.08 526.98 699.08 520.16L699.08 520.16Q699.08 513.09 702.24 508.38Q705.40 503.67 711.48 501.25Q717.55 498.83 726.11 498.83L726.11 498.83L744.09 498.83L744.09 507.76L725.61 507.76Q718.42 507.76 714.58 511.23Q710.73 514.70 710.73 520.16L710.73 520.16Q710.73 525.62 714.58 528.96Q718.42 532.31 725.61 532.31L725.61 532.31Q729.83 532.31 733.67 530.76Q737.52 529.21 740.06 525.55Q742.60 521.90 742.85 515.45L742.85 515.45L746.07 520.16Q745.45 527.23 742.66 532.00Q739.87 536.78 734.97 539.26Q730.08 541.74 723.13 541.74Z" fill="#151D2A" opacity="1"/><path d="M780.42 565.79L771.62 565.79L771.62 555.13L781.16 555.13Q785.38 555.13 788.29 554.07Q791.21 553.02 793.13 550.54Q795.05 548.06 796.29 543.97L796.29 543.97L817.12 473.78L828.78 473.78L806.71 547.07Q804.72 553.64 801.13 557.79Q797.53 561.95 792.39 563.87Q787.24 565.79 780.42 565.79L780.42 565.79ZM806.21 538.51L791.83 538.51L791.83 528.59L806.21 528.59L806.21 538.51ZM801.75 538.51L790.59 538.51L766.90 473.78L779.06 473.78L801.75 538.51Z" fill="#151D2A" opacity="1"/>
        <path d="M331.74 602L326.68 602L326.68 584.72L331.74 584.72Q332.06 584.72 332.74 584.73Q333.42 584.74 334.05 584.84L334.05 584.84Q335.96 585.12 337.21 586.30Q338.46 587.49 339.08 589.32Q339.69 591.15 339.69 593.36L339.69 593.36Q339.69 595.58 339.08 597.41Q338.46 599.24 337.21 600.42Q335.96 601.60 334.05 601.88L334.05 601.88Q333.44 601.96 332.73 601.98Q332.03 602 331.74 602L331.74 602ZM327.76 585.73L327.76 600.99L331.74 600.99Q332.32 600.99 332.90 600.96Q333.48 600.92 333.88 600.85L333.88 600.85Q335.58 600.56 336.62 599.53Q337.66 598.51 338.13 596.92Q338.61 595.33 338.61 593.36L338.61 593.36Q338.61 591.39 338.13 589.80Q337.66 588.21 336.62 587.19Q335.58 586.16 333.88 585.87L333.88 585.87Q333.48 585.80 332.88 585.76Q332.28 585.73 331.74 585.73L331.74 585.73L327.76 585.73Z" fill="rgba(21,29,42,.62)" opacity="0.82"/><path d="M353.58 602L352.57 602L352.57 584.72L353.58 584.72L353.58 602Z" fill="rgba(21,29,42,.62)" opacity="0.82"/><path d="M372.91 602.36L372.91 602.36Q371.16 602.36 369.76 601.79Q368.36 601.22 367.45 600.18Q366.53 599.13 366.22 597.70L366.22 597.70L367.22 597.51Q367.69 599.29 369.22 600.32Q370.74 601.35 372.91 601.35L372.91 601.35Q374.42 601.35 375.55 600.87Q376.68 600.39 377.30 599.52Q377.93 598.65 377.93 597.49L377.93 597.49Q377.93 596.61 377.60 596.02Q377.28 595.44 376.78 595.07Q376.28 594.70 375.74 594.49Q375.20 594.27 374.78 594.15L374.78 594.15L370.46 592.86Q369.53 592.58 368.85 592.18Q368.17 591.79 367.74 591.28Q367.31 590.78 367.10 590.18Q366.89 589.58 366.89 588.90L366.89 588.90Q366.89 587.58 367.60 586.55Q368.32 585.52 369.59 584.94Q370.86 584.36 372.53 584.36L372.53 584.36Q374.22 584.36 375.56 584.98Q376.91 585.61 377.77 586.74Q378.62 587.88 378.84 589.40L378.84 589.40L377.83 589.59Q377.66 588.33 376.94 587.38Q376.22 586.42 375.08 585.90Q373.94 585.37 372.53 585.37L372.53 585.37Q371.17 585.37 370.15 585.84Q369.12 586.30 368.54 587.10Q367.97 587.89 367.97 588.87L367.97 588.87Q367.97 589.90 368.53 590.52Q369.08 591.14 369.89 591.48Q370.69 591.82 371.42 592.04L371.42 592.04L375.00 593.12Q375.46 593.25 376.12 593.51Q376.78 593.77 377.42 594.25Q378.06 594.73 378.49 595.51Q378.91 596.30 378.91 597.49L378.91 597.49Q378.91 598.60 378.49 599.50Q378.07 600.40 377.28 601.04Q376.49 601.68 375.38 602.02Q374.28 602.36 372.91 602.36Z" fill="rgba(21,29,42,.62)" opacity="0.82"/><path d="M398.10 602.36L398.10 602.36Q395.52 602.36 393.80 601.21Q392.08 600.06 391.22 598.03Q390.35 596 390.35 593.36L390.35 593.36Q390.35 590.72 391.22 588.69Q392.08 586.66 393.80 585.51Q395.52 584.36 398.10 584.36L398.10 584.36Q401.13 584.36 402.98 585.94Q404.82 587.52 405.47 590.14L405.47 590.14L404.42 590.38Q403.84 588.09 402.26 586.73Q400.68 585.37 398.10 585.37L398.10 585.37Q395.88 585.37 394.41 586.39Q392.94 587.41 392.20 589.21Q391.46 591.02 391.43 593.36L391.43 593.36Q391.41 595.70 392.15 597.50Q392.90 599.30 394.39 600.33Q395.88 601.35 398.10 601.35L398.10 601.35Q400.68 601.35 402.26 599.98Q403.84 598.62 404.42 596.34L404.42 596.34L405.47 596.58Q404.82 599.20 402.98 600.78Q401.13 602.36 398.10 602.36Z" fill="rgba(21,29,42,.62)" opacity="0.82"/><path d="M424.90 602.36L424.90 602.36Q422.32 602.36 420.60 601.21Q418.88 600.06 418.02 598.03Q417.15 596 417.15 593.36L417.15 593.36Q417.15 590.72 418.02 588.69Q418.88 586.66 420.60 585.51Q422.32 584.36 424.90 584.36L424.90 584.36Q427.48 584.36 429.21 585.51Q430.93 586.66 431.79 588.69Q432.66 590.72 432.66 593.36L432.66 593.36Q432.66 596 431.79 598.03Q430.93 600.06 429.21 601.21Q427.48 602.36 424.90 602.36ZM424.90 601.35L424.90 601.35Q427.12 601.35 428.61 600.33Q430.09 599.30 430.83 597.50Q431.58 595.70 431.58 593.36L431.58 593.36Q431.58 591.02 430.83 589.21Q430.09 587.41 428.61 586.39Q427.12 585.37 424.90 585.37L424.90 585.37Q422.68 585.37 421.21 586.39Q419.74 587.41 419.00 589.21Q418.26 591.02 418.23 593.36L418.23 593.36Q418.21 595.70 418.95 597.50Q419.70 599.30 421.19 600.33Q422.68 601.35 424.90 601.35Z" fill="rgba(21,29,42,.62)" opacity="0.82"/><path d="M446.06 602L445.06 602L445.06 584.72L446.06 584.72L456.58 600.20L456.58 584.72L457.58 584.72L457.58 602L456.58 602L446.06 586.50L446.06 602Z" fill="rgba(21,29,42,.62)" opacity="0.82"/><path d="M471.95 602L470.94 602L470.94 584.72L471.95 584.72L482.46 600.20L482.46 584.72L483.47 584.72L483.47 602L482.46 602L471.95 586.50L471.95 602Z" fill="rgba(21,29,42,.62)" opacity="0.82"/><path d="M507.39 602L496.83 602L496.83 584.72L507.39 584.72L507.39 585.73L497.84 585.73L497.84 592.86L505.95 592.86L505.95 593.86L497.84 593.86L497.84 600.99L507.39 600.99L507.39 602Z" fill="rgba(21,29,42,.62)" opacity="0.82"/><path d="M527.06 602.36L527.06 602.36Q524.48 602.36 522.76 601.21Q521.04 600.06 520.18 598.03Q519.31 596 519.31 593.36L519.31 593.36Q519.31 590.72 520.18 588.69Q521.04 586.66 522.76 585.51Q524.48 584.36 527.06 584.36L527.06 584.36Q530.09 584.36 531.94 585.94Q533.78 587.52 534.43 590.14L534.43 590.14L533.38 590.38Q532.80 588.09 531.22 586.73Q529.64 585.37 527.06 585.37L527.06 585.37Q524.84 585.37 523.37 586.39Q521.90 587.41 521.16 589.21Q520.42 591.02 520.39 593.36L520.39 593.36Q520.37 595.70 521.11 597.50Q521.86 599.30 523.35 600.33Q524.84 601.35 527.06 601.35L527.06 601.35Q529.64 601.35 531.22 599.98Q532.80 598.62 533.38 596.34L533.38 596.34L534.43 596.58Q533.78 599.20 531.94 600.78Q530.09 602.36 527.06 602.36Z" fill="rgba(21,29,42,.62)" opacity="0.82"/><path d="M552.98 602L551.97 602L551.97 585.73L545.63 585.73L545.63 584.72L559.31 584.72L559.31 585.73L552.98 585.73L552.98 602Z" fill="rgba(21,29,42,.62)" opacity="0.82"/><path d="M595.30 602L594.29 602L594.29 585.73L587.95 585.73L587.95 584.72L601.63 584.72L601.63 585.73L595.30 585.73L595.30 602Z" fill="rgba(21,29,42,.62)" opacity="0.82"/><path d="M620.34 602.36L620.34 602.36Q617.76 602.36 616.04 601.21Q614.32 600.06 613.46 598.03Q612.59 596 612.59 593.36L612.59 593.36Q612.59 590.72 613.46 588.69Q614.32 586.66 616.04 585.51Q617.76 584.36 620.34 584.36L620.34 584.36Q622.92 584.36 624.65 585.51Q626.37 586.66 627.23 588.69Q628.10 590.72 628.10 593.36L628.10 593.36Q628.10 596 627.23 598.03Q626.37 600.06 624.65 601.21Q622.92 602.36 620.34 602.36ZM620.34 601.35L620.34 601.35Q622.56 601.35 624.05 600.33Q625.53 599.30 626.27 597.50Q627.02 595.70 627.02 593.36L627.02 593.36Q627.02 591.02 626.27 589.21Q625.53 587.41 624.05 586.39Q622.56 585.37 620.34 585.37L620.34 585.37Q618.12 585.37 616.65 586.39Q615.18 587.41 614.44 589.21Q613.70 591.02 613.67 593.36L613.67 593.36Q613.65 595.70 614.39 597.50Q615.14 599.30 616.63 600.33Q618.12 601.35 620.34 601.35Z" fill="rgba(21,29,42,.62)" opacity="0.82"/><path d="M659.66 602L658.66 602L658.66 584.72L665.02 584.72Q665.27 584.72 665.53 584.74Q665.80 584.76 666.12 584.82L666.12 584.82Q667.37 585.01 668.29 585.72Q669.20 586.44 669.70 587.52Q670.20 588.61 670.20 589.90L670.20 589.90Q670.20 591.75 669.19 593.14Q668.18 594.54 666.46 594.92L666.46 594.92L666.26 595.09L659.66 595.09L659.66 602ZM670.68 602L669.48 602L666.07 594.97L666.94 594.32L670.68 602ZM659.66 585.73L659.66 594.08L665.02 594.08Q665.22 594.08 665.50 594.06Q665.78 594.03 666.07 593.98L666.07 593.98Q667.07 593.79 667.75 593.19Q668.42 592.59 668.77 591.73Q669.12 590.88 669.12 589.90L669.12 589.90Q669.12 588.93 668.77 588.07Q668.42 587.22 667.75 586.62Q667.07 586.02 666.07 585.82L666.07 585.82Q665.78 585.76 665.50 585.75Q665.22 585.73 665.02 585.73L665.02 585.73L659.66 585.73Z" fill="rgba(21,29,42,.62)" opacity="0.82"/><path d="M693.88 602L683.32 602L683.32 584.72L693.88 584.72L693.88 585.73L684.33 585.73L684.33 592.86L692.44 592.86L692.44 593.86L684.33 593.86L684.33 600.99L693.88 600.99L693.88 602Z" fill="rgba(21,29,42,.62)" opacity="0.82"/><path d="M713.55 602.36L713.55 602.36Q710.97 602.36 709.25 601.21Q707.53 600.06 706.66 598.03Q705.80 596 705.80 593.36L705.80 593.36Q705.80 590.72 706.66 588.69Q707.53 586.66 709.25 585.51Q710.97 584.36 713.55 584.36L713.55 584.36Q716.58 584.36 718.42 585.94Q720.27 587.52 720.92 590.14L720.92 590.14L719.86 590.38Q719.29 588.09 717.71 586.73Q716.13 585.37 713.55 585.37L713.55 585.37Q711.33 585.37 709.86 586.39Q708.39 587.41 707.65 589.21Q706.90 591.02 706.88 593.36L706.88 593.36Q706.86 595.70 707.60 597.50Q708.34 599.30 709.84 600.33Q711.33 601.35 713.55 601.35L713.55 601.35Q716.13 601.35 717.71 599.98Q719.29 598.62 719.86 596.34L719.86 596.34L720.92 596.58Q720.27 599.20 718.42 600.78Q716.58 602.36 713.55 602.36Z" fill="rgba(21,29,42,.62)" opacity="0.82"/><path d="M740.35 602.36L740.35 602.36Q737.77 602.36 736.05 601.21Q734.33 600.06 733.46 598.03Q732.60 596 732.60 593.36L732.60 593.36Q732.60 590.72 733.46 588.69Q734.33 586.66 736.05 585.51Q737.77 584.36 740.35 584.36L740.35 584.36Q742.93 584.36 744.65 585.51Q746.38 586.66 747.24 588.69Q748.10 590.72 748.10 593.36L748.10 593.36Q748.10 596 747.24 598.03Q746.38 600.06 744.65 601.21Q742.93 602.36 740.35 602.36ZM740.35 601.35L740.35 601.35Q742.57 601.35 744.05 600.33Q745.54 599.30 746.28 597.50Q747.02 595.70 747.02 593.36L747.02 593.36Q747.02 591.02 746.28 589.21Q745.54 587.41 744.05 586.39Q742.57 585.37 740.35 585.37L740.35 585.37Q738.13 585.37 736.66 586.39Q735.19 587.41 734.45 589.21Q733.70 591.02 733.68 593.36L733.68 593.36Q733.66 595.70 734.40 597.50Q735.14 599.30 736.64 600.33Q738.13 601.35 740.35 601.35Z" fill="rgba(21,29,42,.62)" opacity="0.82"/><path d="M761.51 602L760.50 602L760.50 584.72L761.51 584.72L772.02 600.20L772.02 584.72L773.03 584.72L773.03 602L772.02 602L761.51 586.50L761.51 602Z" fill="rgba(21,29,42,.62)" opacity="0.82"/><path d="M787.40 602L786.39 602L786.39 584.72L787.40 584.72L797.91 600.20L797.91 584.72L798.92 584.72L798.92 602L797.91 602L787.40 586.50L787.40 602Z" fill="rgba(21,29,42,.62)" opacity="0.82"/><path d="M822.84 602L812.28 602L812.28 584.72L822.84 584.72L822.84 585.73L813.29 585.73L813.29 592.86L821.40 592.86L821.40 593.86L813.29 593.86L813.29 600.99L822.84 600.99L822.84 602Z" fill="rgba(21,29,42,.62)" opacity="0.82"/><path d="M842.51 602.36L842.51 602.36Q839.93 602.36 838.21 601.21Q836.49 600.06 835.62 598.03Q834.76 596 834.76 593.36L834.76 593.36Q834.76 590.72 835.62 588.69Q836.49 586.66 838.21 585.51Q839.93 584.36 842.51 584.36L842.51 584.36Q845.54 584.36 847.38 585.94Q849.23 587.52 849.88 590.14L849.88 590.14L848.82 590.38Q848.25 588.09 846.67 586.73Q845.09 585.37 842.51 585.37L842.51 585.37Q840.29 585.37 838.82 586.39Q837.35 587.41 836.61 589.21Q835.86 591.02 835.84 593.36L835.84 593.36Q835.82 595.70 836.56 597.50Q837.30 599.30 838.80 600.33Q840.29 601.35 842.51 601.35L842.51 601.35Q845.09 601.35 846.67 599.98Q848.25 598.62 848.82 596.34L848.82 596.34L849.88 596.58Q849.23 599.20 847.38 600.78Q845.54 602.36 842.51 602.36Z" fill="rgba(21,29,42,.62)" opacity="0.82"/><path d="M868.42 602L867.42 602L867.42 585.73L861.08 585.73L861.08 584.72L874.76 584.72L874.76 585.73L868.42 585.73L868.42 602Z" fill="rgba(21,29,42,.62)" opacity="0.82"/>
      
</svg>