<?xml version="1.0" encoding="UTF-8"?>
<svg xmlns="http://www.w3.org/2000/svg" width="1200" height="900" viewBox="0 0 1200 900" fill="none">
  <rect width="1200" height="900" fill="#F6F3EC"/>
  
        <g transform="translate(490 126) scale(2.2916666666666665)">
    <rect width="96" height="96" rx="26" fill="#F6F3EC"/>
    
    <rect x="31" y="14" width="34" height="68" rx="17" stroke="rgba(21,29,42,.15)" stroke-width="2.6"/>
    <rect x="43" y="28" width="10" height="40" rx="5" fill="#FF9361"/>
  </g>
        <path d="M416.57 445L408.65 445L408.65 382.30Q408.65 373.17 413.38 368.77Q418.12 364.37 427.57 364.37L427.57 364.37L434.94 364.37L434.94 371.41L426.03 371.41Q421.41 371.41 419.00 373.83Q416.57 376.25 416.57 380.65L416.57 380.65L416.57 445ZM436.15 393.63L400.19 393.63L400.19 387.25L436.15 387.25L436.15 393.63Z" fill="#151D2A" opacity="1"/><path d="M490.27 445L483.67 445L483.67 427.51L482.35 427.51L482.35 406.83Q482.35 400.34 478.94 396.88Q475.53 393.41 468.38 393.41L468.38 393.41Q465.08 393.41 461.73 393.52Q458.38 393.63 455.35 393.80Q452.32 393.96 450.01 394.18L450.01 394.18L450.01 386.92Q452.44 386.70 454.96 386.48Q457.50 386.26 460.19 386.20Q462.88 386.15 465.41 386.15L465.41 386.15Q474.32 386.15 479.77 388.35Q485.21 390.55 487.75 395.23Q490.27 399.90 490.27 407.60L490.27 407.60L490.27 445ZM463.98 446.54L463.98 446.54Q457.82 446.54 453.09 444.34Q448.36 442.14 445.78 437.96Q443.19 433.78 443.19 427.84L443.19 427.84Q443.19 422.01 445.89 417.94Q448.58 413.87 453.70 411.73Q458.81 409.58 466.07 409.58L466.07 409.58L483.13 409.58L483.13 415.85L465.52 415.85Q458.59 415.85 454.91 419.20Q451.22 422.56 451.22 427.95L451.22 427.95Q451.22 433.45 455.07 436.69Q458.92 439.94 465.52 439.94L465.52 439.94Q469.59 439.94 473.33 438.45Q477.07 436.97 479.60 433.39Q482.13 429.82 482.35 423.55L482.35 423.55L484.77 426.96Q484.33 433.45 481.69 437.80Q479.05 442.14 474.54 444.34Q470.03 446.54 463.98 446.54Z" fill="#151D2A" opacity="1"/><path d="M519.09 445L510.84 445L510.84 386.81L517.44 386.81L517.44 411.12L516.78 411.12Q516.78 398.36 522.39 392.25Q528.00 386.15 540.00 386.15L540.00 386.15L541.87 386.15L541.87 393.63L538.45 393.63Q529.00 393.63 524.04 398.52Q519.09 403.42 519.09 412.88L519.09 412.88L519.09 445Z" fill="#151D2A" opacity="1"/><path d="M597.19 445L590.60 445L590.60 427.51L589.27 427.51L589.27 406.83Q589.27 400.34 585.87 396.88Q582.46 393.41 575.30 393.41L575.30 393.41Q572.00 393.41 568.65 393.52Q565.29 393.63 562.27 393.80Q559.25 393.96 556.93 394.18L556.93 394.18L556.93 386.92Q559.36 386.70 561.88 386.48Q564.41 386.26 567.11 386.20Q569.80 386.15 572.34 386.15L572.34 386.15Q581.25 386.15 586.69 388.35Q592.13 390.55 594.66 395.23Q597.19 399.90 597.19 407.60L597.19 407.60L597.19 445ZM570.90 446.54L570.90 446.54Q564.75 446.54 560.01 444.34Q555.28 442.14 552.70 437.96Q550.12 433.78 550.12 427.84L550.12 427.84Q550.12 422.01 552.81 417.94Q555.50 413.87 560.62 411.73Q565.74 409.58 573.00 409.58L573.00 409.58L590.04 409.58L590.04 415.85L572.45 415.85Q565.51 415.85 561.83 419.20Q558.14 422.56 558.14 427.95L558.14 427.95Q558.14 433.45 562.00 436.69Q565.85 439.94 572.45 439.94L572.45 439.94Q576.51 439.94 580.25 438.45Q584.00 436.97 586.52 433.39Q589.05 429.82 589.27 423.55L589.27 423.55L591.69 426.96Q591.25 433.45 588.62 437.80Q585.98 442.14 581.47 444.34Q576.96 446.54 570.90 446.54Z" fill="#151D2A" opacity="1"/><path d="M641.63 446.87L641.63 446.87Q635.25 446.87 630.03 444.50Q624.81 442.14 621.01 437.90Q617.22 433.67 615.18 428.23Q613.14 422.78 613.14 416.62L613.14 416.62L613.14 415.08Q613.14 409.14 615.13 403.69Q617.11 398.25 620.79 394.01Q624.48 389.78 629.70 387.31Q634.93 384.83 641.42 384.83L641.42 384.83Q648.79 384.83 654.39 388.02Q660.00 391.21 663.42 397.20Q666.83 403.20 667.05 411.89L667.05 411.89L663.42 405.07L663.42 364.70L671.67 364.70L671.67 445L665.07 445L665.07 419.15L667.71 419.15Q667.49 428.28 663.91 434.50Q660.34 440.71 654.56 443.79Q648.79 446.87 641.63 446.87ZM642.74 439.61L642.74 439.61Q648.68 439.61 653.46 436.97Q658.25 434.33 661.00 429.44Q663.75 424.54 663.75 418.16L663.75 418.16L663.75 412.88Q663.75 406.72 661.00 402.05Q658.25 397.37 653.46 394.73Q648.68 392.09 642.63 392.09L642.63 392.09Q636.13 392.09 631.35 395.23Q626.57 398.36 623.98 403.75Q621.39 409.14 621.39 415.85L621.39 415.85Q621.39 422.78 624.04 428.17Q626.68 433.56 631.51 436.58Q636.36 439.61 642.74 439.61Z" fill="#151D2A" opacity="1"/><path d="M735.03 445L728.43 445L728.43 427.51L727.11 427.51L727.11 406.83Q727.11 400.34 723.70 396.88Q720.29 393.41 713.13 393.41L713.13 393.41Q709.84 393.41 706.48 393.52Q703.13 393.63 700.10 393.80Q697.08 393.96 694.76 394.18L694.76 394.18L694.76 386.92Q697.19 386.70 699.72 386.48Q702.25 386.26 704.94 386.20Q707.63 386.15 710.17 386.15L710.17 386.15Q719.08 386.15 724.52 388.35Q729.97 390.55 732.50 395.23Q735.03 399.90 735.03 407.60L735.03 407.60L735.03 445ZM708.74 446.54L708.74 446.54Q702.58 446.54 697.85 444.34Q693.12 442.14 690.53 437.96Q687.95 433.78 687.95 427.84L687.95 427.84Q687.95 422.01 690.64 417.94Q693.34 413.87 698.45 411.73Q703.57 409.58 710.83 409.58L710.83 409.58L727.88 409.58L727.88 415.85L710.28 415.85Q703.35 415.85 699.66 419.20Q695.98 422.56 695.98 427.95L695.98 427.95Q695.98 433.45 699.83 436.69Q703.68 439.94 710.28 439.94L710.28 439.94Q714.35 439.94 718.09 438.45Q721.83 436.97 724.36 433.39Q726.88 429.82 727.11 423.55L727.11 423.55L729.53 426.96Q729.09 433.45 726.45 437.80Q723.81 442.14 719.30 444.34Q714.79 446.54 708.74 446.54Z" fill="#151D2A" opacity="1"/><path d="M757.47 467.66L750.43 467.66L750.43 460.29L757.91 460.29Q761.76 460.29 764.51 459.36Q767.26 458.42 769.13 456.11Q771.00 453.80 772.32 449.73L772.32 449.73L791.90 386.81L799.93 386.81L779.47 452.04Q777.71 457.65 774.63 461.12Q771.55 464.58 767.26 466.12Q762.97 467.66 757.47 467.66L757.47 467.66ZM779.80 443.57L769.35 443.57L769.35 436.64L779.80 436.64L779.80 443.57ZM776.06 443.57L768.36 443.57L747.24 386.81L755.71 386.81L776.06 443.57Z" fill="#151D2A" opacity="1"/>
        <path d="M258.53 503L250.96 503L250.96 479.24L258.53 479.24Q258.83 479.24 259.71 479.26Q260.59 479.27 261.42 479.37L261.42 479.37Q264.24 479.74 266.19 481.38Q268.15 483.02 269.16 485.56Q270.16 488.10 270.16 491.12L270.16 491.12Q270.16 494.14 269.16 496.68Q268.15 499.22 266.19 500.86Q264.24 502.50 261.42 502.87L261.42 502.87Q260.61 502.97 259.72 502.98Q258.83 503 258.53 503L258.53 503ZM255.00 482.99L255.00 499.25L258.53 499.25Q259.02 499.25 259.79 499.22Q260.56 499.19 261.15 499.07L261.15 499.07Q262.84 498.76 263.89 497.57Q264.95 496.38 265.45 494.68Q265.95 492.98 265.95 491.12L265.95 491.12Q265.95 489.19 265.44 487.49Q264.93 485.79 263.87 484.64Q262.80 483.48 261.15 483.17L261.15 483.17Q260.56 483.04 259.79 483.01Q259.02 482.99 258.53 482.99L258.53 482.99L255.00 482.99Z" fill="#151D2A" opacity="0.62"/><path d="M288.38 503L284.40 503L284.40 479.24L288.38 479.24L288.38 503Z" fill="#151D2A" opacity="0.62"/><path d="M312.12 503.50L312.12 503.50Q309.52 503.50 307.43 502.59Q305.34 501.68 304.00 499.99Q302.65 498.30 302.29 495.97L302.29 495.97L306.41 495.34Q306.94 497.46 308.58 498.61Q310.23 499.77 312.37 499.77L312.37 499.77Q313.64 499.77 314.76 499.37Q315.89 498.97 316.59 498.21Q317.29 497.46 317.29 496.35L317.29 496.35Q317.29 495.86 317.12 495.43Q316.96 495.01 316.64 494.68Q316.31 494.35 315.81 494.08Q315.31 493.81 314.65 493.61L314.65 493.61L308.51 491.80Q307.72 491.57 306.80 491.18Q305.89 490.79 305.07 490.11Q304.25 489.42 303.73 488.36Q303.21 487.29 303.21 485.72L303.21 485.72Q303.21 483.43 304.38 481.87Q305.54 480.31 307.51 479.54Q309.48 478.76 311.89 478.78L311.89 478.78Q314.33 478.79 316.25 479.61Q318.16 480.43 319.45 481.98Q320.74 483.53 321.26 485.72L321.26 485.72L316.99 486.47Q316.73 485.21 315.98 484.33Q315.23 483.45 314.14 482.99Q313.06 482.52 311.84 482.49L311.84 482.49Q310.66 482.47 309.64 482.85Q308.63 483.22 308.01 483.91Q307.39 484.60 307.39 485.53L307.39 485.53Q307.39 486.40 307.92 486.95Q308.44 487.51 309.23 487.83Q310.01 488.15 310.82 488.36L310.82 488.36L315.08 489.55Q315.95 489.78 317.04 490.18Q318.13 490.58 319.14 491.29Q320.14 491.99 320.79 493.15Q321.45 494.30 321.45 496.09L321.45 496.09Q321.45 497.93 320.68 499.33Q319.91 500.72 318.61 501.65Q317.30 502.57 315.63 503.03Q313.96 503.50 312.12 503.50Z" fill="#151D2A" opacity="0.62"/><path d="M345.08 503.50L345.08 503.50Q341.51 503.50 338.97 501.94Q336.43 500.38 335.07 497.59Q333.71 494.80 333.71 491.12L333.71 491.12Q333.71 487.44 335.07 484.65Q336.43 481.86 338.97 480.30Q341.51 478.75 345.08 478.75L345.08 478.75Q349.18 478.75 351.92 480.80Q354.66 482.85 355.77 486.33L355.77 486.33L351.76 487.44Q351.06 485.11 349.40 483.80Q347.73 482.49 345.08 482.49L345.08 482.49Q342.68 482.49 341.09 483.56Q339.50 484.64 338.70 486.57Q337.90 488.51 337.88 491.12L337.88 491.12Q337.88 493.73 338.68 495.67Q339.48 497.60 341.08 498.68Q342.68 499.75 345.08 499.75L345.08 499.75Q347.73 499.75 349.40 498.43Q351.06 497.11 351.76 494.80L351.76 494.80L355.77 495.90Q354.66 499.39 351.92 501.44Q349.18 503.50 345.08 503.50Z" fill="#151D2A" opacity="0.62"/><path d="M379.45 503.50L379.45 503.50Q375.88 503.50 373.34 501.94Q370.80 500.38 369.44 497.59Q368.08 494.80 368.08 491.12L368.08 491.12Q368.08 487.44 369.44 484.65Q370.80 481.86 373.34 480.30Q375.88 478.75 379.45 478.75L379.45 478.75Q383.01 478.75 385.56 480.30Q388.11 481.86 389.47 484.65Q390.83 487.44 390.83 491.12L390.83 491.12Q390.83 494.80 389.47 497.59Q388.11 500.38 385.56 501.94Q383.01 503.50 379.45 503.50ZM379.45 499.75L379.45 499.75Q381.84 499.77 383.43 498.69Q385.02 497.62 385.82 495.67Q386.62 493.73 386.62 491.12L386.62 491.12Q386.62 488.51 385.82 486.59Q385.02 484.67 383.43 483.60Q381.84 482.52 379.45 482.49L379.45 482.49Q377.05 482.47 375.47 483.55Q373.89 484.62 373.08 486.57Q372.28 488.51 372.28 491.12L372.28 491.12Q372.28 493.73 373.08 495.65Q373.87 497.57 375.46 498.64Q377.05 499.72 379.45 499.75Z" fill="#151D2A" opacity="0.62"/><path d="M408.16 503L404.13 503L404.13 479.24L408.16 479.24L419.18 495.99L419.18 479.24L423.20 479.24L423.20 503L419.18 503L408.16 486.25L408.16 503Z" fill="#151D2A" opacity="0.62"/><path d="M441.85 503L437.82 503L437.82 479.24L441.85 479.24L452.87 495.99L452.87 479.24L456.90 479.24L456.90 503L452.87 503L441.85 486.25L441.85 503Z" fill="#151D2A" opacity="0.62"/><path d="M486.86 503L471.52 503L471.52 479.24L486.86 479.24L486.86 482.97L475.50 482.97L475.50 488.83L484.88 488.83L484.88 492.56L475.50 492.56L475.50 499.27L486.86 499.27L486.86 503Z" fill="#151D2A" opacity="0.62"/><path d="M510.87 503.50L510.87 503.50Q507.31 503.50 504.77 501.94Q502.23 500.38 500.87 497.59Q499.50 494.80 499.50 491.12L499.50 491.12Q499.50 487.44 500.87 484.65Q502.23 481.86 504.77 480.30Q507.31 478.75 510.87 478.75L510.87 478.75Q514.98 478.75 517.72 480.80Q520.46 482.85 521.56 486.33L521.56 486.33L517.55 487.44Q516.86 485.11 515.20 483.80Q513.53 482.49 510.87 482.49L510.87 482.49Q508.48 482.49 506.89 483.56Q505.30 484.64 504.50 486.57Q503.69 488.51 503.68 491.12L503.68 491.12Q503.68 493.73 504.48 495.67Q505.28 497.60 506.88 498.68Q508.48 499.75 510.87 499.75L510.87 499.75Q513.53 499.75 515.20 498.43Q516.86 497.11 517.55 494.80L517.55 494.80L521.56 495.90Q520.46 499.39 517.72 501.44Q514.98 503.50 510.87 503.50Z" fill="#151D2A" opacity="0.62"/><path d="M544.88 503L540.90 503L540.90 482.97L533.21 482.97L533.21 479.24L552.57 479.24L552.57 482.97L544.88 482.97L544.88 503Z" fill="#151D2A" opacity="0.62"/><path d="M596.11 503L592.14 503L592.14 482.97L584.45 482.97L584.45 479.24L603.80 479.24L603.80 482.97L596.11 482.97L596.11 503Z" fill="#151D2A" opacity="0.62"/><path d="M626.49 503.50L626.49 503.50Q622.93 503.50 620.39 501.94Q617.85 500.38 616.48 497.59Q615.12 494.80 615.12 491.12L615.12 491.12Q615.12 487.44 616.48 484.65Q617.85 481.86 620.39 480.30Q622.93 478.75 626.49 478.75L626.49 478.75Q630.06 478.75 632.61 480.30Q635.15 481.86 636.52 484.65Q637.88 487.44 637.88 491.12L637.88 491.12Q637.88 494.80 636.52 497.59Q635.15 500.38 632.61 501.94Q630.06 503.50 626.49 503.50ZM626.49 499.75L626.49 499.75Q628.88 499.77 630.48 498.69Q632.07 497.62 632.87 495.67Q633.67 493.73 633.67 491.12L633.67 491.12Q633.67 488.51 632.87 486.59Q632.07 484.67 630.48 483.60Q628.88 482.52 626.49 482.49L626.49 482.49Q624.10 482.47 622.52 483.55Q620.93 484.62 620.13 486.57Q619.33 488.51 619.33 491.12L619.33 491.12Q619.33 493.73 620.12 495.65Q620.91 497.57 622.51 498.64Q624.10 499.72 626.49 499.75Z" fill="#151D2A" opacity="0.62"/><path d="M676.37 503L672.40 503L672.40 479.24L682.21 479.24Q682.56 479.24 683.11 479.26Q683.65 479.29 684.11 479.37L684.11 479.37Q686.17 479.69 687.52 480.74Q688.86 481.80 689.52 483.41Q690.17 485.01 690.17 486.98L690.17 486.98Q690.17 489.88 688.70 491.97Q687.23 494.06 684.19 494.55L684.19 494.55L682.49 494.70L676.37 494.70L676.37 503ZM690.55 503L686.04 503L681.36 493.33L685.40 492.44L690.55 503ZM676.37 482.97L676.37 490.99L682.05 490.99Q682.38 490.99 682.79 490.95Q683.20 490.92 683.55 490.82L683.55 490.82Q684.54 490.58 685.11 489.95Q685.68 489.32 685.92 488.53Q686.16 487.74 686.16 486.98L686.16 486.98Q686.16 486.22 685.92 485.42Q685.68 484.62 685.11 483.99Q684.54 483.37 683.55 483.12L683.55 483.12Q683.20 483.02 682.79 482.99Q682.38 482.97 682.05 482.97L682.05 482.97L676.37 482.97Z" fill="#151D2A" opacity="0.62"/><path d="M719.52 503L704.18 503L704.18 479.24L719.52 479.24L719.52 482.97L708.15 482.97L708.15 488.83L717.54 488.83L717.54 492.56L708.15 492.56L708.15 499.27L719.52 499.27L719.52 503Z" fill="#151D2A" opacity="0.62"/><path d="M743.53 503.50L743.53 503.50Q739.97 503.50 737.43 501.94Q734.88 500.38 733.52 497.59Q732.16 494.80 732.16 491.12L732.16 491.12Q732.16 487.44 733.52 484.65Q734.88 481.86 737.43 480.30Q739.97 478.75 743.53 478.75L743.53 478.75Q747.64 478.75 750.38 480.80Q753.12 482.85 754.22 486.33L754.22 486.33L750.21 487.44Q749.52 485.11 747.85 483.80Q746.19 482.49 743.53 482.49L743.53 482.49Q741.14 482.49 739.55 483.56Q737.95 484.64 737.15 486.57Q736.35 488.51 736.34 491.12L736.34 491.12Q736.34 493.73 737.14 495.67Q737.94 497.60 739.54 498.68Q741.14 499.75 743.53 499.75L743.53 499.75Q746.19 499.75 747.85 498.43Q749.52 497.11 750.21 494.80L750.21 494.80L754.22 495.90Q753.12 499.39 750.38 501.44Q747.64 503.50 743.53 503.50Z" fill="#151D2A" opacity="0.62"/><path d="M777.90 503.50L777.90 503.50Q774.34 503.50 771.80 501.94Q769.25 500.38 767.89 497.59Q766.53 494.80 766.53 491.12L766.53 491.12Q766.53 487.44 767.89 484.65Q769.25 481.86 771.80 480.30Q774.34 478.75 777.90 478.75L777.90 478.75Q781.46 478.75 784.01 480.30Q786.56 481.86 787.92 484.65Q789.29 487.44 789.29 491.12L789.29 491.12Q789.29 494.80 787.92 497.59Q786.56 500.38 784.01 501.94Q781.46 503.50 777.90 503.50ZM777.90 499.75L777.90 499.75Q780.29 499.77 781.89 498.69Q783.48 497.62 784.28 495.67Q785.08 493.73 785.08 491.12L785.08 491.12Q785.08 488.51 784.28 486.59Q783.48 484.67 781.89 483.60Q780.29 482.52 777.90 482.49L777.90 482.49Q775.51 482.47 773.92 483.55Q772.34 484.62 771.54 486.57Q770.74 488.51 770.74 491.12L770.74 491.12Q770.74 493.73 771.53 495.65Q772.32 497.57 773.92 498.64Q775.51 499.72 777.90 499.75Z" fill="#151D2A" opacity="0.62"/><path d="M806.61 503L802.59 503L802.59 479.24L806.61 479.24L817.63 495.99L817.63 479.24L821.66 479.24L821.66 503L817.63 503L806.61 486.25L806.61 503Z" fill="#151D2A" opacity="0.62"/><path d="M840.31 503L836.28 503L836.28 479.24L840.31 479.24L851.33 495.99L851.33 479.24L855.35 479.24L855.35 503L851.33 503L840.31 486.25L840.31 503Z" fill="#151D2A" opacity="0.62"/><path d="M885.32 503L869.97 503L869.97 479.24L885.32 479.24L885.32 482.97L873.95 482.97L873.95 488.83L883.34 488.83L883.34 492.56L873.95 492.56L873.95 499.27L885.32 499.27L885.32 503Z" fill="#151D2A" opacity="0.62"/><path d="M909.33 503.50L909.33 503.50Q905.76 503.50 903.22 501.94Q900.68 500.38 899.32 497.59Q897.96 494.80 897.96 491.12L897.96 491.12Q897.96 487.44 899.32 484.65Q900.68 481.86 903.22 480.30Q905.76 478.75 909.33 478.75L909.33 478.75Q913.44 478.75 916.17 480.80Q918.91 482.85 920.02 486.33L920.02 486.33L916.01 487.44Q915.32 485.11 913.65 483.80Q911.98 482.49 909.33 482.49L909.33 482.49Q906.93 482.49 905.34 483.56Q903.75 484.64 902.95 486.57Q902.15 488.51 902.13 491.12L902.13 491.12Q902.13 493.73 902.93 495.67Q903.73 497.60 905.33 498.68Q906.93 499.75 909.33 499.75L909.33 499.75Q911.98 499.75 913.65 498.43Q915.32 497.11 916.01 494.80L916.01 494.80L920.02 495.90Q918.91 499.39 916.17 501.44Q913.44 503.50 909.33 503.50Z" fill="#151D2A" opacity="0.62"/><path d="M943.33 503L939.36 503L939.36 482.97L931.67 482.97L931.67 479.24L951.02 479.24L951.02 482.97L943.33 482.97L943.33 503Z" fill="#151D2A" opacity="0.62"/>
      
</svg>