<?xml version="1.0" encoding="UTF-8"?>
<svg xmlns="http://www.w3.org/2000/svg" width="1200" height="900" viewBox="0 0 1200 900" fill="none">
  <rect width="1200" height="900" fill="#151D2A"/>
  
        <g transform="translate(490 228) scale(2.2916666666666665)">
    <rect width="96" height="96" rx="26" fill="#151D2A"/>
    <rect class="led-aura" x="32" y="15" width="32" height="66" rx="16" fill="#4A8395" opacity="0.18"/>
    <rect x="31" y="14" width="34" height="68" rx="17" stroke="rgba(246,243,236,.22)" stroke-width="2.6"/>
    <rect x="43" y="28" width="10" height="40" rx="5" fill="#4A8395"/>
  </g>
        <path d="M416.57 547L408.65 547L408.65 484.30Q408.65 475.17 413.38 470.77Q418.12 466.37 427.57 466.37L427.57 466.37L434.94 466.37L434.94 473.41L426.03 473.41Q421.41 473.41 419.00 475.83Q416.57 478.25 416.57 482.65L416.57 482.65L416.57 547ZM436.15 495.63L400.19 495.63L400.19 489.25L436.15 489.25L436.15 495.63Z" fill="#F6F3EC" opacity="1"/><path d="M490.27 547L483.67 547L483.67 529.51L482.35 529.51L482.35 508.83Q482.35 502.34 478.94 498.88Q475.53 495.41 468.38 495.41L468.38 495.41Q465.08 495.41 461.73 495.52Q458.38 495.63 455.35 495.80Q452.32 495.96 450.01 496.18L450.01 496.18L450.01 488.92Q452.44 488.70 454.96 488.48Q457.50 488.26 460.19 488.20Q462.88 488.15 465.41 488.15L465.41 488.15Q474.32 488.15 479.77 490.35Q485.21 492.55 487.75 497.23Q490.27 501.90 490.27 509.60L490.27 509.60L490.27 547ZM463.98 548.54L463.98 548.54Q457.82 548.54 453.09 546.34Q448.36 544.14 445.78 539.96Q443.19 535.78 443.19 529.84L443.19 529.84Q443.19 524.01 445.89 519.94Q448.58 515.87 453.70 513.73Q458.81 511.58 466.07 511.58L466.07 511.58L483.13 511.58L483.13 517.85L465.52 517.85Q458.59 517.85 454.91 521.21Q451.22 524.56 451.22 529.95L451.22 529.95Q451.22 535.45 455.07 538.70Q458.92 541.94 465.52 541.94L465.52 541.94Q469.59 541.94 473.33 540.46Q477.07 538.97 479.60 535.39Q482.13 531.82 482.35 525.55L482.35 525.55L484.77 528.96Q484.33 535.45 481.69 539.79Q479.05 544.14 474.54 546.34Q470.03 548.54 463.98 548.54Z" fill="#F6F3EC" opacity="1"/><path d="M519.09 547L510.84 547L510.84 488.81L517.44 488.81L517.44 513.12L516.78 513.12Q516.78 500.36 522.39 494.25Q528.00 488.15 540.00 488.15L540.00 488.15L541.87 488.15L541.87 495.63L538.45 495.63Q529.00 495.63 524.04 500.52Q519.09 505.42 519.09 514.88L519.09 514.88L519.09 547Z" fill="#F6F3EC" opacity="1"/><path d="M597.19 547L590.60 547L590.60 529.51L589.27 529.51L589.27 508.83Q589.27 502.34 585.87 498.88Q582.46 495.41 575.30 495.41L575.30 495.41Q572.00 495.41 568.65 495.52Q565.29 495.63 562.27 495.80Q559.25 495.96 556.93 496.18L556.93 496.18L556.93 488.92Q559.36 488.70 561.88 488.48Q564.41 488.26 567.11 488.20Q569.80 488.15 572.34 488.15L572.34 488.15Q581.25 488.15 586.69 490.35Q592.13 492.55 594.66 497.23Q597.19 501.90 597.19 509.60L597.19 509.60L597.19 547ZM570.90 548.54L570.90 548.54Q564.75 548.54 560.01 546.34Q555.28 544.14 552.70 539.96Q550.12 535.78 550.12 529.84L550.12 529.84Q550.12 524.01 552.81 519.94Q555.50 515.87 560.62 513.73Q565.74 511.58 573.00 511.58L573.00 511.58L590.04 511.58L590.04 517.85L572.45 517.85Q565.51 517.85 561.83 521.21Q558.14 524.56 558.14 529.95L558.14 529.95Q558.14 535.45 562.00 538.70Q565.85 541.94 572.45 541.94L572.45 541.94Q576.51 541.94 580.25 540.46Q584.00 538.97 586.52 535.39Q589.05 531.82 589.27 525.55L589.27 525.55L591.69 528.96Q591.25 535.45 588.62 539.79Q585.98 544.14 581.47 546.34Q576.96 548.54 570.90 548.54Z" fill="#F6F3EC" opacity="1"/><path d="M641.63 548.87L641.63 548.87Q635.25 548.87 630.03 546.50Q624.81 544.14 621.01 539.90Q617.22 535.67 615.18 530.23Q613.14 524.78 613.14 518.62L613.14 518.62L613.14 517.08Q613.14 511.14 615.13 505.69Q617.11 500.25 620.79 496.01Q624.48 491.78 629.70 489.31Q634.93 486.83 641.42 486.83L641.42 486.83Q648.79 486.83 654.39 490.02Q660.00 493.21 663.42 499.20Q666.83 505.20 667.05 513.89L667.05 513.89L663.42 507.07L663.42 466.70L671.67 466.70L671.67 547L665.07 547L665.07 521.15L667.71 521.15Q667.49 530.28 663.91 536.50Q660.34 542.71 654.56 545.79Q648.79 548.87 641.63 548.87ZM642.74 541.61L642.74 541.61Q648.68 541.61 653.46 538.97Q658.25 536.33 661.00 531.43Q663.75 526.54 663.75 520.16L663.75 520.16L663.75 514.88Q663.75 508.72 661.00 504.05Q658.25 499.37 653.46 496.73Q648.68 494.09 642.63 494.09L642.63 494.09Q636.13 494.09 631.35 497.23Q626.57 500.36 623.98 505.75Q621.39 511.14 621.39 517.85L621.39 517.85Q621.39 524.78 624.04 530.17Q626.68 535.56 631.51 538.59Q636.36 541.61 642.74 541.61Z" fill="#F6F3EC" opacity="1"/><path d="M735.03 547L728.43 547L728.43 529.51L727.11 529.51L727.11 508.83Q727.11 502.34 723.70 498.88Q720.29 495.41 713.13 495.41L713.13 495.41Q709.84 495.41 706.48 495.52Q703.13 495.63 700.10 495.80Q697.08 495.96 694.76 496.18L694.76 496.18L694.76 488.92Q697.19 488.70 699.72 488.48Q702.25 488.26 704.94 488.20Q707.63 488.15 710.17 488.15L710.17 488.15Q719.08 488.15 724.52 490.35Q729.97 492.55 732.50 497.23Q735.03 501.90 735.03 509.60L735.03 509.60L735.03 547ZM708.74 548.54L708.74 548.54Q702.58 548.54 697.85 546.34Q693.12 544.14 690.53 539.96Q687.95 535.78 687.95 529.84L687.95 529.84Q687.95 524.01 690.64 519.94Q693.34 515.87 698.45 513.73Q703.57 511.58 710.83 511.58L710.83 511.58L727.88 511.58L727.88 517.85L710.28 517.85Q703.35 517.85 699.66 521.21Q695.98 524.56 695.98 529.95L695.98 529.95Q695.98 535.45 699.83 538.70Q703.68 541.94 710.28 541.94L710.28 541.94Q714.35 541.94 718.09 540.46Q721.83 538.97 724.36 535.39Q726.88 531.82 727.11 525.55L727.11 525.55L729.53 528.96Q729.09 535.45 726.45 539.79Q723.81 544.14 719.30 546.34Q714.79 548.54 708.74 548.54Z" fill="#F6F3EC" opacity="1"/><path d="M757.47 569.66L750.43 569.66L750.43 562.29L757.91 562.29Q761.76 562.29 764.51 561.36Q767.26 560.42 769.13 558.11Q771.00 555.80 772.32 551.73L772.32 551.73L791.90 488.81L799.93 488.81L779.47 554.04Q777.71 559.65 774.63 563.12Q771.55 566.58 767.26 568.12Q762.97 569.66 757.47 569.66L757.47 569.66ZM779.80 545.57L769.35 545.57L769.35 538.64L779.80 538.64L779.80 545.57ZM776.06 545.57L768.36 545.57L747.24 488.81L755.71 488.81L776.06 545.57Z" fill="#F6F3EC" opacity="1"/>
        <path d="M258.53 611L250.96 611L250.96 587.24L258.53 587.24Q258.83 587.24 259.71 587.26Q260.59 587.27 261.42 587.37L261.42 587.37Q264.24 587.74 266.19 589.38Q268.15 591.02 269.16 593.56Q270.16 596.10 270.16 599.12L270.16 599.12Q270.16 602.14 269.16 604.68Q268.15 607.22 266.19 608.86Q264.24 610.50 261.42 610.87L261.42 610.87Q260.61 610.97 259.72 610.98Q258.83 611 258.53 611L258.53 611ZM255.00 590.99L255.00 607.25L258.53 607.25Q259.02 607.25 259.79 607.22Q260.56 607.19 261.15 607.07L261.15 607.07Q262.84 606.76 263.89 605.57Q264.95 604.38 265.45 602.68Q265.95 600.98 265.95 599.12L265.95 599.12Q265.95 597.19 265.44 595.49Q264.93 593.79 263.87 592.64Q262.80 591.48 261.15 591.17L261.15 591.17Q260.56 591.03 259.79 591.01Q259.02 590.99 258.53 590.99L258.53 590.99L255.00 590.99Z" fill="#F6F3EC" opacity="0.72"/><path d="M288.38 611L284.40 611L284.40 587.24L288.38 587.24L288.38 611Z" fill="#F6F3EC" opacity="0.72"/><path d="M312.12 611.50L312.12 611.50Q309.52 611.50 307.43 610.59Q305.34 609.68 304.00 607.99Q302.65 606.30 302.29 603.97L302.29 603.97L306.41 603.34Q306.94 605.46 308.58 606.61Q310.23 607.77 312.37 607.77L312.37 607.77Q313.64 607.77 314.76 607.37Q315.89 606.97 316.59 606.22Q317.29 605.46 317.29 604.35L317.29 604.35Q317.29 603.86 317.12 603.43Q316.96 603.01 316.64 602.68Q316.31 602.35 315.81 602.08Q315.31 601.81 314.65 601.61L314.65 601.61L308.51 599.80Q307.72 599.57 306.80 599.18Q305.89 598.79 305.07 598.11Q304.25 597.42 303.73 596.36Q303.21 595.29 303.21 593.72L303.21 593.72Q303.21 591.43 304.38 589.87Q305.54 588.31 307.51 587.54Q309.48 586.76 311.89 586.78L311.89 586.78Q314.33 586.79 316.25 587.61Q318.16 588.43 319.45 589.98Q320.74 591.53 321.26 593.72L321.26 593.72L316.99 594.47Q316.73 593.21 315.98 592.33Q315.23 591.45 314.14 590.99Q313.06 590.52 311.84 590.49L311.84 590.49Q310.66 590.47 309.64 590.85Q308.63 591.22 308.01 591.91Q307.39 592.60 307.39 593.53L307.39 593.53Q307.39 594.40 307.92 594.95Q308.44 595.51 309.23 595.83Q310.01 596.15 310.82 596.36L310.82 596.36L315.08 597.55Q315.95 597.78 317.04 598.18Q318.13 598.58 319.14 599.28Q320.14 599.99 320.79 601.15Q321.45 602.30 321.45 604.09L321.45 604.09Q321.45 605.93 320.68 607.33Q319.91 608.72 318.61 609.65Q317.30 610.57 315.63 611.03Q313.96 611.50 312.12 611.50Z" fill="#F6F3EC" opacity="0.72"/><path d="M345.08 611.50L345.08 611.50Q341.51 611.50 338.97 609.94Q336.43 608.38 335.07 605.59Q333.71 602.80 333.71 599.12L333.71 599.12Q333.71 595.44 335.07 592.65Q336.43 589.86 338.97 588.30Q341.51 586.75 345.08 586.75L345.08 586.75Q349.18 586.75 351.92 588.80Q354.66 590.85 355.77 594.34L355.77 594.34L351.76 595.44Q351.06 593.11 349.40 591.80Q347.73 590.49 345.08 590.49L345.08 590.49Q342.68 590.49 341.09 591.56Q339.50 592.64 338.70 594.57Q337.90 596.51 337.88 599.12L337.88 599.12Q337.88 601.73 338.68 603.67Q339.48 605.60 341.08 606.68Q342.68 607.75 345.08 607.75L345.08 607.75Q347.73 607.75 349.40 606.43Q351.06 605.11 351.76 602.80L351.76 602.80L355.77 603.90Q354.66 607.39 351.92 609.44Q349.18 611.50 345.08 611.50Z" fill="#F6F3EC" opacity="0.72"/><path d="M379.45 611.50L379.45 611.50Q375.88 611.50 373.34 609.94Q370.80 608.38 369.44 605.59Q368.08 602.80 368.08 599.12L368.08 599.12Q368.08 595.44 369.44 592.65Q370.80 589.86 373.34 588.30Q375.88 586.75 379.45 586.75L379.45 586.75Q383.01 586.75 385.56 588.30Q388.11 589.86 389.47 592.65Q390.83 595.44 390.83 599.12L390.83 599.12Q390.83 602.80 389.47 605.59Q388.11 608.38 385.56 609.94Q383.01 611.50 379.45 611.50ZM379.45 607.75L379.45 607.75Q381.84 607.77 383.43 606.69Q385.02 605.62 385.82 603.67Q386.62 601.73 386.62 599.12L386.62 599.12Q386.62 596.51 385.82 594.59Q385.02 592.67 383.43 591.60Q381.84 590.52 379.45 590.49L379.45 590.49Q377.05 590.47 375.47 591.55Q373.89 592.62 373.08 594.57Q372.28 596.51 372.28 599.12L372.28 599.12Q372.28 601.73 373.08 603.65Q373.87 605.57 375.46 606.64Q377.05 607.72 379.45 607.75Z" fill="#F6F3EC" opacity="0.72"/><path d="M408.16 611L404.13 611L404.13 587.24L408.16 587.24L419.18 603.99L419.18 587.24L423.20 587.24L423.20 611L419.18 611L408.16 594.25L408.16 611Z" fill="#F6F3EC" opacity="0.72"/><path d="M441.85 611L437.82 611L437.82 587.24L441.85 587.24L452.87 603.99L452.87 587.24L456.90 587.24L456.90 611L452.87 611L441.85 594.25L441.85 611Z" fill="#F6F3EC" opacity="0.72"/><path d="M486.86 611L471.52 611L471.52 587.24L486.86 587.24L486.86 590.97L475.50 590.97L475.50 596.83L484.88 596.83L484.88 600.56L475.50 600.56L475.50 607.27L486.86 607.27L486.86 611Z" fill="#F6F3EC" opacity="0.72"/><path d="M510.87 611.50L510.87 611.50Q507.31 611.50 504.77 609.94Q502.23 608.38 500.87 605.59Q499.50 602.80 499.50 599.12L499.50 599.12Q499.50 595.44 500.87 592.65Q502.23 589.86 504.77 588.30Q507.31 586.75 510.87 586.75L510.87 586.75Q514.98 586.75 517.72 588.80Q520.46 590.85 521.56 594.34L521.56 594.34L517.55 595.44Q516.86 593.11 515.20 591.80Q513.53 590.49 510.87 590.49L510.87 590.49Q508.48 590.49 506.89 591.56Q505.30 592.64 504.50 594.57Q503.69 596.51 503.68 599.12L503.68 599.12Q503.68 601.73 504.48 603.67Q505.28 605.60 506.88 606.68Q508.48 607.75 510.87 607.75L510.87 607.75Q513.53 607.75 515.20 606.43Q516.86 605.11 517.55 602.80L517.55 602.80L521.56 603.90Q520.46 607.39 517.72 609.44Q514.98 611.50 510.87 611.50Z" fill="#F6F3EC" opacity="0.72"/><path d="M544.88 611L540.90 611L540.90 590.97L533.21 590.97L533.21 587.24L552.57 587.24L552.57 590.97L544.88 590.97L544.88 611Z" fill="#F6F3EC" opacity="0.72"/><path d="M596.11 611L592.14 611L592.14 590.97L584.45 590.97L584.45 587.24L603.80 587.24L603.80 590.97L596.11 590.97L596.11 611Z" fill="#F6F3EC" opacity="0.72"/><path d="M626.49 611.50L626.49 611.50Q622.93 611.50 620.39 609.94Q617.85 608.38 616.48 605.59Q615.12 602.80 615.12 599.12L615.12 599.12Q615.12 595.44 616.48 592.65Q617.85 589.86 620.39 588.30Q622.93 586.75 626.49 586.75L626.49 586.75Q630.06 586.75 632.61 588.30Q635.15 589.86 636.52 592.65Q637.88 595.44 637.88 599.12L637.88 599.12Q637.88 602.80 636.52 605.59Q635.15 608.38 632.61 609.94Q630.06 611.50 626.49 611.50ZM626.49 607.75L626.49 607.75Q628.88 607.77 630.48 606.69Q632.07 605.62 632.87 603.67Q633.67 601.73 633.67 599.12L633.67 599.12Q633.67 596.51 632.87 594.59Q632.07 592.67 630.48 591.60Q628.88 590.52 626.49 590.49L626.49 590.49Q624.10 590.47 622.52 591.55Q620.93 592.62 620.13 594.57Q619.33 596.51 619.33 599.12L619.33 599.12Q619.33 601.73 620.12 603.65Q620.91 605.57 622.51 606.64Q624.10 607.72 626.49 607.75Z" fill="#F6F3EC" opacity="0.72"/><path d="M676.37 611L672.40 611L672.40 587.24L682.21 587.24Q682.56 587.24 683.11 587.26Q683.65 587.29 684.11 587.37L684.11 587.37Q686.17 587.69 687.52 588.74Q688.86 589.80 689.52 591.41Q690.17 593.01 690.17 594.98L690.17 594.98Q690.17 597.88 688.70 599.97Q687.23 602.06 684.19 602.55L684.19 602.55L682.49 602.70L676.37 602.70L676.37 611ZM690.55 611L686.04 611L681.36 601.33L685.40 600.44L690.55 611ZM676.37 590.97L676.37 598.99L682.05 598.99Q682.38 598.99 682.79 598.96Q683.20 598.92 683.55 598.82L683.55 598.82Q684.54 598.58 685.11 597.95Q685.68 597.32 685.92 596.53Q686.16 595.74 686.16 594.98L686.16 594.98Q686.16 594.22 685.92 593.42Q685.68 592.62 685.11 591.99Q684.54 591.37 683.55 591.12L683.55 591.12Q683.20 591.02 682.79 590.99Q682.38 590.97 682.05 590.97L682.05 590.97L676.37 590.97Z" fill="#F6F3EC" opacity="0.72"/><path d="M719.52 611L704.18 611L704.18 587.24L719.52 587.24L719.52 590.97L708.15 590.97L708.15 596.83L717.54 596.83L717.54 600.56L708.15 600.56L708.15 607.27L719.52 607.27L719.52 611Z" fill="#F6F3EC" opacity="0.72"/><path d="M743.53 611.50L743.53 611.50Q739.97 611.50 737.43 609.94Q734.88 608.38 733.52 605.59Q732.16 602.80 732.16 599.12L732.16 599.12Q732.16 595.44 733.52 592.65Q734.88 589.86 737.43 588.30Q739.97 586.75 743.53 586.75L743.53 586.75Q747.64 586.75 750.38 588.80Q753.12 590.85 754.22 594.34L754.22 594.34L750.21 595.44Q749.52 593.11 747.85 591.80Q746.19 590.49 743.53 590.49L743.53 590.49Q741.14 590.49 739.55 591.56Q737.95 592.64 737.15 594.57Q736.35 596.51 736.34 599.12L736.34 599.12Q736.34 601.73 737.14 603.67Q737.94 605.60 739.54 606.68Q741.14 607.75 743.53 607.75L743.53 607.75Q746.19 607.75 747.85 606.43Q749.52 605.11 750.21 602.80L750.21 602.80L754.22 603.90Q753.12 607.39 750.38 609.44Q747.64 611.50 743.53 611.50Z" fill="#F6F3EC" opacity="0.72"/><path d="M777.90 611.50L777.90 611.50Q774.34 611.50 771.80 609.94Q769.25 608.38 767.89 605.59Q766.53 602.80 766.53 599.12L766.53 599.12Q766.53 595.44 767.89 592.65Q769.25 589.86 771.80 588.30Q774.34 586.75 777.90 586.75L777.90 586.75Q781.46 586.75 784.01 588.30Q786.56 589.86 787.92 592.65Q789.29 595.44 789.29 599.12L789.29 599.12Q789.29 602.80 787.92 605.59Q786.56 608.38 784.01 609.94Q781.46 611.50 777.90 611.50ZM777.90 607.75L777.90 607.75Q780.29 607.77 781.89 606.69Q783.48 605.62 784.28 603.67Q785.08 601.73 785.08 599.12L785.08 599.12Q785.08 596.51 784.28 594.59Q783.48 592.67 781.89 591.60Q780.29 590.52 777.90 590.49L777.90 590.49Q775.51 590.47 773.92 591.55Q772.34 592.62 771.54 594.57Q770.74 596.51 770.74 599.12L770.74 599.12Q770.74 601.73 771.53 603.65Q772.32 605.57 773.92 606.64Q775.51 607.72 777.90 607.75Z" fill="#F6F3EC" opacity="0.72"/><path d="M806.61 611L802.59 611L802.59 587.24L806.61 587.24L817.63 603.99L817.63 587.24L821.66 587.24L821.66 611L817.63 611L806.61 594.25L806.61 611Z" fill="#F6F3EC" opacity="0.72"/><path d="M840.31 611L836.28 611L836.28 587.24L840.31 587.24L851.33 603.99L851.33 587.24L855.35 587.24L855.35 611L851.33 611L840.31 594.25L840.31 611Z" fill="#F6F3EC" opacity="0.72"/><path d="M885.32 611L869.97 611L869.97 587.24L885.32 587.24L885.32 590.97L873.95 590.97L873.95 596.83L883.34 596.83L883.34 600.56L873.95 600.56L873.95 607.27L885.32 607.27L885.32 611Z" fill="#F6F3EC" opacity="0.72"/><path d="M909.33 611.50L909.33 611.50Q905.76 611.50 903.22 609.94Q900.68 608.38 899.32 605.59Q897.96 602.80 897.96 599.12L897.96 599.12Q897.96 595.44 899.32 592.65Q900.68 589.86 903.22 588.30Q905.76 586.75 909.33 586.75L909.33 586.75Q913.44 586.75 916.17 588.80Q918.91 590.85 920.02 594.34L920.02 594.34L916.01 595.44Q915.32 593.11 913.65 591.80Q911.98 590.49 909.33 590.49L909.33 590.49Q906.93 590.49 905.34 591.56Q903.75 592.64 902.95 594.57Q902.15 596.51 902.13 599.12L902.13 599.12Q902.13 601.73 902.93 603.67Q903.73 605.60 905.33 606.68Q906.93 607.75 909.33 607.75L909.33 607.75Q911.98 607.75 913.65 606.43Q915.32 605.11 916.01 602.80L916.01 602.80L920.02 603.90Q918.91 607.39 916.17 609.44Q913.44 611.50 909.33 611.50Z" fill="#F6F3EC" opacity="0.72"/><path d="M943.33 611L939.36 611L939.36 590.97L931.67 590.97L931.67 587.24L951.02 587.24L951.02 590.97L943.33 590.97L943.33 611Z" fill="#F6F3EC" opacity="0.72"/>
      
</svg>