<?xml version="1.0" encoding="UTF-8"?>
<svg xmlns="http://www.w3.org/2000/svg" width="2400" height="1080" viewBox="0 0 2400 1080" fill="none">
  <rect width="2400" height="1080" fill="#151D2A"/>
  
        <g transform="translate(156 417) scale(2.5625)">
    <rect width="96" height="96" rx="26" fill="#151D2A"/>
    <rect class="led-aura" x="32" y="15" width="32" height="66" rx="16" fill="#4A8395" opacity="0.18"/>
    <rect x="31" y="14" width="34" height="68" rx="17" stroke="rgba(246,243,236,.22)" stroke-width="2.6"/>
    <rect x="43" y="28" width="10" height="40" rx="5" fill="#4A8395"/>
  </g>
        <path d="M462.55 545L453.34 545L453.34 472.04Q453.34 461.42 458.84 456.30Q464.34 451.18 475.35 451.18L475.35 451.18L483.93 451.18L483.93 459.37L473.56 459.37Q468.18 459.37 465.37 462.18Q462.55 465 462.55 470.12L462.55 470.12L462.55 545ZM485.34 485.22L443.48 485.22L443.48 477.80L485.34 477.80L485.34 485.22Z" fill="#F6F3EC" opacity="1"/><path d="M548.31 545L540.63 545L540.63 524.65L539.10 524.65L539.10 500.58Q539.10 493.03 535.13 489Q531.16 484.97 522.84 484.97L522.84 484.97Q519 484.97 515.10 485.10Q511.19 485.22 507.67 485.42Q504.15 485.61 501.46 485.86L501.46 485.86L501.46 477.42Q504.28 477.16 507.22 476.90Q510.17 476.65 513.30 476.58Q516.44 476.52 519.38 476.52L519.38 476.52Q529.75 476.52 536.09 479.08Q542.42 481.64 545.37 487.08Q548.31 492.52 548.31 501.48L548.31 501.48L548.31 545ZM517.72 546.79L517.72 546.79Q510.55 546.79 505.05 544.23Q499.54 541.67 496.54 536.81Q493.53 531.94 493.53 525.03L493.53 525.03Q493.53 518.25 496.66 513.51Q499.80 508.78 505.75 506.28Q511.70 503.78 520.15 503.78L520.15 503.78L539.99 503.78L539.99 511.08L519.51 511.08Q511.45 511.08 507.16 514.98Q502.87 518.89 502.87 525.16L502.87 525.16Q502.87 531.56 507.35 535.34Q511.83 539.11 519.51 539.11L519.51 539.11Q524.25 539.11 528.60 537.38Q532.95 535.66 535.90 531.50Q538.84 527.34 539.10 520.04L539.10 520.04L541.91 524.01Q541.40 531.56 538.33 536.62Q535.26 541.67 530.01 544.23Q524.76 546.79 517.72 546.79Z" fill="#F6F3EC" opacity="1"/><path d="M581.85 545L572.25 545L572.25 477.29L579.93 477.29L579.93 505.58L579.16 505.58Q579.16 490.73 585.69 483.62Q592.22 476.52 606.17 476.52L606.17 476.52L608.34 476.52L608.34 485.22L604.38 485.22Q593.37 485.22 587.61 490.92Q581.85 496.62 581.85 507.62L581.85 507.62L581.85 545Z" fill="#F6F3EC" opacity="1"/><path d="M672.73 545L665.05 545L665.05 524.65L663.51 524.65L663.51 500.58Q663.51 493.03 659.54 489Q655.58 484.97 647.26 484.97L647.26 484.97Q643.42 484.97 639.51 485.10Q635.61 485.22 632.09 485.42Q628.57 485.61 625.88 485.86L625.88 485.86L625.88 477.42Q628.70 477.16 631.64 476.90Q634.58 476.65 637.72 476.58Q640.86 476.52 643.80 476.52L643.80 476.52Q654.17 476.52 660.50 479.08Q666.84 481.64 669.78 487.08Q672.73 492.52 672.73 501.48L672.73 501.48L672.73 545ZM642.14 546.79L642.14 546.79Q634.97 546.79 629.46 544.23Q623.96 541.67 620.95 536.81Q617.94 531.94 617.94 525.03L617.94 525.03Q617.94 518.25 621.08 513.51Q624.22 508.78 630.17 506.28Q636.12 503.78 644.57 503.78L644.57 503.78L664.41 503.78L664.41 511.08L643.93 511.08Q635.86 511.08 631.58 514.98Q627.29 518.89 627.29 525.16L627.29 525.16Q627.29 531.56 631.77 535.34Q636.25 539.11 643.93 539.11L643.93 539.11Q648.66 539.11 653.02 537.38Q657.37 535.66 660.31 531.50Q663.26 527.34 663.51 520.04L663.51 520.04L666.33 524.01Q665.82 531.56 662.74 536.62Q659.67 541.67 654.42 544.23Q649.18 546.79 642.14 546.79Z" fill="#F6F3EC" opacity="1"/><path d="M724.44 547.18L724.44 547.18Q717.02 547.18 710.94 544.42Q704.86 541.67 700.44 536.74Q696.02 531.82 693.66 525.48Q691.29 519.14 691.29 511.98L691.29 511.98L691.29 510.18Q691.29 503.27 693.59 496.94Q695.90 490.60 700.18 485.67Q704.47 480.74 710.55 477.86Q716.63 474.98 724.18 474.98L724.18 474.98Q732.76 474.98 739.29 478.70Q745.82 482.41 749.78 489.38Q753.75 496.36 754.01 506.47L754.01 506.47L749.78 498.54L749.78 451.56L759.38 451.56L759.38 545L751.70 545L751.70 514.92L754.78 514.92Q754.52 525.54 750.36 532.78Q746.20 540.01 739.48 543.59Q732.76 547.18 724.44 547.18ZM725.72 538.73L725.72 538.73Q732.63 538.73 738.20 535.66Q743.77 532.58 746.97 526.89Q750.17 521.19 750.17 513.77L750.17 513.77L750.17 507.62Q750.17 500.46 746.97 495.02Q743.77 489.58 738.20 486.50Q732.63 483.43 725.59 483.43L725.59 483.43Q718.04 483.43 712.47 487.08Q706.90 490.73 703.90 497Q700.89 503.27 700.89 511.08L700.89 511.08Q700.89 519.14 703.96 525.42Q707.03 531.69 712.66 535.21Q718.30 538.73 725.72 538.73Z" fill="#F6F3EC" opacity="1"/><path d="M833.11 545L825.43 545L825.43 524.65L823.90 524.65L823.90 500.58Q823.90 493.03 819.93 489Q815.96 484.97 807.64 484.97L807.64 484.97Q803.80 484.97 799.90 485.10Q795.99 485.22 792.47 485.42Q788.95 485.61 786.26 485.86L786.26 485.86L786.26 477.42Q789.08 477.16 792.02 476.90Q794.97 476.65 798.10 476.58Q801.24 476.52 804.18 476.52L804.18 476.52Q814.55 476.52 820.89 479.08Q827.22 481.64 830.17 487.08Q833.11 492.52 833.11 501.48L833.11 501.48L833.11 545ZM802.52 546.79L802.52 546.79Q795.35 546.79 789.85 544.23Q784.34 541.67 781.34 536.81Q778.33 531.94 778.33 525.03L778.33 525.03Q778.33 518.25 781.46 513.51Q784.60 508.78 790.55 506.28Q796.50 503.78 804.95 503.78L804.95 503.78L824.79 503.78L824.79 511.08L804.31 511.08Q796.25 511.08 791.96 514.98Q787.67 518.89 787.67 525.16L787.67 525.16Q787.67 531.56 792.15 535.34Q796.63 539.11 804.31 539.11L804.31 539.11Q809.05 539.11 813.40 537.38Q817.75 535.66 820.70 531.50Q823.64 527.34 823.90 520.04L823.90 520.04L826.71 524.01Q826.20 531.56 823.13 536.62Q820.06 541.67 814.81 544.23Q809.56 546.79 802.52 546.79Z" fill="#F6F3EC" opacity="1"/><path d="M859.22 571.37L851.03 571.37L851.03 562.79L859.74 562.79Q864.22 562.79 867.42 561.70Q870.62 560.62 872.79 557.93Q874.97 555.24 876.50 550.50L876.50 550.50L899.29 477.29L908.63 477.29L884.82 553.19Q882.78 559.72 879.19 563.75Q875.61 567.78 870.62 569.58Q865.62 571.37 859.22 571.37L859.22 571.37ZM885.21 543.34L873.05 543.34L873.05 535.27L885.21 535.27L885.21 543.34ZM880.86 543.34L871.90 543.34L847.32 477.29L857.18 477.29L880.86 543.34Z" fill="#F6F3EC" opacity="1"/><path d="M450.08 624L441.59 624L441.59 597.36L450.08 597.36Q450.41 597.36 451.40 597.38Q452.39 597.40 453.32 597.51L453.32 597.51Q456.48 597.91 458.67 599.76Q460.87 601.60 462.00 604.45Q463.12 607.29 463.12 610.68L463.12 610.68Q463.12 614.07 462.00 616.91Q460.87 619.76 458.67 621.60Q456.48 623.45 453.32 623.85L453.32 623.85Q452.41 623.96 451.41 623.98Q450.41 624 450.08 624L450.08 624ZM446.12 601.56L446.12 619.80L450.08 619.80Q450.64 619.80 451.50 619.76Q452.36 619.73 453.02 619.60L453.02 619.60Q454.91 619.25 456.09 617.91Q457.28 616.58 457.84 614.68Q458.41 612.77 458.41 610.68L458.41 610.68Q458.41 608.52 457.83 606.61Q457.26 604.70 456.07 603.41Q454.87 602.11 453.02 601.76L453.02 601.76Q452.36 601.62 451.50 601.59Q450.64 601.56 450.08 601.56L450.08 601.56L446.12 601.56Z" fill="#F6F3EC" opacity="0.72"/><path d="M484.34 624L479.88 624L479.88 597.36L484.34 597.36L484.34 624Z" fill="#F6F3EC" opacity="0.72"/><path d="M511.75 624.55L511.75 624.55Q508.82 624.55 506.48 623.54Q504.14 622.52 502.64 620.62Q501.13 618.73 500.72 616.12L500.72 616.12L505.35 615.42Q505.94 617.78 507.78 619.08Q509.62 620.37 512.02 620.37L512.02 620.37Q513.45 620.37 514.71 619.93Q515.97 619.49 516.75 618.63Q517.54 617.78 517.54 616.54L517.54 616.54Q517.54 615.99 517.35 615.52Q517.17 615.05 516.81 614.68Q516.45 614.31 515.88 614.00Q515.32 613.70 514.58 613.47L514.58 613.47L507.70 611.44Q506.81 611.18 505.78 610.74Q504.75 610.31 503.84 609.54Q502.92 608.77 502.34 607.58Q501.76 606.39 501.76 604.63L501.76 604.63Q501.76 602.06 503.06 600.31Q504.37 598.56 506.58 597.69Q508.79 596.82 511.49 596.84L511.49 596.84Q514.23 596.86 516.37 597.78Q518.52 598.69 519.96 600.43Q521.40 602.17 522.00 604.63L522.00 604.63L517.20 605.46Q516.91 604.06 516.07 603.07Q515.23 602.08 514.01 601.56Q512.80 601.04 511.43 601.00L511.43 601.00Q510.10 600.99 508.96 601.40Q507.83 601.82 507.13 602.60Q506.44 603.37 506.44 604.41L506.44 604.41Q506.44 605.39 507.03 606.01Q507.62 606.63 508.50 606.99Q509.38 607.35 510.29 607.59L510.29 607.59L515.06 608.92Q516.04 609.18 517.26 609.63Q518.48 610.07 519.61 610.87Q520.74 611.66 521.47 612.96Q522.20 614.25 522.20 616.25L522.20 616.25Q522.20 618.32 521.34 619.88Q520.48 621.45 519.02 622.48Q517.56 623.52 515.68 624.04Q513.80 624.55 511.75 624.55Z" fill="#F6F3EC" opacity="0.72"/><path d="M549.48 624.55L549.48 624.55Q545.49 624.55 542.64 622.81Q539.79 621.06 538.26 617.93Q536.73 614.81 536.73 610.68L536.73 610.68Q536.73 606.55 538.26 603.43Q539.79 600.30 542.64 598.55Q545.49 596.80 549.48 596.80L549.48 596.80Q554.09 596.80 557.16 599.11Q560.23 601.41 561.47 605.32L561.47 605.32L556.97 606.55Q556.20 603.95 554.33 602.48Q552.46 601.00 549.48 601.00L549.48 601.00Q546.80 601.00 545.01 602.21Q543.23 603.41 542.33 605.58Q541.43 607.76 541.41 610.68L541.41 610.68Q541.41 613.60 542.31 615.78Q543.21 617.95 545.00 619.15Q546.80 620.36 549.48 620.36L549.48 620.36Q552.46 620.36 554.33 618.88Q556.20 617.40 556.97 614.81L556.97 614.81L561.47 616.04Q560.23 619.95 557.16 622.25Q554.09 624.55 549.48 624.55Z" fill="#F6F3EC" opacity="0.72"/><path d="M588.81 624.55L588.81 624.55Q584.81 624.55 581.96 622.81Q579.11 621.06 577.59 617.93Q576.06 614.81 576.06 610.68L576.06 610.68Q576.06 606.55 577.59 603.43Q579.11 600.30 581.96 598.55Q584.81 596.80 588.81 596.80L588.81 596.80Q592.80 596.80 595.66 598.55Q598.52 600.30 600.04 603.43Q601.57 606.55 601.57 610.68L601.57 610.68Q601.57 614.81 600.04 617.93Q598.52 621.06 595.66 622.81Q592.80 624.55 588.81 624.55ZM588.81 620.36L588.81 620.36Q591.49 620.37 593.27 619.17Q595.06 617.97 595.96 615.79Q596.85 613.60 596.85 610.68L596.85 610.68Q596.85 607.76 595.96 605.60Q595.06 603.45 593.27 602.24Q591.49 601.04 588.81 601.00L588.81 601.00Q586.12 600.99 584.35 602.19Q582.57 603.39 581.67 605.57Q580.78 607.76 580.78 610.68L580.78 610.68Q580.78 613.60 581.66 615.76Q582.55 617.91 584.34 619.12Q586.12 620.32 588.81 620.36Z" fill="#F6F3EC" opacity="0.72"/><path d="M621.78 624L617.27 624L617.27 597.36L621.78 597.36L634.14 616.14L634.14 597.36L638.66 597.36L638.66 624L634.14 624L621.78 605.22L621.78 624Z" fill="#F6F3EC" opacity="0.72"/><path d="M660.35 624L655.84 624L655.84 597.36L660.35 597.36L672.71 616.14L672.71 597.36L677.22 597.36L677.22 624L672.71 624L660.35 605.22L660.35 624Z" fill="#F6F3EC" opacity="0.72"/><path d="M711.61 624L694.40 624L694.40 597.36L711.61 597.36L711.61 601.54L698.86 601.54L698.86 608.11L709.39 608.11L709.39 612.29L698.86 612.29L698.86 619.82L711.61 619.82L711.61 624Z" fill="#F6F3EC" opacity="0.72"/><path d="M739.31 624.55L739.31 624.55Q735.32 624.55 732.47 622.81Q729.62 621.06 728.09 617.93Q726.57 614.81 726.57 610.68L726.57 610.68Q726.57 606.55 728.09 603.43Q729.62 600.30 732.47 598.55Q735.32 596.80 739.31 596.80L739.31 596.80Q743.92 596.80 746.99 599.11Q750.06 601.41 751.30 605.32L751.30 605.32L746.81 606.55Q746.03 603.95 744.16 602.48Q742.29 601.00 739.31 601.00L739.31 601.00Q736.63 601.00 734.85 602.21Q733.06 603.41 732.16 605.58Q731.27 607.76 731.25 610.68L731.25 610.68Q731.25 613.60 732.15 615.78Q733.04 617.95 734.84 619.15Q736.63 620.36 739.31 620.36L739.31 620.36Q742.29 620.36 744.16 618.88Q746.03 617.40 746.81 614.81L746.81 614.81L751.30 616.04Q750.06 619.95 746.99 622.25Q743.92 624.55 739.31 624.55Z" fill="#F6F3EC" opacity="0.72"/><path d="M778.23 624L773.77 624L773.77 601.54L765.15 601.54L765.15 597.36L786.85 597.36L786.85 601.54L778.23 601.54L778.23 624Z" fill="#F6F3EC" opacity="0.72"/><path d="M837.25 624L832.79 624L832.79 601.54L824.17 601.54L824.17 597.36L845.87 597.36L845.87 601.54L837.25 601.54L837.25 624Z" fill="#F6F3EC" opacity="0.72"/><path d="M872.10 624.55L872.10 624.55Q868.10 624.55 865.25 622.81Q862.41 621.06 860.88 617.93Q859.35 614.81 859.35 610.68L859.35 610.68Q859.35 606.55 860.88 603.43Q862.41 600.30 865.25 598.55Q868.10 596.80 872.10 596.80L872.10 596.80Q876.10 596.80 878.95 598.55Q881.81 600.30 883.34 603.43Q884.86 606.55 884.86 610.68L884.86 610.68Q884.86 614.81 883.34 617.93Q881.81 621.06 878.95 622.81Q876.10 624.55 872.10 624.55ZM872.10 620.36L872.10 620.36Q874.78 620.37 876.57 619.17Q878.35 617.97 879.25 615.79Q880.15 613.60 880.15 610.68L880.15 610.68Q880.15 607.76 879.25 605.60Q878.35 603.45 876.57 602.24Q874.78 601.04 872.10 601.00L872.10 601.00Q869.42 600.99 867.64 602.19Q865.87 603.39 864.97 605.57Q864.07 607.76 864.07 610.68L864.07 610.68Q864.07 613.60 864.96 615.76Q865.85 617.91 867.63 619.12Q869.42 620.32 872.10 620.36Z" fill="#F6F3EC" opacity="0.72"/><path d="M929.60 624L925.14 624L925.14 597.36L936.15 597.36Q936.54 597.36 937.15 597.39Q937.76 597.42 938.28 597.51L938.28 597.51Q940.59 597.86 942.10 599.04Q943.61 600.23 944.34 602.03Q945.07 603.84 945.07 606.04L945.07 606.04Q945.07 609.29 943.42 611.63Q941.78 613.97 938.37 614.53L938.37 614.53L936.47 614.69L929.60 614.69L929.60 624ZM945.49 624L940.44 624L935.19 613.16L939.72 612.16L945.49 624ZM929.60 601.54L929.60 610.53L935.97 610.53Q936.34 610.53 936.80 610.50Q937.26 610.46 937.65 610.35L937.65 610.35Q938.76 610.07 939.40 609.37Q940.04 608.66 940.31 607.78Q940.57 606.89 940.57 606.04L940.57 606.04Q940.57 605.19 940.31 604.29Q940.04 603.39 939.40 602.69Q938.76 601.99 937.65 601.71L937.65 601.71Q937.26 601.60 936.80 601.57Q936.34 601.54 935.97 601.54L935.97 601.54L929.60 601.54Z" fill="#F6F3EC" opacity="0.72"/><path d="M978.77 624L961.56 624L961.56 597.36L978.77 597.36L978.77 601.54L966.02 601.54L966.02 608.11L976.55 608.11L976.55 612.29L966.02 612.29L966.02 619.82L978.77 619.82L978.77 624Z" fill="#F6F3EC" opacity="0.72"/><path d="M1006.48 624.55L1006.48 624.55Q1002.48 624.55 999.63 622.81Q996.78 621.06 995.26 617.93Q993.73 614.81 993.73 610.68L993.73 610.68Q993.73 606.55 995.26 603.43Q996.78 600.30 999.63 598.55Q1002.48 596.80 1006.48 596.80L1006.48 596.80Q1011.08 596.80 1014.15 599.11Q1017.22 601.41 1018.46 605.32L1018.46 605.32L1013.97 606.55Q1013.19 603.95 1011.32 602.48Q1009.45 601.00 1006.48 601.00L1006.48 601.00Q1003.79 601.00 1002.01 602.21Q1000.22 603.41 999.33 605.58Q998.43 607.76 998.41 610.68L998.41 610.68Q998.41 613.60 999.31 615.78Q1000.20 617.95 1002.00 619.15Q1003.79 620.36 1006.48 620.36L1006.48 620.36Q1009.45 620.36 1011.32 618.88Q1013.19 617.40 1013.97 614.81L1013.97 614.81L1018.46 616.04Q1017.22 619.95 1014.15 622.25Q1011.08 624.55 1006.48 624.55Z" fill="#F6F3EC" opacity="0.72"/><path d="M1045.80 624.55L1045.80 624.55Q1041.80 624.55 1038.96 622.81Q1036.11 621.06 1034.58 617.93Q1033.05 614.81 1033.05 610.68L1033.05 610.68Q1033.05 606.55 1034.58 603.43Q1036.11 600.30 1038.96 598.55Q1041.80 596.80 1045.80 596.80L1045.80 596.80Q1049.80 596.80 1052.65 598.55Q1055.51 600.30 1057.04 603.43Q1058.57 606.55 1058.57 610.68L1058.57 610.68Q1058.57 614.81 1057.04 617.93Q1055.51 621.06 1052.65 622.81Q1049.80 624.55 1045.80 624.55ZM1045.80 620.36L1045.80 620.36Q1048.48 620.37 1050.27 619.17Q1052.05 617.97 1052.95 615.79Q1053.85 613.60 1053.85 610.68L1053.85 610.68Q1053.85 607.76 1052.95 605.60Q1052.05 603.45 1050.27 602.24Q1048.48 601.04 1045.80 601.00L1045.80 601.00Q1043.12 600.99 1041.34 602.19Q1039.57 603.39 1038.67 605.57Q1037.77 607.76 1037.77 610.68L1037.77 610.68Q1037.77 613.60 1038.66 615.76Q1039.55 617.91 1041.33 619.12Q1043.12 620.32 1045.80 620.36Z" fill="#F6F3EC" opacity="0.72"/><path d="M1078.78 624L1074.27 624L1074.27 597.36L1078.78 597.36L1091.14 616.14L1091.14 597.36L1095.65 597.36L1095.65 624L1091.14 624L1078.78 605.22L1078.78 624Z" fill="#F6F3EC" opacity="0.72"/><path d="M1117.35 624L1112.83 624L1112.83 597.36L1117.35 597.36L1129.70 616.14L1129.70 597.36L1134.22 597.36L1134.22 624L1129.70 624L1117.35 605.22L1117.35 624Z" fill="#F6F3EC" opacity="0.72"/><path d="M1168.60 624L1151.40 624L1151.40 597.36L1168.60 597.36L1168.60 601.54L1155.86 601.54L1155.86 608.11L1166.38 608.11L1166.38 612.29L1155.86 612.29L1155.86 619.82L1168.60 619.82L1168.60 624Z" fill="#F6F3EC" opacity="0.72"/><path d="M1196.31 624.55L1196.31 624.55Q1192.31 624.55 1189.46 622.81Q1186.62 621.06 1185.09 617.93Q1183.56 614.81 1183.56 610.68L1183.56 610.68Q1183.56 606.55 1185.09 603.43Q1186.62 600.30 1189.46 598.55Q1192.31 596.80 1196.31 596.80L1196.31 596.80Q1200.92 596.80 1203.99 599.11Q1207.06 601.41 1208.30 605.32L1208.30 605.32L1203.80 606.55Q1203.02 603.95 1201.16 602.48Q1199.29 601.00 1196.31 601.00L1196.31 601.00Q1193.63 601.00 1191.84 602.21Q1190.06 603.41 1189.16 605.58Q1188.26 607.76 1188.24 610.68L1188.24 610.68Q1188.24 613.60 1189.14 615.78Q1190.04 617.95 1191.83 619.15Q1193.63 620.36 1196.31 620.36L1196.31 620.36Q1199.29 620.36 1201.16 618.88Q1203.02 617.40 1203.80 614.81L1203.80 614.81L1208.30 616.04Q1207.06 619.95 1203.99 622.25Q1200.92 624.55 1196.31 624.55Z" fill="#F6F3EC" opacity="0.72"/><path d="M1235.23 624L1230.77 624L1230.77 601.54L1222.15 601.54L1222.15 597.36L1243.85 597.36L1243.85 601.54L1235.23 601.54L1235.23 624Z" fill="#F6F3EC" opacity="0.72"/>
      
</svg>