<?xml version="1.0" encoding="UTF-8"?>
<svg xmlns="http://www.w3.org/2000/svg" width="2400" height="1080" viewBox="0 0 2400 1080" fill="none">
  <rect width="2400" height="1080" fill="#C5CFBF"/>
  
        <g transform="translate(156 417) scale(2.5625)">
    <rect width="96" height="96" rx="26" fill="#C5CFBF"/>
    <rect class="led-aura" x="32" y="15" width="32" height="66" rx="16" fill="#F6F3EC" opacity="0.16"/>
    <rect x="31" y="14" width="34" height="68" rx="17" stroke="rgba(21,29,42,.15)" stroke-width="2.6"/>
    <rect x="43" y="28" width="10" height="40" rx="5" fill="#F6F3EC"/>
  </g>
        <path d="M462.55 545L453.34 545L453.34 472.04Q453.34 461.42 458.84 456.30Q464.34 451.18 475.35 451.18L475.35 451.18L483.93 451.18L483.93 459.37L473.56 459.37Q468.18 459.37 465.37 462.18Q462.55 465 462.55 470.12L462.55 470.12L462.55 545ZM485.34 485.22L443.48 485.22L443.48 477.80L485.34 477.80L485.34 485.22Z" fill="#151D2A" opacity="1"/><path d="M548.31 545L540.63 545L540.63 524.65L539.10 524.65L539.10 500.58Q539.10 493.03 535.13 489Q531.16 484.97 522.84 484.97L522.84 484.97Q519 484.97 515.10 485.10Q511.19 485.22 507.67 485.42Q504.15 485.61 501.46 485.86L501.46 485.86L501.46 477.42Q504.28 477.16 507.22 476.90Q510.17 476.65 513.30 476.58Q516.44 476.52 519.38 476.52L519.38 476.52Q529.75 476.52 536.09 479.08Q542.42 481.64 545.37 487.08Q548.31 492.52 548.31 501.48L548.31 501.48L548.31 545ZM517.72 546.79L517.72 546.79Q510.55 546.79 505.05 544.23Q499.54 541.67 496.54 536.81Q493.53 531.94 493.53 525.03L493.53 525.03Q493.53 518.25 496.66 513.51Q499.80 508.78 505.75 506.28Q511.70 503.78 520.15 503.78L520.15 503.78L539.99 503.78L539.99 511.08L519.51 511.08Q511.45 511.08 507.16 514.98Q502.87 518.89 502.87 525.16L502.87 525.16Q502.87 531.56 507.35 535.34Q511.83 539.11 519.51 539.11L519.51 539.11Q524.25 539.11 528.60 537.38Q532.95 535.66 535.90 531.50Q538.84 527.34 539.10 520.04L539.10 520.04L541.91 524.01Q541.40 531.56 538.33 536.62Q535.26 541.67 530.01 544.23Q524.76 546.79 517.72 546.79Z" fill="#151D2A" opacity="1"/><path d="M581.85 545L572.25 545L572.25 477.29L579.93 477.29L579.93 505.58L579.16 505.58Q579.16 490.73 585.69 483.62Q592.22 476.52 606.17 476.52L606.17 476.52L608.34 476.52L608.34 485.22L604.38 485.22Q593.37 485.22 587.61 490.92Q581.85 496.62 581.85 507.62L581.85 507.62L581.85 545Z" fill="#151D2A" opacity="1"/><path d="M672.73 545L665.05 545L665.05 524.65L663.51 524.65L663.51 500.58Q663.51 493.03 659.54 489Q655.58 484.97 647.26 484.97L647.26 484.97Q643.42 484.97 639.51 485.10Q635.61 485.22 632.09 485.42Q628.57 485.61 625.88 485.86L625.88 485.86L625.88 477.42Q628.70 477.16 631.64 476.90Q634.58 476.65 637.72 476.58Q640.86 476.52 643.80 476.52L643.80 476.52Q654.17 476.52 660.50 479.08Q666.84 481.64 669.78 487.08Q672.73 492.52 672.73 501.48L672.73 501.48L672.73 545ZM642.14 546.79L642.14 546.79Q634.97 546.79 629.46 544.23Q623.96 541.67 620.95 536.81Q617.94 531.94 617.94 525.03L617.94 525.03Q617.94 518.25 621.08 513.51Q624.22 508.78 630.17 506.28Q636.12 503.78 644.57 503.78L644.57 503.78L664.41 503.78L664.41 511.08L643.93 511.08Q635.86 511.08 631.58 514.98Q627.29 518.89 627.29 525.16L627.29 525.16Q627.29 531.56 631.77 535.34Q636.25 539.11 643.93 539.11L643.93 539.11Q648.66 539.11 653.02 537.38Q657.37 535.66 660.31 531.50Q663.26 527.34 663.51 520.04L663.51 520.04L666.33 524.01Q665.82 531.56 662.74 536.62Q659.67 541.67 654.42 544.23Q649.18 546.79 642.14 546.79Z" fill="#151D2A" opacity="1"/><path d="M724.44 547.18L724.44 547.18Q717.02 547.18 710.94 544.42Q704.86 541.67 700.44 536.74Q696.02 531.82 693.66 525.48Q691.29 519.14 691.29 511.98L691.29 511.98L691.29 510.18Q691.29 503.27 693.59 496.94Q695.90 490.60 700.18 485.67Q704.47 480.74 710.55 477.86Q716.63 474.98 724.18 474.98L724.18 474.98Q732.76 474.98 739.29 478.70Q745.82 482.41 749.78 489.38Q753.75 496.36 754.01 506.47L754.01 506.47L749.78 498.54L749.78 451.56L759.38 451.56L759.38 545L751.70 545L751.70 514.92L754.78 514.92Q754.52 525.54 750.36 532.78Q746.20 540.01 739.48 543.59Q732.76 547.18 724.44 547.18ZM725.72 538.73L725.72 538.73Q732.63 538.73 738.20 535.66Q743.77 532.58 746.97 526.89Q750.17 521.19 750.17 513.77L750.17 513.77L750.17 507.62Q750.17 500.46 746.97 495.02Q743.77 489.58 738.20 486.50Q732.63 483.43 725.59 483.43L725.59 483.43Q718.04 483.43 712.47 487.08Q706.90 490.73 703.90 497Q700.89 503.27 700.89 511.08L700.89 511.08Q700.89 519.14 703.96 525.42Q707.03 531.69 712.66 535.21Q718.30 538.73 725.72 538.73Z" fill="#151D2A" opacity="1"/><path d="M833.11 545L825.43 545L825.43 524.65L823.90 524.65L823.90 500.58Q823.90 493.03 819.93 489Q815.96 484.97 807.64 484.97L807.64 484.97Q803.80 484.97 799.90 485.10Q795.99 485.22 792.47 485.42Q788.95 485.61 786.26 485.86L786.26 485.86L786.26 477.42Q789.08 477.16 792.02 476.90Q794.97 476.65 798.10 476.58Q801.24 476.52 804.18 476.52L804.18 476.52Q814.55 476.52 820.89 479.08Q827.22 481.64 830.17 487.08Q833.11 492.52 833.11 501.48L833.11 501.48L833.11 545ZM802.52 546.79L802.52 546.79Q795.35 546.79 789.85 544.23Q784.34 541.67 781.34 536.81Q778.33 531.94 778.33 525.03L778.33 525.03Q778.33 518.25 781.46 513.51Q784.60 508.78 790.55 506.28Q796.50 503.78 804.95 503.78L804.95 503.78L824.79 503.78L824.79 511.08L804.31 511.08Q796.25 511.08 791.96 514.98Q787.67 518.89 787.67 525.16L787.67 525.16Q787.67 531.56 792.15 535.34Q796.63 539.11 804.31 539.11L804.31 539.11Q809.05 539.11 813.40 537.38Q817.75 535.66 820.70 531.50Q823.64 527.34 823.90 520.04L823.90 520.04L826.71 524.01Q826.20 531.56 823.13 536.62Q820.06 541.67 814.81 544.23Q809.56 546.79 802.52 546.79Z" fill="#151D2A" opacity="1"/><path d="M859.22 571.37L851.03 571.37L851.03 562.79L859.74 562.79Q864.22 562.79 867.42 561.70Q870.62 560.62 872.79 557.93Q874.97 555.24 876.50 550.50L876.50 550.50L899.29 477.29L908.63 477.29L884.82 553.19Q882.78 559.72 879.19 563.75Q875.61 567.78 870.62 569.58Q865.62 571.37 859.22 571.37L859.22 571.37ZM885.21 543.34L873.05 543.34L873.05 535.27L885.21 535.27L885.21 543.34ZM880.86 543.34L871.90 543.34L847.32 477.29L857.18 477.29L880.86 543.34Z" fill="#151D2A" opacity="1"/><path d="M450.08 609L441.59 609L441.59 582.36L450.08 582.36Q450.41 582.36 451.40 582.38Q452.39 582.40 453.32 582.51L453.32 582.51Q456.48 582.91 458.67 584.76Q460.87 586.60 462.00 589.45Q463.12 592.29 463.12 595.68L463.12 595.68Q463.12 599.07 462.00 601.91Q460.87 604.76 458.67 606.60Q456.48 608.45 453.32 608.85L453.32 608.85Q452.41 608.96 451.41 608.98Q450.41 609 450.08 609L450.08 609ZM446.12 586.56L446.12 604.80L450.08 604.80Q450.64 604.80 451.50 604.76Q452.36 604.73 453.02 604.60L453.02 604.60Q454.91 604.25 456.09 602.91Q457.28 601.58 457.84 599.68Q458.41 597.77 458.41 595.68L458.41 595.68Q458.41 593.52 457.83 591.61Q457.26 589.70 456.07 588.41Q454.87 587.11 453.02 586.76L453.02 586.76Q452.36 586.62 451.50 586.59Q450.64 586.56 450.08 586.56L450.08 586.56L446.12 586.56Z" fill="#151D2A" opacity="0.6"/><path d="M484.34 609L479.88 609L479.88 582.36L484.34 582.36L484.34 609Z" fill="#151D2A" opacity="0.6"/><path d="M511.75 609.55L511.75 609.55Q508.82 609.55 506.48 608.54Q504.14 607.52 502.64 605.62Q501.13 603.73 500.72 601.12L500.72 601.12L505.35 600.42Q505.94 602.78 507.78 604.08Q509.62 605.37 512.02 605.37L512.02 605.37Q513.45 605.37 514.71 604.93Q515.97 604.49 516.75 603.63Q517.54 602.78 517.54 601.54L517.54 601.54Q517.54 600.99 517.35 600.52Q517.17 600.05 516.81 599.68Q516.45 599.31 515.88 599.00Q515.32 598.70 514.58 598.47L514.58 598.47L507.70 596.44Q506.81 596.18 505.78 595.74Q504.75 595.31 503.84 594.54Q502.92 593.77 502.34 592.58Q501.76 591.39 501.76 589.63L501.76 589.63Q501.76 587.06 503.06 585.31Q504.37 583.56 506.58 582.69Q508.79 581.82 511.49 581.84L511.49 581.84Q514.23 581.86 516.37 582.78Q518.52 583.69 519.96 585.43Q521.40 587.17 522.00 589.63L522.00 589.63L517.20 590.46Q516.91 589.06 516.07 588.07Q515.23 587.08 514.01 586.56Q512.80 586.04 511.43 586.00L511.43 586.00Q510.10 585.99 508.96 586.40Q507.83 586.82 507.13 587.60Q506.44 588.37 506.44 589.41L506.44 589.41Q506.44 590.39 507.03 591.01Q507.62 591.63 508.50 591.99Q509.38 592.35 510.29 592.59L510.29 592.59L515.06 593.92Q516.04 594.18 517.26 594.63Q518.48 595.07 519.61 595.87Q520.74 596.66 521.47 597.96Q522.20 599.25 522.20 601.25L522.20 601.25Q522.20 603.32 521.34 604.88Q520.48 606.45 519.02 607.48Q517.56 608.52 515.68 609.04Q513.80 609.55 511.75 609.55Z" fill="#151D2A" opacity="0.6"/><path d="M549.48 609.55L549.48 609.55Q545.49 609.55 542.64 607.81Q539.79 606.06 538.26 602.93Q536.73 599.81 536.73 595.68L536.73 595.68Q536.73 591.55 538.26 588.43Q539.79 585.30 542.64 583.55Q545.49 581.80 549.48 581.80L549.48 581.80Q554.09 581.80 557.16 584.11Q560.23 586.41 561.47 590.32L561.47 590.32L556.97 591.55Q556.20 588.95 554.33 587.48Q552.46 586.00 549.48 586.00L549.48 586.00Q546.80 586.00 545.01 587.21Q543.23 588.41 542.33 590.58Q541.43 592.76 541.41 595.68L541.41 595.68Q541.41 598.60 542.31 600.78Q543.21 602.95 545.00 604.15Q546.80 605.36 549.48 605.36L549.48 605.36Q552.46 605.36 554.33 603.88Q556.20 602.40 556.97 599.81L556.97 599.81L561.47 601.04Q560.23 604.95 557.16 607.25Q554.09 609.55 549.48 609.55Z" fill="#151D2A" opacity="0.6"/><path d="M588.81 609.55L588.81 609.55Q584.81 609.55 581.96 607.81Q579.11 606.06 577.59 602.93Q576.06 599.81 576.06 595.68L576.06 595.68Q576.06 591.55 577.59 588.43Q579.11 585.30 581.96 583.55Q584.81 581.80 588.81 581.80L588.81 581.80Q592.80 581.80 595.66 583.55Q598.52 585.30 600.04 588.43Q601.57 591.55 601.57 595.68L601.57 595.68Q601.57 599.81 600.04 602.93Q598.52 606.06 595.66 607.81Q592.80 609.55 588.81 609.55ZM588.81 605.36L588.81 605.36Q591.49 605.37 593.27 604.17Q595.06 602.97 595.96 600.79Q596.85 598.60 596.85 595.68L596.85 595.68Q596.85 592.76 595.96 590.60Q595.06 588.45 593.27 587.24Q591.49 586.04 588.81 586.00L588.81 586.00Q586.12 585.99 584.35 587.19Q582.57 588.39 581.67 590.57Q580.78 592.76 580.78 595.68L580.78 595.68Q580.78 598.60 581.66 600.76Q582.55 602.91 584.34 604.12Q586.12 605.32 588.81 605.36Z" fill="#151D2A" opacity="0.6"/><path d="M621.78 609L617.27 609L617.27 582.36L621.78 582.36L634.14 601.14L634.14 582.36L638.66 582.36L638.66 609L634.14 609L621.78 590.22L621.78 609Z" fill="#151D2A" opacity="0.6"/><path d="M660.35 609L655.84 609L655.84 582.36L660.35 582.36L672.71 601.14L672.71 582.36L677.22 582.36L677.22 609L672.71 609L660.35 590.22L660.35 609Z" fill="#151D2A" opacity="0.6"/><path d="M711.61 609L694.40 609L694.40 582.36L711.61 582.36L711.61 586.54L698.86 586.54L698.86 593.11L709.39 593.11L709.39 597.29L698.86 597.29L698.86 604.82L711.61 604.82L711.61 609Z" fill="#151D2A" opacity="0.6"/><path d="M739.31 609.55L739.31 609.55Q735.32 609.55 732.47 607.81Q729.62 606.06 728.09 602.93Q726.57 599.81 726.57 595.68L726.57 595.68Q726.57 591.55 728.09 588.43Q729.62 585.30 732.47 583.55Q735.32 581.80 739.31 581.80L739.31 581.80Q743.92 581.80 746.99 584.11Q750.06 586.41 751.30 590.32L751.30 590.32L746.81 591.55Q746.03 588.95 744.16 587.48Q742.29 586.00 739.31 586.00L739.31 586.00Q736.63 586.00 734.85 587.21Q733.06 588.41 732.16 590.58Q731.27 592.76 731.25 595.68L731.25 595.68Q731.25 598.60 732.15 600.78Q733.04 602.95 734.84 604.15Q736.63 605.36 739.31 605.36L739.31 605.36Q742.29 605.36 744.16 603.88Q746.03 602.40 746.81 599.81L746.81 599.81L751.30 601.04Q750.06 604.95 746.99 607.25Q743.92 609.55 739.31 609.55Z" fill="#151D2A" opacity="0.6"/><path d="M778.23 609L773.77 609L773.77 586.54L765.15 586.54L765.15 582.36L786.85 582.36L786.85 586.54L778.23 586.54L778.23 609Z" fill="#151D2A" opacity="0.6"/><path d="M837.25 609L832.79 609L832.79 586.54L824.17 586.54L824.17 582.36L845.87 582.36L845.87 586.54L837.25 586.54L837.25 609Z" fill="#151D2A" opacity="0.6"/><path d="M872.10 609.55L872.10 609.55Q868.10 609.55 865.25 607.81Q862.41 606.06 860.88 602.93Q859.35 599.81 859.35 595.68L859.35 595.68Q859.35 591.55 860.88 588.43Q862.41 585.30 865.25 583.55Q868.10 581.80 872.10 581.80L872.10 581.80Q876.10 581.80 878.95 583.55Q881.81 585.30 883.34 588.43Q884.86 591.55 884.86 595.68L884.86 595.68Q884.86 599.81 883.34 602.93Q881.81 606.06 878.95 607.81Q876.10 609.55 872.10 609.55ZM872.10 605.36L872.10 605.36Q874.78 605.37 876.57 604.17Q878.35 602.97 879.25 600.79Q880.15 598.60 880.15 595.68L880.15 595.68Q880.15 592.76 879.25 590.60Q878.35 588.45 876.57 587.24Q874.78 586.04 872.10 586.00L872.10 586.00Q869.42 585.99 867.64 587.19Q865.87 588.39 864.97 590.57Q864.07 592.76 864.07 595.68L864.07 595.68Q864.07 598.60 864.96 600.76Q865.85 602.91 867.63 604.12Q869.42 605.32 872.10 605.36Z" fill="#151D2A" opacity="0.6"/><path d="M929.60 609L925.14 609L925.14 582.36L936.15 582.36Q936.54 582.36 937.15 582.39Q937.76 582.42 938.28 582.51L938.28 582.51Q940.59 582.86 942.10 584.04Q943.61 585.23 944.34 587.03Q945.07 588.84 945.07 591.04L945.07 591.04Q945.07 594.29 943.42 596.63Q941.78 598.97 938.37 599.53L938.37 599.53L936.47 599.69L929.60 599.69L929.60 609ZM945.49 609L940.44 609L935.19 598.16L939.72 597.16L945.49 609ZM929.60 586.54L929.60 595.53L935.97 595.53Q936.34 595.53 936.80 595.50Q937.26 595.46 937.65 595.35L937.65 595.35Q938.76 595.07 939.40 594.37Q940.04 593.66 940.31 592.78Q940.57 591.89 940.57 591.04L940.57 591.04Q940.57 590.19 940.31 589.29Q940.04 588.39 939.40 587.69Q938.76 586.99 937.65 586.71L937.65 586.71Q937.26 586.60 936.80 586.57Q936.34 586.54 935.97 586.54L935.97 586.54L929.60 586.54Z" fill="#151D2A" opacity="0.6"/><path d="M978.77 609L961.56 609L961.56 582.36L978.77 582.36L978.77 586.54L966.02 586.54L966.02 593.11L976.55 593.11L976.55 597.29L966.02 597.29L966.02 604.82L978.77 604.82L978.77 609Z" fill="#151D2A" opacity="0.6"/><path d="M1006.48 609.55L1006.48 609.55Q1002.48 609.55 999.63 607.81Q996.78 606.06 995.26 602.93Q993.73 599.81 993.73 595.68L993.73 595.68Q993.73 591.55 995.26 588.43Q996.78 585.30 999.63 583.55Q1002.48 581.80 1006.48 581.80L1006.48 581.80Q1011.08 581.80 1014.15 584.11Q1017.22 586.41 1018.46 590.32L1018.46 590.32L1013.97 591.55Q1013.19 588.95 1011.32 587.48Q1009.45 586.00 1006.48 586.00L1006.48 586.00Q1003.79 586.00 1002.01 587.21Q1000.22 588.41 999.33 590.58Q998.43 592.76 998.41 595.68L998.41 595.68Q998.41 598.60 999.31 600.78Q1000.20 602.95 1002.00 604.15Q1003.79 605.36 1006.48 605.36L1006.48 605.36Q1009.45 605.36 1011.32 603.88Q1013.19 602.40 1013.97 599.81L1013.97 599.81L1018.46 601.04Q1017.22 604.95 1014.15 607.25Q1011.08 609.55 1006.48 609.55Z" fill="#151D2A" opacity="0.6"/><path d="M1045.80 609.55L1045.80 609.55Q1041.80 609.55 1038.96 607.81Q1036.11 606.06 1034.58 602.93Q1033.05 599.81 1033.05 595.68L1033.05 595.68Q1033.05 591.55 1034.58 588.43Q1036.11 585.30 1038.96 583.55Q1041.80 581.80 1045.80 581.80L1045.80 581.80Q1049.80 581.80 1052.65 583.55Q1055.51 585.30 1057.04 588.43Q1058.57 591.55 1058.57 595.68L1058.57 595.68Q1058.57 599.81 1057.04 602.93Q1055.51 606.06 1052.65 607.81Q1049.80 609.55 1045.80 609.55ZM1045.80 605.36L1045.80 605.36Q1048.48 605.37 1050.27 604.17Q1052.05 602.97 1052.95 600.79Q1053.85 598.60 1053.85 595.68L1053.85 595.68Q1053.85 592.76 1052.95 590.60Q1052.05 588.45 1050.27 587.24Q1048.48 586.04 1045.80 586.00L1045.80 586.00Q1043.12 585.99 1041.34 587.19Q1039.57 588.39 1038.67 590.57Q1037.77 592.76 1037.77 595.68L1037.77 595.68Q1037.77 598.60 1038.66 600.76Q1039.55 602.91 1041.33 604.12Q1043.12 605.32 1045.80 605.36Z" fill="#151D2A" opacity="0.6"/><path d="M1078.78 609L1074.27 609L1074.27 582.36L1078.78 582.36L1091.14 601.14L1091.14 582.36L1095.65 582.36L1095.65 609L1091.14 609L1078.78 590.22L1078.78 609Z" fill="#151D2A" opacity="0.6"/><path d="M1117.35 609L1112.83 609L1112.83 582.36L1117.35 582.36L1129.70 601.14L1129.70 582.36L1134.22 582.36L1134.22 609L1129.70 609L1117.35 590.22L1117.35 609Z" fill="#151D2A" opacity="0.6"/><path d="M1168.60 609L1151.40 609L1151.40 582.36L1168.60 582.36L1168.60 586.54L1155.86 586.54L1155.86 593.11L1166.38 593.11L1166.38 597.29L1155.86 597.29L1155.86 604.82L1168.60 604.82L1168.60 609Z" fill="#151D2A" opacity="0.6"/><path d="M1196.31 609.55L1196.31 609.55Q1192.31 609.55 1189.46 607.81Q1186.62 606.06 1185.09 602.93Q1183.56 599.81 1183.56 595.68L1183.56 595.68Q1183.56 591.55 1185.09 588.43Q1186.62 585.30 1189.46 583.55Q1192.31 581.80 1196.31 581.80L1196.31 581.80Q1200.92 581.80 1203.99 584.11Q1207.06 586.41 1208.30 590.32L1208.30 590.32L1203.80 591.55Q1203.02 588.95 1201.16 587.48Q1199.29 586.00 1196.31 586.00L1196.31 586.00Q1193.63 586.00 1191.84 587.21Q1190.06 588.41 1189.16 590.58Q1188.26 592.76 1188.24 595.68L1188.24 595.68Q1188.24 598.60 1189.14 600.78Q1190.04 602.95 1191.83 604.15Q1193.63 605.36 1196.31 605.36L1196.31 605.36Q1199.29 605.36 1201.16 603.88Q1203.02 602.40 1203.80 599.81L1203.80 599.81L1208.30 601.04Q1207.06 604.95 1203.99 607.25Q1200.92 609.55 1196.31 609.55Z" fill="#151D2A" opacity="0.6"/><path d="M1235.23 609L1230.77 609L1230.77 586.54L1222.15 586.54L1222.15 582.36L1243.85 582.36L1243.85 586.54L1235.23 586.54L1235.23 609Z" fill="#151D2A" opacity="0.6"/>
      
</svg>