<?xml version="1.0" encoding="UTF-8"?>
<svg xmlns="http://www.w3.org/2000/svg" width="2400" height="1080" viewBox="0 0 2400 1080" fill="none">
  <rect width="2400" height="1080" fill="#C5CFBF"/>
  
        <g transform="translate(156 417) scale(2.5625)">
    <rect width="96" height="96" rx="26" fill="#C5CFBF"/>
    <rect class="led-aura" x="32" y="15" width="32" height="66" rx="16" fill="#F6F3EC" opacity="0.16"/>
    <rect x="31" y="14" width="34" height="68" rx="17" stroke="rgba(21,29,42,.15)" stroke-width="2.6"/>
    <rect x="43" y="28" width="10" height="40" rx="5" fill="#F6F3EC"/>
  </g>
        <path d="M462.55 545L453.34 545L453.34 472.04Q453.34 461.42 458.84 456.30Q464.34 451.18 475.35 451.18L475.35 451.18L483.93 451.18L483.93 459.37L473.56 459.37Q468.18 459.37 465.37 462.18Q462.55 465 462.55 470.12L462.55 470.12L462.55 545ZM485.34 485.22L443.48 485.22L443.48 477.80L485.34 477.80L485.34 485.22Z" fill="#151D2A" opacity="1"/><path d="M548.31 545L540.63 545L540.63 524.65L539.10 524.65L539.10 500.58Q539.10 493.03 535.13 489Q531.16 484.97 522.84 484.97L522.84 484.97Q519 484.97 515.10 485.10Q511.19 485.22 507.67 485.42Q504.15 485.61 501.46 485.86L501.46 485.86L501.46 477.42Q504.28 477.16 507.22 476.90Q510.17 476.65 513.30 476.58Q516.44 476.52 519.38 476.52L519.38 476.52Q529.75 476.52 536.09 479.08Q542.42 481.64 545.37 487.08Q548.31 492.52 548.31 501.48L548.31 501.48L548.31 545ZM517.72 546.79L517.72 546.79Q510.55 546.79 505.05 544.23Q499.54 541.67 496.54 536.81Q493.53 531.94 493.53 525.03L493.53 525.03Q493.53 518.25 496.66 513.51Q499.80 508.78 505.75 506.28Q511.70 503.78 520.15 503.78L520.15 503.78L539.99 503.78L539.99 511.08L519.51 511.08Q511.45 511.08 507.16 514.98Q502.87 518.89 502.87 525.16L502.87 525.16Q502.87 531.56 507.35 535.34Q511.83 539.11 519.51 539.11L519.51 539.11Q524.25 539.11 528.60 537.38Q532.95 535.66 535.90 531.50Q538.84 527.34 539.10 520.04L539.10 520.04L541.91 524.01Q541.40 531.56 538.33 536.62Q535.26 541.67 530.01 544.23Q524.76 546.79 517.72 546.79Z" fill="#151D2A" opacity="1"/><path d="M581.85 545L572.25 545L572.25 477.29L579.93 477.29L579.93 505.58L579.16 505.58Q579.16 490.73 585.69 483.62Q592.22 476.52 606.17 476.52L606.17 476.52L608.34 476.52L608.34 485.22L604.38 485.22Q593.37 485.22 587.61 490.92Q581.85 496.62 581.85 507.62L581.85 507.62L581.85 545Z" fill="#151D2A" opacity="1"/><path d="M672.73 545L665.05 545L665.05 524.65L663.51 524.65L663.51 500.58Q663.51 493.03 659.54 489Q655.58 484.97 647.26 484.97L647.26 484.97Q643.42 484.97 639.51 485.10Q635.61 485.22 632.09 485.42Q628.57 485.61 625.88 485.86L625.88 485.86L625.88 477.42Q628.70 477.16 631.64 476.90Q634.58 476.65 637.72 476.58Q640.86 476.52 643.80 476.52L643.80 476.52Q654.17 476.52 660.50 479.08Q666.84 481.64 669.78 487.08Q672.73 492.52 672.73 501.48L672.73 501.48L672.73 545ZM642.14 546.79L642.14 546.79Q634.97 546.79 629.46 544.23Q623.96 541.67 620.95 536.81Q617.94 531.94 617.94 525.03L617.94 525.03Q617.94 518.25 621.08 513.51Q624.22 508.78 630.17 506.28Q636.12 503.78 644.57 503.78L644.57 503.78L664.41 503.78L664.41 511.08L643.93 511.08Q635.86 511.08 631.58 514.98Q627.29 518.89 627.29 525.16L627.29 525.16Q627.29 531.56 631.77 535.34Q636.25 539.11 643.93 539.11L643.93 539.11Q648.66 539.11 653.02 537.38Q657.37 535.66 660.31 531.50Q663.26 527.34 663.51 520.04L663.51 520.04L666.33 524.01Q665.82 531.56 662.74 536.62Q659.67 541.67 654.42 544.23Q649.18 546.79 642.14 546.79Z" fill="#151D2A" opacity="1"/><path d="M724.44 547.18L724.44 547.18Q717.02 547.18 710.94 544.42Q704.86 541.67 700.44 536.74Q696.02 531.82 693.66 525.48Q691.29 519.14 691.29 511.98L691.29 511.98L691.29 510.18Q691.29 503.27 693.59 496.94Q695.90 490.60 700.18 485.67Q704.47 480.74 710.55 477.86Q716.63 474.98 724.18 474.98L724.18 474.98Q732.76 474.98 739.29 478.70Q745.82 482.41 749.78 489.38Q753.75 496.36 754.01 506.47L754.01 506.47L749.78 498.54L749.78 451.56L759.38 451.56L759.38 545L751.70 545L751.70 514.92L754.78 514.92Q754.52 525.54 750.36 532.78Q746.20 540.01 739.48 543.59Q732.76 547.18 724.44 547.18ZM725.72 538.73L725.72 538.73Q732.63 538.73 738.20 535.66Q743.77 532.58 746.97 526.89Q750.17 521.19 750.17 513.77L750.17 513.77L750.17 507.62Q750.17 500.46 746.97 495.02Q743.77 489.58 738.20 486.50Q732.63 483.43 725.59 483.43L725.59 483.43Q718.04 483.43 712.47 487.08Q706.90 490.73 703.90 497Q700.89 503.27 700.89 511.08L700.89 511.08Q700.89 519.14 703.96 525.42Q707.03 531.69 712.66 535.21Q718.30 538.73 725.72 538.73Z" fill="#151D2A" opacity="1"/><path d="M833.11 545L825.43 545L825.43 524.65L823.90 524.65L823.90 500.58Q823.90 493.03 819.93 489Q815.96 484.97 807.64 484.97L807.64 484.97Q803.80 484.97 799.90 485.10Q795.99 485.22 792.47 485.42Q788.95 485.61 786.26 485.86L786.26 485.86L786.26 477.42Q789.08 477.16 792.02 476.90Q794.97 476.65 798.10 476.58Q801.24 476.52 804.18 476.52L804.18 476.52Q814.55 476.52 820.89 479.08Q827.22 481.64 830.17 487.08Q833.11 492.52 833.11 501.48L833.11 501.48L833.11 545ZM802.52 546.79L802.52 546.79Q795.35 546.79 789.85 544.23Q784.34 541.67 781.34 536.81Q778.33 531.94 778.33 525.03L778.33 525.03Q778.33 518.25 781.46 513.51Q784.60 508.78 790.55 506.28Q796.50 503.78 804.95 503.78L804.95 503.78L824.79 503.78L824.79 511.08L804.31 511.08Q796.25 511.08 791.96 514.98Q787.67 518.89 787.67 525.16L787.67 525.16Q787.67 531.56 792.15 535.34Q796.63 539.11 804.31 539.11L804.31 539.11Q809.05 539.11 813.40 537.38Q817.75 535.66 820.70 531.50Q823.64 527.34 823.90 520.04L823.90 520.04L826.71 524.01Q826.20 531.56 823.13 536.62Q820.06 541.67 814.81 544.23Q809.56 546.79 802.52 546.79Z" fill="#151D2A" opacity="1"/><path d="M859.22 571.37L851.03 571.37L851.03 562.79L859.74 562.79Q864.22 562.79 867.42 561.70Q870.62 560.62 872.79 557.93Q874.97 555.24 876.50 550.50L876.50 550.50L899.29 477.29L908.63 477.29L884.82 553.19Q882.78 559.72 879.19 563.75Q875.61 567.78 870.62 569.58Q865.62 571.37 859.22 571.37L859.22 571.37ZM885.21 543.34L873.05 543.34L873.05 535.27L885.21 535.27L885.21 543.34ZM880.86 543.34L871.90 543.34L847.32 477.29L857.18 477.29L880.86 543.34Z" fill="#151D2A" opacity="1"/><path d="M450.08 617L441.59 617L441.59 590.36L450.08 590.36Q450.41 590.36 451.40 590.38Q452.39 590.40 453.32 590.51L453.32 590.51Q456.48 590.91 458.67 592.76Q460.87 594.60 462.00 597.45Q463.12 600.29 463.12 603.68L463.12 603.68Q463.12 607.07 462.00 609.91Q460.87 612.76 458.67 614.60Q456.48 616.45 453.32 616.85L453.32 616.85Q452.41 616.96 451.41 616.98Q450.41 617 450.08 617L450.08 617ZM446.12 594.56L446.12 612.80L450.08 612.80Q450.64 612.80 451.50 612.76Q452.36 612.73 453.02 612.60L453.02 612.60Q454.91 612.25 456.09 610.91Q457.28 609.58 457.84 607.68Q458.41 605.77 458.41 603.68L458.41 603.68Q458.41 601.52 457.83 599.61Q457.26 597.70 456.07 596.41Q454.87 595.11 453.02 594.76L453.02 594.76Q452.36 594.62 451.50 594.59Q450.64 594.56 450.08 594.56L450.08 594.56L446.12 594.56Z" fill="#151D2A" opacity="0.6"/><path d="M484.34 617L479.88 617L479.88 590.36L484.34 590.36L484.34 617Z" fill="#151D2A" opacity="0.6"/><path d="M511.75 617.55L511.75 617.55Q508.82 617.55 506.48 616.54Q504.14 615.52 502.64 613.62Q501.13 611.73 500.72 609.12L500.72 609.12L505.35 608.42Q505.94 610.78 507.78 612.08Q509.62 613.37 512.02 613.37L512.02 613.37Q513.45 613.37 514.71 612.93Q515.97 612.49 516.75 611.63Q517.54 610.78 517.54 609.54L517.54 609.54Q517.54 608.99 517.35 608.52Q517.17 608.05 516.81 607.68Q516.45 607.31 515.88 607.00Q515.32 606.70 514.58 606.47L514.58 606.47L507.70 604.44Q506.81 604.18 505.78 603.74Q504.75 603.31 503.84 602.54Q502.92 601.77 502.34 600.58Q501.76 599.39 501.76 597.63L501.76 597.63Q501.76 595.06 503.06 593.31Q504.37 591.56 506.58 590.69Q508.79 589.82 511.49 589.84L511.49 589.84Q514.23 589.86 516.37 590.78Q518.52 591.69 519.96 593.43Q521.40 595.17 522.00 597.63L522.00 597.63L517.20 598.46Q516.91 597.06 516.07 596.07Q515.23 595.08 514.01 594.56Q512.80 594.04 511.43 594.00L511.43 594.00Q510.10 593.99 508.96 594.40Q507.83 594.82 507.13 595.60Q506.44 596.37 506.44 597.41L506.44 597.41Q506.44 598.39 507.03 599.01Q507.62 599.63 508.50 599.99Q509.38 600.35 510.29 600.59L510.29 600.59L515.06 601.92Q516.04 602.18 517.26 602.63Q518.48 603.07 519.61 603.87Q520.74 604.66 521.47 605.96Q522.20 607.25 522.20 609.25L522.20 609.25Q522.20 611.32 521.34 612.88Q520.48 614.45 519.02 615.48Q517.56 616.52 515.68 617.04Q513.80 617.55 511.75 617.55Z" fill="#151D2A" opacity="0.6"/><path d="M549.48 617.55L549.48 617.55Q545.49 617.55 542.64 615.81Q539.79 614.06 538.26 610.93Q536.73 607.81 536.73 603.68L536.73 603.68Q536.73 599.55 538.26 596.43Q539.79 593.30 542.64 591.55Q545.49 589.80 549.48 589.80L549.48 589.80Q554.09 589.80 557.16 592.11Q560.23 594.41 561.47 598.32L561.47 598.32L556.97 599.55Q556.20 596.95 554.33 595.48Q552.46 594.00 549.48 594.00L549.48 594.00Q546.80 594.00 545.01 595.21Q543.23 596.41 542.33 598.58Q541.43 600.76 541.41 603.68L541.41 603.68Q541.41 606.60 542.31 608.78Q543.21 610.95 545.00 612.15Q546.80 613.36 549.48 613.36L549.48 613.36Q552.46 613.36 554.33 611.88Q556.20 610.40 556.97 607.81L556.97 607.81L561.47 609.04Q560.23 612.95 557.16 615.25Q554.09 617.55 549.48 617.55Z" fill="#151D2A" opacity="0.6"/><path d="M588.81 617.55L588.81 617.55Q584.81 617.55 581.96 615.81Q579.11 614.06 577.59 610.93Q576.06 607.81 576.06 603.68L576.06 603.68Q576.06 599.55 577.59 596.43Q579.11 593.30 581.96 591.55Q584.81 589.80 588.81 589.80L588.81 589.80Q592.80 589.80 595.66 591.55Q598.52 593.30 600.04 596.43Q601.57 599.55 601.57 603.68L601.57 603.68Q601.57 607.81 600.04 610.93Q598.52 614.06 595.66 615.81Q592.80 617.55 588.81 617.55ZM588.81 613.36L588.81 613.36Q591.49 613.37 593.27 612.17Q595.06 610.97 595.96 608.79Q596.85 606.60 596.85 603.68L596.85 603.68Q596.85 600.76 595.96 598.60Q595.06 596.45 593.27 595.24Q591.49 594.04 588.81 594.00L588.81 594.00Q586.12 593.99 584.35 595.19Q582.57 596.39 581.67 598.57Q580.78 600.76 580.78 603.68L580.78 603.68Q580.78 606.60 581.66 608.76Q582.55 610.91 584.34 612.12Q586.12 613.32 588.81 613.36Z" fill="#151D2A" opacity="0.6"/><path d="M621.78 617L617.27 617L617.27 590.36L621.78 590.36L634.14 609.14L634.14 590.36L638.66 590.36L638.66 617L634.14 617L621.78 598.22L621.78 617Z" fill="#151D2A" opacity="0.6"/><path d="M660.35 617L655.84 617L655.84 590.36L660.35 590.36L672.71 609.14L672.71 590.36L677.22 590.36L677.22 617L672.71 617L660.35 598.22L660.35 617Z" fill="#151D2A" opacity="0.6"/><path d="M711.61 617L694.40 617L694.40 590.36L711.61 590.36L711.61 594.54L698.86 594.54L698.86 601.11L709.39 601.11L709.39 605.29L698.86 605.29L698.86 612.82L711.61 612.82L711.61 617Z" fill="#151D2A" opacity="0.6"/><path d="M739.31 617.55L739.31 617.55Q735.32 617.55 732.47 615.81Q729.62 614.06 728.09 610.93Q726.57 607.81 726.57 603.68L726.57 603.68Q726.57 599.55 728.09 596.43Q729.62 593.30 732.47 591.55Q735.32 589.80 739.31 589.80L739.31 589.80Q743.92 589.80 746.99 592.11Q750.06 594.41 751.30 598.32L751.30 598.32L746.81 599.55Q746.03 596.95 744.16 595.48Q742.29 594.00 739.31 594.00L739.31 594.00Q736.63 594.00 734.85 595.21Q733.06 596.41 732.16 598.58Q731.27 600.76 731.25 603.68L731.25 603.68Q731.25 606.60 732.15 608.78Q733.04 610.95 734.84 612.15Q736.63 613.36 739.31 613.36L739.31 613.36Q742.29 613.36 744.16 611.88Q746.03 610.40 746.81 607.81L746.81 607.81L751.30 609.04Q750.06 612.95 746.99 615.25Q743.92 617.55 739.31 617.55Z" fill="#151D2A" opacity="0.6"/><path d="M778.23 617L773.77 617L773.77 594.54L765.15 594.54L765.15 590.36L786.85 590.36L786.85 594.54L778.23 594.54L778.23 617Z" fill="#151D2A" opacity="0.6"/><path d="M837.25 617L832.79 617L832.79 594.54L824.17 594.54L824.17 590.36L845.87 590.36L845.87 594.54L837.25 594.54L837.25 617Z" fill="#151D2A" opacity="0.6"/><path d="M872.10 617.55L872.10 617.55Q868.10 617.55 865.25 615.81Q862.41 614.06 860.88 610.93Q859.35 607.81 859.35 603.68L859.35 603.68Q859.35 599.55 860.88 596.43Q862.41 593.30 865.25 591.55Q868.10 589.80 872.10 589.80L872.10 589.80Q876.10 589.80 878.95 591.55Q881.81 593.30 883.34 596.43Q884.86 599.55 884.86 603.68L884.86 603.68Q884.86 607.81 883.34 610.93Q881.81 614.06 878.95 615.81Q876.10 617.55 872.10 617.55ZM872.10 613.36L872.10 613.36Q874.78 613.37 876.57 612.17Q878.35 610.97 879.25 608.79Q880.15 606.60 880.15 603.68L880.15 603.68Q880.15 600.76 879.25 598.60Q878.35 596.45 876.57 595.24Q874.78 594.04 872.10 594.00L872.10 594.00Q869.42 593.99 867.64 595.19Q865.87 596.39 864.97 598.57Q864.07 600.76 864.07 603.68L864.07 603.68Q864.07 606.60 864.96 608.76Q865.85 610.91 867.63 612.12Q869.42 613.32 872.10 613.36Z" fill="#151D2A" opacity="0.6"/><path d="M929.60 617L925.14 617L925.14 590.36L936.15 590.36Q936.54 590.36 937.15 590.39Q937.76 590.42 938.28 590.51L938.28 590.51Q940.59 590.86 942.10 592.04Q943.61 593.23 944.34 595.03Q945.07 596.84 945.07 599.04L945.07 599.04Q945.07 602.29 943.42 604.63Q941.78 606.97 938.37 607.53L938.37 607.53L936.47 607.69L929.60 607.69L929.60 617ZM945.49 617L940.44 617L935.19 606.16L939.72 605.16L945.49 617ZM929.60 594.54L929.60 603.53L935.97 603.53Q936.34 603.53 936.80 603.50Q937.26 603.46 937.65 603.35L937.65 603.35Q938.76 603.07 939.40 602.37Q940.04 601.66 940.31 600.78Q940.57 599.89 940.57 599.04L940.57 599.04Q940.57 598.19 940.31 597.29Q940.04 596.39 939.40 595.69Q938.76 594.99 937.65 594.71L937.65 594.71Q937.26 594.60 936.80 594.57Q936.34 594.54 935.97 594.54L935.97 594.54L929.60 594.54Z" fill="#151D2A" opacity="0.6"/><path d="M978.77 617L961.56 617L961.56 590.36L978.77 590.36L978.77 594.54L966.02 594.54L966.02 601.11L976.55 601.11L976.55 605.29L966.02 605.29L966.02 612.82L978.77 612.82L978.77 617Z" fill="#151D2A" opacity="0.6"/><path d="M1006.48 617.55L1006.48 617.55Q1002.48 617.55 999.63 615.81Q996.78 614.06 995.26 610.93Q993.73 607.81 993.73 603.68L993.73 603.68Q993.73 599.55 995.26 596.43Q996.78 593.30 999.63 591.55Q1002.48 589.80 1006.48 589.80L1006.48 589.80Q1011.08 589.80 1014.15 592.11Q1017.22 594.41 1018.46 598.32L1018.46 598.32L1013.97 599.55Q1013.19 596.95 1011.32 595.48Q1009.45 594.00 1006.48 594.00L1006.48 594.00Q1003.79 594.00 1002.01 595.21Q1000.22 596.41 999.33 598.58Q998.43 600.76 998.41 603.68L998.41 603.68Q998.41 606.60 999.31 608.78Q1000.20 610.95 1002.00 612.15Q1003.79 613.36 1006.48 613.36L1006.48 613.36Q1009.45 613.36 1011.32 611.88Q1013.19 610.40 1013.97 607.81L1013.97 607.81L1018.46 609.04Q1017.22 612.95 1014.15 615.25Q1011.08 617.55 1006.48 617.55Z" fill="#151D2A" opacity="0.6"/><path d="M1045.80 617.55L1045.80 617.55Q1041.80 617.55 1038.96 615.81Q1036.11 614.06 1034.58 610.93Q1033.05 607.81 1033.05 603.68L1033.05 603.68Q1033.05 599.55 1034.58 596.43Q1036.11 593.30 1038.96 591.55Q1041.80 589.80 1045.80 589.80L1045.80 589.80Q1049.80 589.80 1052.65 591.55Q1055.51 593.30 1057.04 596.43Q1058.57 599.55 1058.57 603.68L1058.57 603.68Q1058.57 607.81 1057.04 610.93Q1055.51 614.06 1052.65 615.81Q1049.80 617.55 1045.80 617.55ZM1045.80 613.36L1045.80 613.36Q1048.48 613.37 1050.27 612.17Q1052.05 610.97 1052.95 608.79Q1053.85 606.60 1053.85 603.68L1053.85 603.68Q1053.85 600.76 1052.95 598.60Q1052.05 596.45 1050.27 595.24Q1048.48 594.04 1045.80 594.00L1045.80 594.00Q1043.12 593.99 1041.34 595.19Q1039.57 596.39 1038.67 598.57Q1037.77 600.76 1037.77 603.68L1037.77 603.68Q1037.77 606.60 1038.66 608.76Q1039.55 610.91 1041.33 612.12Q1043.12 613.32 1045.80 613.36Z" fill="#151D2A" opacity="0.6"/><path d="M1078.78 617L1074.27 617L1074.27 590.36L1078.78 590.36L1091.14 609.14L1091.14 590.36L1095.65 590.36L1095.65 617L1091.14 617L1078.78 598.22L1078.78 617Z" fill="#151D2A" opacity="0.6"/><path d="M1117.35 617L1112.83 617L1112.83 590.36L1117.35 590.36L1129.70 609.14L1129.70 590.36L1134.22 590.36L1134.22 617L1129.70 617L1117.35 598.22L1117.35 617Z" fill="#151D2A" opacity="0.6"/><path d="M1168.60 617L1151.40 617L1151.40 590.36L1168.60 590.36L1168.60 594.54L1155.86 594.54L1155.86 601.11L1166.38 601.11L1166.38 605.29L1155.86 605.29L1155.86 612.82L1168.60 612.82L1168.60 617Z" fill="#151D2A" opacity="0.6"/><path d="M1196.31 617.55L1196.31 617.55Q1192.31 617.55 1189.46 615.81Q1186.62 614.06 1185.09 610.93Q1183.56 607.81 1183.56 603.68L1183.56 603.68Q1183.56 599.55 1185.09 596.43Q1186.62 593.30 1189.46 591.55Q1192.31 589.80 1196.31 589.80L1196.31 589.80Q1200.92 589.80 1203.99 592.11Q1207.06 594.41 1208.30 598.32L1208.30 598.32L1203.80 599.55Q1203.02 596.95 1201.16 595.48Q1199.29 594.00 1196.31 594.00L1196.31 594.00Q1193.63 594.00 1191.84 595.21Q1190.06 596.41 1189.16 598.58Q1188.26 600.76 1188.24 603.68L1188.24 603.68Q1188.24 606.60 1189.14 608.78Q1190.04 610.95 1191.83 612.15Q1193.63 613.36 1196.31 613.36L1196.31 613.36Q1199.29 613.36 1201.16 611.88Q1203.02 610.40 1203.80 607.81L1203.80 607.81L1208.30 609.04Q1207.06 612.95 1203.99 615.25Q1200.92 617.55 1196.31 617.55Z" fill="#151D2A" opacity="0.6"/><path d="M1235.23 617L1230.77 617L1230.77 594.54L1222.15 594.54L1222.15 590.36L1243.85 590.36L1243.85 594.54L1235.23 594.54L1235.23 617Z" fill="#151D2A" opacity="0.6"/>
      
</svg>