<?xml version="1.0" encoding="UTF-8"?>
<svg xmlns="http://www.w3.org/2000/svg" width="2400" height="1080" viewBox="0 0 2400 1080" fill="none">
  <rect width="2400" height="1080" fill="#151D2A"/>
  
        <g transform="translate(156 417) scale(2.5625)">
    <rect width="96" height="96" rx="26" fill="#151D2A"/>
    
    <rect x="31" y="14" width="34" height="68" rx="17" stroke="rgba(246,243,236,.22)" stroke-width="2.6"/>
    <rect x="43" y="28" width="10" height="40" rx="5" fill="#FF9361"/>
  </g>
        <path d="M489.26 532L473.81 532L473.81 437.75Q473.81 422.80 481.70 415.74Q489.60 408.69 504.89 408.69L504.89 408.69L515.98 408.69L515.98 422.13L502.20 422.13Q495.98 422.13 492.62 425.57Q489.26 429.02 489.26 435.06L489.26 435.06L489.26 532ZM517.66 455.39L461.38 455.39L461.38 443.30L517.66 443.30L517.66 455.39Z" fill="#F6F3EC" opacity="1"/><path d="M602.16 532L589.39 532L589.39 505.12L586.70 505.12L586.70 474.04Q586.70 464.80 581.92 460.10Q577.13 455.39 567.89 455.39L567.89 455.39Q562.68 455.39 557.14 455.56Q551.59 455.73 546.55 455.90Q541.51 456.06 537.82 456.40L537.82 456.40L537.82 442.29Q541.51 441.95 545.63 441.70Q549.74 441.45 554.11 441.36Q558.48 441.28 562.51 441.28L562.51 441.28Q576.29 441.28 585.02 444.56Q593.76 447.83 597.96 455.22Q602.16 462.62 602.16 475.22L602.16 475.22L602.16 532ZM559.99 534.35L559.99 534.35Q549.91 534.35 542.60 530.91Q535.30 527.46 531.35 520.91Q527.40 514.36 527.40 505.12L527.40 505.12Q527.40 495.54 531.68 489.16Q535.97 482.78 544.20 479.50Q552.43 476.22 564.02 476.22L564.02 476.22L588.38 476.22L588.38 488.32L563.35 488.32Q553.61 488.32 548.40 493.02Q543.19 497.73 543.19 505.12L543.19 505.12Q543.19 512.51 548.40 517.05Q553.61 521.58 563.35 521.58L563.35 521.58Q569.06 521.58 574.27 519.48Q579.48 517.38 582.92 512.43Q586.37 507.47 586.70 498.74L586.70 498.74L591.07 505.12Q590.23 514.70 586.45 521.16Q582.67 527.63 576.04 530.99Q569.40 534.35 559.99 534.35Z" fill="#F6F3EC" opacity="1"/><path d="M647.86 532L631.73 532L631.73 442.29L644.50 442.29L644.50 479.25L643.82 479.25Q643.82 459.59 652.48 450.44Q661.13 441.28 678.43 441.28L678.43 441.28L681.46 441.28L681.46 455.73L675.74 455.73Q662.30 455.73 655.08 462.87Q647.86 470.01 647.86 483.45L647.86 483.45L647.86 532Z" fill="#F6F3EC" opacity="1"/><path d="M767.64 532L754.87 532L754.87 505.12L752.18 505.12L752.18 474.04Q752.18 464.80 747.40 460.10Q742.61 455.39 733.37 455.39L733.37 455.39Q728.16 455.39 722.62 455.56Q717.07 455.73 712.03 455.90Q706.99 456.06 703.30 456.40L703.30 456.40L703.30 442.29Q706.99 441.95 711.11 441.70Q715.22 441.45 719.59 441.36Q723.96 441.28 727.99 441.28L727.99 441.28Q741.77 441.28 750.50 444.56Q759.24 447.83 763.44 455.22Q767.64 462.62 767.64 475.22L767.64 475.22L767.64 532ZM725.47 534.35L725.47 534.35Q715.39 534.35 708.08 530.91Q700.78 527.46 696.83 520.91Q692.88 514.36 692.88 505.12L692.88 505.12Q692.88 495.54 697.16 489.16Q701.45 482.78 709.68 479.50Q717.91 476.22 729.50 476.22L729.50 476.22L753.86 476.22L753.86 488.32L728.83 488.32Q719.09 488.32 713.88 493.02Q708.67 497.73 708.67 505.12L708.67 505.12Q708.67 512.51 713.88 517.05Q719.09 521.58 728.83 521.58L728.83 521.58Q734.54 521.58 739.75 519.48Q744.96 517.38 748.40 512.43Q751.85 507.47 752.18 498.74L752.18 498.74L756.55 505.12Q755.71 514.70 751.93 521.16Q748.15 527.63 741.52 530.99Q734.88 534.35 725.47 534.35Z" fill="#F6F3EC" opacity="1"/><path d="M834.67 535.02L834.67 535.02Q825.10 535.02 817.03 531.50Q808.97 527.97 803.00 521.58Q797.04 515.20 793.76 506.80Q790.49 498.40 790.49 488.66L790.49 488.66L790.49 485.63Q790.49 476.06 793.68 467.66Q796.87 459.26 802.67 452.87Q808.46 446.49 816.44 442.88Q824.42 439.26 834.17 439.26L834.17 439.26Q844.42 439.26 852.82 443.55Q861.22 447.83 866.59 456.90Q871.97 465.98 872.64 480.42L872.64 480.42L865.92 469.67L865.92 409.36L882.05 409.36L882.05 532L869.28 532L869.28 492.18L873.98 492.18Q873.31 507.47 867.60 516.96Q861.89 526.46 853.24 530.74Q844.58 535.02 834.67 535.02ZM836.86 520.91L836.86 520.91Q845.09 520.91 851.81 517.22Q858.53 513.52 862.56 506.55Q866.59 499.58 866.59 490.17L866.59 490.17L866.59 482.44Q866.59 473.20 862.48 466.73Q858.36 460.26 851.56 456.82Q844.75 453.38 836.69 453.38L836.69 453.38Q827.78 453.38 820.98 457.58Q814.18 461.78 810.40 469.34Q806.62 476.90 806.62 487.14L806.62 487.14Q806.62 497.39 810.48 505.04Q814.34 512.68 821.23 516.80Q828.12 520.91 836.86 520.91Z" fill="#F6F3EC" opacity="1"/><path d="M979.99 532L967.22 532L967.22 505.12L964.54 505.12L964.54 474.04Q964.54 464.80 959.75 460.10Q954.96 455.39 945.72 455.39L945.72 455.39Q940.51 455.39 934.97 455.56Q929.42 455.73 924.38 455.90Q919.34 456.06 915.65 456.40L915.65 456.40L915.65 442.29Q919.34 441.95 923.46 441.70Q927.58 441.45 931.94 441.36Q936.31 441.28 940.34 441.28L940.34 441.28Q954.12 441.28 962.86 444.56Q971.59 447.83 975.79 455.22Q979.99 462.62 979.99 475.22L979.99 475.22L979.99 532ZM937.82 534.35L937.82 534.35Q927.74 534.35 920.44 530.91Q913.13 527.46 909.18 520.91Q905.23 514.36 905.23 505.12L905.23 505.12Q905.23 495.54 909.52 489.16Q913.80 482.78 922.03 479.50Q930.26 476.22 941.86 476.22L941.86 476.22L966.22 476.22L966.22 488.32L941.18 488.32Q931.44 488.32 926.23 493.02Q921.02 497.73 921.02 505.12L921.02 505.12Q921.02 512.51 926.23 517.05Q931.44 521.58 941.18 521.58L941.18 521.58Q946.90 521.58 952.10 519.48Q957.31 517.38 960.76 512.43Q964.20 507.47 964.54 498.74L964.54 498.74L968.90 505.12Q968.06 514.70 964.28 521.16Q960.50 527.63 953.87 530.99Q947.23 534.35 937.82 534.35Z" fill="#F6F3EC" opacity="1"/><path d="M1015.44 566.94L1003.51 566.94L1003.51 552.50L1016.45 552.50Q1022.16 552.50 1026.11 551.07Q1030.06 549.64 1032.66 546.28Q1035.26 542.92 1036.94 537.38L1036.94 537.38L1065.17 442.29L1080.96 442.29L1051.06 541.58Q1048.37 550.48 1043.50 556.11Q1038.62 561.74 1031.65 564.34Q1024.68 566.94 1015.44 566.94L1015.44 566.94ZM1050.38 529.98L1030.90 529.98L1030.90 516.54L1050.38 516.54L1050.38 529.98ZM1044.34 529.98L1029.22 529.98L997.13 442.29L1013.59 442.29L1044.34 529.98Z" fill="#F6F3EC" opacity="1"/><path d="M463.87 606L457.96 606L457.96 585.84L463.87 585.84Q464.23 585.84 465.03 585.85Q465.83 585.87 466.56 585.98L466.56 585.98Q468.78 586.30 470.25 587.69Q471.71 589.07 472.42 591.21Q473.14 593.34 473.14 595.92L473.14 595.92Q473.14 598.51 472.42 600.64Q471.71 602.78 470.25 604.16Q468.78 605.54 466.56 605.86L466.56 605.86Q465.84 605.96 465.02 605.98Q464.20 606 463.87 606L463.87 606ZM459.22 587.02L459.22 604.82L463.87 604.82Q464.54 604.82 465.22 604.78Q465.90 604.74 466.36 604.66L466.36 604.66Q468.35 604.32 469.56 603.12Q470.77 601.93 471.32 600.07Q471.88 598.22 471.88 595.92L471.88 595.92Q471.88 593.62 471.32 591.77Q470.77 589.91 469.56 588.72Q468.35 587.52 466.36 587.18L466.36 587.18Q465.90 587.10 465.20 587.06Q464.50 587.02 463.87 587.02L463.87 587.02L459.22 587.02Z" fill="rgba(246,243,236,.72)" opacity="0.82"/><path d="M487.67 606L486.50 606L486.50 585.84L487.67 585.84L487.67 606Z" fill="rgba(246,243,236,.72)" opacity="0.82"/><path d="M508.56 606.42L508.56 606.42Q506.52 606.42 504.89 605.75Q503.26 605.09 502.19 603.87Q501.12 602.65 500.75 600.99L500.75 600.99L501.93 600.76Q502.47 602.84 504.25 604.04Q506.03 605.24 508.56 605.24L508.56 605.24Q510.33 605.24 511.64 604.68Q512.96 604.12 513.69 603.11Q514.42 602.09 514.42 600.74L514.42 600.74Q514.42 599.71 514.04 599.03Q513.66 598.34 513.08 597.91Q512.50 597.49 511.87 597.24Q511.24 596.98 510.75 596.84L510.75 596.84L505.71 595.33Q504.62 595.01 503.82 594.55Q503.03 594.09 502.53 593.50Q502.03 592.91 501.78 592.21Q501.54 591.51 501.54 590.71L501.54 590.71Q501.54 589.17 502.37 587.98Q503.20 586.78 504.69 586.10Q506.17 585.42 508.12 585.42L508.12 585.42Q510.09 585.42 511.66 586.15Q513.23 586.88 514.23 588.20Q515.23 589.52 515.48 591.30L515.48 591.30L514.30 591.52Q514.11 590.05 513.27 588.94Q512.43 587.83 511.10 587.21Q509.77 586.60 508.12 586.60L508.12 586.60Q506.53 586.60 505.34 587.14Q504.14 587.69 503.47 588.61Q502.80 589.54 502.80 590.68L502.80 590.68Q502.80 591.89 503.45 592.61Q504.10 593.33 505.04 593.73Q505.97 594.13 506.83 594.38L506.83 594.38L511 595.64Q511.53 595.79 512.30 596.10Q513.07 596.40 513.82 596.96Q514.57 597.52 515.07 598.43Q515.56 599.35 515.56 600.74L515.56 600.74Q515.56 602.04 515.07 603.09Q514.58 604.14 513.66 604.88Q512.74 605.62 511.45 606.02Q510.16 606.42 508.56 606.42Z" fill="rgba(246,243,236,.72)" opacity="0.82"/><path d="M536.29 606.42L536.29 606.42Q533.28 606.42 531.27 605.08Q529.26 603.73 528.25 601.37Q527.24 599 527.24 595.92L527.24 595.92Q527.24 592.84 528.25 590.47Q529.26 588.11 531.27 586.76Q533.28 585.42 536.29 585.42L536.29 585.42Q539.82 585.42 541.97 587.26Q544.13 589.10 544.88 592.17L544.88 592.17L543.65 592.45Q542.98 589.77 541.14 588.18Q539.30 586.60 536.29 586.60L536.29 586.60Q533.70 586.60 531.98 587.79Q530.27 588.98 529.40 591.08Q528.53 593.19 528.50 595.92L528.50 595.92Q528.48 598.65 529.34 600.75Q530.21 602.85 531.96 604.05Q533.70 605.24 536.29 605.24L536.29 605.24Q539.30 605.24 541.14 603.65Q542.98 602.05 543.65 599.39L543.65 599.39L544.88 599.67Q544.13 602.74 541.97 604.58Q539.82 606.42 536.29 606.42Z" fill="rgba(246,243,236,.72)" opacity="0.82"/><path d="M565.89 606.42L565.89 606.42Q562.88 606.42 560.87 605.08Q558.86 603.73 557.85 601.37Q556.84 599 556.84 595.92L556.84 595.92Q556.84 592.84 557.85 590.47Q558.86 588.11 560.87 586.76Q562.88 585.42 565.89 585.42L565.89 585.42Q568.90 585.42 570.91 586.76Q572.92 588.11 573.92 590.47Q574.93 592.84 574.93 595.92L574.93 595.92Q574.93 599 573.92 601.37Q572.92 603.73 570.91 605.08Q568.90 606.42 565.89 606.42ZM565.89 605.24L565.89 605.24Q568.48 605.24 570.21 604.05Q571.94 602.85 572.80 600.75Q573.67 598.65 573.67 595.92L573.67 595.92Q573.67 593.19 572.80 591.08Q571.94 588.98 570.21 587.79Q568.48 586.60 565.89 586.60L565.89 586.60Q563.30 586.60 561.58 587.79Q559.87 588.98 559 591.08Q558.13 593.19 558.10 595.92L558.10 595.92Q558.08 598.65 558.94 600.75Q559.81 602.85 561.56 604.05Q563.30 605.24 565.89 605.24Z" fill="rgba(246,243,236,.72)" opacity="0.82"/><path d="M588.91 606L587.73 606L587.73 585.84L588.91 585.84L601.17 603.90L601.17 585.84L602.35 585.84L602.35 606L601.17 606L588.91 587.91L588.91 606Z" fill="rgba(246,243,236,.72)" opacity="0.82"/><path d="M617.44 606L616.27 606L616.27 585.84L617.44 585.84L629.71 603.90L629.71 585.84L630.88 585.84L630.88 606L629.71 606L617.44 587.91L617.44 606Z" fill="rgba(246,243,236,.72)" opacity="0.82"/><path d="M657.12 606L644.80 606L644.80 585.84L657.12 585.84L657.12 587.02L645.98 587.02L645.98 595.33L655.44 595.33L655.44 596.51L645.98 596.51L645.98 604.82L657.12 604.82L657.12 606Z" fill="rgba(246,243,236,.72)" opacity="0.82"/><path d="M678.41 606.42L678.41 606.42Q675.40 606.42 673.39 605.08Q671.38 603.73 670.37 601.37Q669.36 599 669.36 595.92L669.36 595.92Q669.36 592.84 670.37 590.47Q671.38 588.11 673.39 586.76Q675.40 585.42 678.41 585.42L678.41 585.42Q681.94 585.42 684.09 587.26Q686.25 589.10 687.00 592.17L687.00 592.17L685.77 592.45Q685.10 589.77 683.26 588.18Q681.42 586.60 678.41 586.60L678.41 586.60Q675.82 586.60 674.10 587.79Q672.39 588.98 671.52 591.08Q670.65 593.19 670.62 595.92L670.62 595.92Q670.60 598.65 671.46 600.75Q672.33 602.85 674.08 604.05Q675.82 605.24 678.41 605.24L678.41 605.24Q681.42 605.24 683.26 603.65Q685.10 602.05 685.77 599.39L685.77 599.39L687.00 599.67Q686.25 602.74 684.09 604.58Q681.94 606.42 678.41 606.42Z" fill="rgba(246,243,236,.72)" opacity="0.82"/><path d="M706.97 606L705.80 606L705.80 587.02L698.40 587.02L698.40 585.84L714.36 585.84L714.36 587.02L706.97 587.02L706.97 606Z" fill="rgba(246,243,236,.72)" opacity="0.82"/><path d="M753.01 606L751.84 606L751.84 587.02L744.44 587.02L744.44 585.84L760.40 585.84L760.40 587.02L753.01 587.02L753.01 606Z" fill="rgba(246,243,236,.72)" opacity="0.82"/><path d="M780.57 606.42L780.57 606.42Q777.56 606.42 775.55 605.08Q773.54 603.73 772.53 601.37Q771.52 599 771.52 595.92L771.52 595.92Q771.52 592.84 772.53 590.47Q773.54 588.11 775.55 586.76Q777.56 585.42 780.57 585.42L780.57 585.42Q783.58 585.42 785.59 586.76Q787.60 588.11 788.60 590.47Q789.61 592.84 789.61 595.92L789.61 595.92Q789.61 599 788.60 601.37Q787.60 603.73 785.59 605.08Q783.58 606.42 780.57 606.42ZM780.57 605.24L780.57 605.24Q783.16 605.24 784.89 604.05Q786.62 602.85 787.48 600.75Q788.35 598.65 788.35 595.92L788.35 595.92Q788.35 593.19 787.48 591.08Q786.62 588.98 784.89 587.79Q783.16 586.60 780.57 586.60L780.57 586.60Q777.98 586.60 776.26 587.79Q774.55 588.98 773.68 591.08Q772.81 593.19 772.78 595.92L772.78 595.92Q772.76 598.65 773.62 600.75Q774.49 602.85 776.24 604.05Q777.98 605.24 780.57 605.24Z" fill="rgba(246,243,236,.72)" opacity="0.82"/><path d="M823.11 606L821.93 606L821.93 585.84L829.35 585.84Q829.65 585.84 829.95 585.86Q830.26 585.88 830.64 585.95L830.64 585.95Q832.10 586.18 833.17 587.01Q834.24 587.84 834.82 589.11Q835.40 590.38 835.40 591.89L835.40 591.89Q835.40 594.04 834.22 595.67Q833.05 597.29 831.03 597.74L831.03 597.74L830.81 597.94L823.11 597.94L823.11 606ZM835.96 606L834.56 606L830.58 597.80L831.59 597.04L835.96 606ZM823.11 587.02L823.11 596.76L829.35 596.76Q829.59 596.76 829.92 596.73Q830.25 596.70 830.58 596.65L830.58 596.65Q831.75 596.42 832.54 595.72Q833.33 595.02 833.73 594.02Q834.14 593.02 834.14 591.89L834.14 591.89Q834.14 590.75 833.73 589.75Q833.33 588.75 832.54 588.05Q831.75 587.35 830.58 587.13L830.58 587.13Q830.25 587.06 829.92 587.04Q829.59 587.02 829.35 587.02L829.35 587.02L823.11 587.02Z" fill="rgba(246,243,236,.72)" opacity="0.82"/><path d="M861.36 606L849.04 606L849.04 585.84L861.36 585.84L861.36 587.02L850.22 587.02L850.22 595.33L859.68 595.33L859.68 596.51L850.22 596.51L850.22 604.82L861.36 604.82L861.36 606Z" fill="rgba(246,243,236,.72)" opacity="0.82"/><path d="M882.64 606.42L882.64 606.42Q879.63 606.42 877.62 605.08Q875.62 603.73 874.61 601.37Q873.60 599 873.60 595.92L873.60 595.92Q873.60 592.84 874.61 590.47Q875.62 588.11 877.62 586.76Q879.63 585.42 882.64 585.42L882.64 585.42Q886.17 585.42 888.33 587.26Q890.48 589.10 891.24 592.17L891.24 592.17L890.01 592.45Q889.34 589.77 887.49 588.18Q885.65 586.60 882.64 586.60L882.64 586.60Q880.05 586.60 878.34 587.79Q876.62 588.98 875.76 591.08Q874.89 593.19 874.86 595.92L874.86 595.92Q874.83 598.65 875.70 600.75Q876.57 602.85 878.31 604.05Q880.05 605.24 882.64 605.24L882.64 605.24Q885.65 605.24 887.49 603.65Q889.34 602.05 890.01 599.39L890.01 599.39L891.24 599.67Q890.48 602.74 888.33 604.58Q886.17 606.42 882.64 606.42Z" fill="rgba(246,243,236,.72)" opacity="0.82"/><path d="M912.24 606.42L912.24 606.42Q909.23 606.42 907.22 605.08Q905.22 603.73 904.21 601.37Q903.20 599 903.20 595.92L903.20 595.92Q903.20 592.84 904.21 590.47Q905.22 588.11 907.22 586.76Q909.23 585.42 912.24 585.42L912.24 585.42Q915.25 585.42 917.26 586.76Q919.27 588.11 920.28 590.47Q921.29 592.84 921.29 595.92L921.29 595.92Q921.29 599 920.28 601.37Q919.27 603.73 917.26 605.08Q915.25 606.42 912.24 606.42ZM912.24 605.24L912.24 605.24Q914.83 605.24 916.56 604.05Q918.29 602.85 919.16 600.75Q920.03 598.65 920.03 595.92L920.03 595.92Q920.03 593.19 919.16 591.08Q918.29 588.98 916.56 587.79Q914.83 586.60 912.24 586.60L912.24 586.60Q909.65 586.60 907.94 587.79Q906.22 588.98 905.36 591.08Q904.49 593.19 904.46 595.92L904.46 595.92Q904.43 598.65 905.30 600.75Q906.17 602.85 907.91 604.05Q909.65 605.24 912.24 605.24Z" fill="rgba(246,243,236,.72)" opacity="0.82"/><path d="M935.26 606L934.09 606L934.09 585.84L935.26 585.84L947.53 603.90L947.53 585.84L948.70 585.84L948.70 606L947.53 606L935.26 587.91L935.26 606Z" fill="rgba(246,243,236,.72)" opacity="0.82"/><path d="M963.80 606L962.62 606L962.62 585.84L963.80 585.84L976.06 603.90L976.06 585.84L977.24 585.84L977.24 606L976.06 606L963.80 587.91L963.80 606Z" fill="rgba(246,243,236,.72)" opacity="0.82"/><path d="M1003.48 606L991.16 606L991.16 585.84L1003.48 585.84L1003.48 587.02L992.34 587.02L992.34 595.33L1001.80 595.33L1001.80 596.51L992.34 596.51L992.34 604.82L1003.48 604.82L1003.48 606Z" fill="rgba(246,243,236,.72)" opacity="0.82"/><path d="M1024.76 606.42L1024.76 606.42Q1021.75 606.42 1019.75 605.08Q1017.74 603.73 1016.73 601.37Q1015.72 599 1015.72 595.92L1015.72 595.92Q1015.72 592.84 1016.73 590.47Q1017.74 588.11 1019.75 586.76Q1021.75 585.42 1024.76 585.42L1024.76 585.42Q1028.29 585.42 1030.45 587.26Q1032.60 589.10 1033.36 592.17L1033.36 592.17L1032.13 592.45Q1031.46 589.77 1029.62 588.18Q1027.77 586.60 1024.76 586.60L1024.76 586.60Q1022.17 586.60 1020.46 587.79Q1018.74 588.98 1017.88 591.08Q1017.01 593.19 1016.98 595.92L1016.98 595.92Q1016.95 598.65 1017.82 600.75Q1018.69 602.85 1020.43 604.05Q1022.17 605.24 1024.76 605.24L1024.76 605.24Q1027.77 605.24 1029.62 603.65Q1031.46 602.05 1032.13 599.39L1032.13 599.39L1033.36 599.67Q1032.60 602.74 1030.45 604.58Q1028.29 606.42 1024.76 606.42Z" fill="rgba(246,243,236,.72)" opacity="0.82"/><path d="M1053.33 606L1052.15 606L1052.15 587.02L1044.76 587.02L1044.76 585.84L1060.72 585.84L1060.72 587.02L1053.33 587.02L1053.33 606Z" fill="rgba(246,243,236,.72)" opacity="0.82"/>
      
</svg>