<?xml version="1.0" encoding="UTF-8"?>
<svg xmlns="http://www.w3.org/2000/svg" width="2200" height="920" viewBox="0 0 2200 920" fill="none">
  <rect width="2200" height="920" fill="#151D2A"/>
  
        <g transform="translate(156 350) scale(2.2916666666666665)">
    <rect width="96" height="96" rx="26" fill="#151D2A"/>
    
    <rect x="31" y="14" width="34" height="68" rx="17" stroke="rgba(246,243,236,.22)" stroke-width="2.6"/>
    <rect x="43" y="28" width="10" height="40" rx="5" fill="#FF9361"/>
  </g>
        <path d="M450.98 464L442.77 464L442.77 399.02Q442.77 389.56 447.67 385.00Q452.57 380.44 462.38 380.44L462.38 380.44L470.01 380.44L470.01 387.73L460.78 387.73Q455.99 387.73 453.48 390.24Q450.98 392.75 450.98 397.31L450.98 397.31L450.98 464ZM471.27 410.76L433.99 410.76L433.99 404.15L471.27 404.15L471.27 410.76Z" fill="#F6F3EC" opacity="1"/><path d="M527.36 464L520.52 464L520.52 445.87L519.15 445.87L519.15 424.44Q519.15 417.72 515.61 414.13Q512.08 410.53 504.67 410.53L504.67 410.53Q501.25 410.53 497.77 410.65Q494.30 410.76 491.16 410.93Q488.03 411.10 485.63 411.33L485.63 411.33L485.63 403.81Q488.14 403.58 490.76 403.35Q493.38 403.12 496.18 403.07Q498.97 403.01 501.59 403.01L501.59 403.01Q510.83 403.01 516.47 405.29Q522.11 407.57 524.73 412.42Q527.36 417.26 527.36 425.24L527.36 425.24L527.36 464ZM500.11 465.60L500.11 465.60Q493.73 465.60 488.82 463.32Q483.92 461.04 481.24 456.70Q478.56 452.37 478.56 446.22L478.56 446.22Q478.56 440.17 481.36 435.96Q484.15 431.74 489.45 429.51Q494.75 427.29 502.28 427.29L502.28 427.29L519.95 427.29L519.95 433.79L501.71 433.79Q494.52 433.79 490.70 437.27Q486.89 440.74 486.89 446.33L486.89 446.33Q486.89 452.03 490.88 455.39Q494.87 458.76 501.71 458.76L501.71 458.76Q505.92 458.76 509.80 457.22Q513.68 455.68 516.30 451.97Q518.92 448.27 519.15 441.77L519.15 441.77L521.66 445.30Q521.20 452.03 518.46 456.53Q515.73 461.04 511.05 463.32Q506.38 465.60 500.11 465.60Z" fill="#F6F3EC" opacity="1"/><path d="M557.22 464L548.67 464L548.67 403.69L555.51 403.69L555.51 428.89L554.83 428.89Q554.83 415.66 560.64 409.34Q566.46 403.01 578.88 403.01L578.88 403.01L580.82 403.01L580.82 410.76L577.29 410.76Q567.48 410.76 562.35 415.83Q557.22 420.91 557.22 430.71L557.22 430.71L557.22 464Z" fill="#F6F3EC" opacity="1"/><path d="M638.16 464L631.32 464L631.32 445.87L629.96 445.87L629.96 424.44Q629.96 417.72 626.42 414.13Q622.89 410.53 615.48 410.53L615.48 410.53Q612.06 410.53 608.58 410.65Q605.10 410.76 601.97 410.93Q598.83 411.10 596.44 411.33L596.44 411.33L596.44 403.81Q598.95 403.58 601.57 403.35Q604.19 403.12 606.99 403.07Q609.78 403.01 612.40 403.01L612.40 403.01Q621.63 403.01 627.28 405.29Q632.92 407.57 635.54 412.42Q638.16 417.26 638.16 425.24L638.16 425.24L638.16 464ZM610.92 465.60L610.92 465.60Q604.53 465.60 599.63 463.32Q594.73 461.04 592.05 456.70Q589.37 452.37 589.37 446.22L589.37 446.22Q589.37 440.17 592.16 435.96Q594.96 431.74 600.26 429.51Q605.56 427.29 613.08 427.29L613.08 427.29L630.75 427.29L630.75 433.79L612.51 433.79Q605.33 433.79 601.51 437.27Q597.69 440.74 597.69 446.33L597.69 446.33Q597.69 452.03 601.68 455.39Q605.67 458.76 612.51 458.76L612.51 458.76Q616.73 458.76 620.61 457.22Q624.48 455.68 627.11 451.97Q629.73 448.27 629.96 441.77L629.96 441.77L632.46 445.30Q632.01 452.03 629.27 456.53Q626.54 461.04 621.86 463.32Q617.19 465.60 610.92 465.60Z" fill="#F6F3EC" opacity="1"/><path d="M684.22 465.94L684.22 465.94Q677.61 465.94 672.19 463.49Q666.78 461.04 662.85 456.65Q658.91 452.26 656.80 446.62Q654.69 440.97 654.69 434.59L654.69 434.59L654.69 432.99Q654.69 426.84 656.75 421.19Q658.80 415.55 662.62 411.16Q666.44 406.77 671.85 404.21Q677.27 401.64 683.99 401.64L683.99 401.64Q691.63 401.64 697.44 404.95Q703.26 408.25 706.79 414.47Q710.33 420.68 710.55 429.69L710.55 429.69L706.79 422.62L706.79 380.78L715.34 380.78L715.34 464L708.50 464L708.50 437.21L711.24 437.21Q711.01 446.67 707.30 453.11Q703.60 459.55 697.62 462.75Q691.63 465.94 684.22 465.94ZM685.36 458.41L685.36 458.41Q691.52 458.41 696.48 455.68Q701.43 452.94 704.28 447.87Q707.13 442.80 707.13 436.18L707.13 436.18L707.13 430.71Q707.13 424.33 704.28 419.48Q701.43 414.64 696.48 411.90Q691.52 409.17 685.25 409.17L685.25 409.17Q678.52 409.17 673.56 412.42Q668.60 415.66 665.92 421.25Q663.24 426.84 663.24 433.79L663.24 433.79Q663.24 440.97 665.98 446.56Q668.72 452.14 673.73 455.28Q678.75 458.41 685.36 458.41Z" fill="#F6F3EC" opacity="1"/><path d="M781.01 464L774.17 464L774.17 445.87L772.80 445.87L772.80 424.44Q772.80 417.72 769.26 414.13Q765.73 410.53 758.32 410.53L758.32 410.53Q754.90 410.53 751.42 410.65Q747.95 410.76 744.81 410.93Q741.68 411.10 739.28 411.33L739.28 411.33L739.28 403.81Q741.79 403.58 744.41 403.35Q747.03 403.12 749.83 403.07Q752.62 403.01 755.24 403.01L755.24 403.01Q764.48 403.01 770.12 405.29Q775.76 407.57 778.38 412.42Q781.01 417.26 781.01 425.24L781.01 425.24L781.01 464ZM753.76 465.60L753.76 465.60Q747.38 465.60 742.47 463.32Q737.57 461.04 734.89 456.70Q732.21 452.37 732.21 446.22L732.21 446.22Q732.21 440.17 735.01 435.96Q737.80 431.74 743.10 429.51Q748.40 427.29 755.93 427.29L755.93 427.29L773.60 427.29L773.60 433.79L755.36 433.79Q748.17 433.79 744.36 437.27Q740.54 440.74 740.54 446.33L740.54 446.33Q740.54 452.03 744.53 455.39Q748.52 458.76 755.36 458.76L755.36 458.76Q759.57 458.76 763.45 457.22Q767.33 455.68 769.95 451.97Q772.57 448.27 772.80 441.77L772.80 441.77L775.31 445.30Q774.85 452.03 772.11 456.53Q769.38 461.04 764.70 463.32Q760.03 465.60 753.76 465.60Z" fill="#F6F3EC" opacity="1"/><path d="M804.26 487.48L796.97 487.48L796.97 479.85L804.72 479.85Q808.71 479.85 811.56 478.88Q814.41 477.91 816.35 475.51Q818.28 473.12 819.65 468.90L819.65 468.90L839.94 403.69L848.27 403.69L827.06 471.30Q825.24 477.11 822.05 480.70Q818.85 484.29 814.41 485.89Q809.96 487.48 804.26 487.48L804.26 487.48ZM827.40 462.52L816.57 462.52L816.57 455.34L827.40 455.34L827.40 462.52ZM823.53 462.52L815.55 462.52L793.66 403.69L802.44 403.69L823.53 462.52Z" fill="#F6F3EC" opacity="1"/>
      
</svg>