<?xml version="1.0" encoding="UTF-8"?>
<svg xmlns="http://www.w3.org/2000/svg" width="1200" height="900" viewBox="0 0 1200 900" fill="none">
  <rect width="1200" height="900" fill="#F6F3EC"/>
  
        <g transform="translate(490 228) scale(2.2916666666666665)">
    <rect width="96" height="96" rx="26" fill="#F6F3EC"/>
    <rect class="led-aura" x="31" y="14" width="34" height="68" rx="17" fill="#FF9361" opacity="0.11"/>
    <rect x="31" y="14" width="34" height="68" rx="17" stroke="rgba(21,29,42,.15)" stroke-width="2.6"/>
    <rect x="43" y="28" width="10" height="40" rx="5" fill="#FF9361"/>
  </g>
        <path d="M416.57 547L408.65 547L408.65 484.30Q408.65 475.17 413.38 470.77Q418.12 466.37 427.57 466.37L427.57 466.37L434.94 466.37L434.94 473.41L426.03 473.41Q421.41 473.41 419.00 475.83Q416.57 478.25 416.57 482.65L416.57 482.65L416.57 547ZM436.15 495.63L400.19 495.63L400.19 489.25L436.15 489.25L436.15 495.63Z" fill="#151D2A" opacity="1"/><path d="M490.27 547L483.67 547L483.67 529.51L482.35 529.51L482.35 508.83Q482.35 502.34 478.94 498.88Q475.53 495.41 468.38 495.41L468.38 495.41Q465.08 495.41 461.73 495.52Q458.38 495.63 455.35 495.80Q452.32 495.96 450.01 496.18L450.01 496.18L450.01 488.92Q452.44 488.70 454.96 488.48Q457.50 488.26 460.19 488.20Q462.88 488.15 465.41 488.15L465.41 488.15Q474.32 488.15 479.77 490.35Q485.21 492.55 487.75 497.23Q490.27 501.90 490.27 509.60L490.27 509.60L490.27 547ZM463.98 548.54L463.98 548.54Q457.82 548.54 453.09 546.34Q448.36 544.14 445.78 539.96Q443.19 535.78 443.19 529.84L443.19 529.84Q443.19 524.01 445.89 519.94Q448.58 515.87 453.70 513.73Q458.81 511.58 466.07 511.58L466.07 511.58L483.13 511.58L483.13 517.85L465.52 517.85Q458.59 517.85 454.91 521.21Q451.22 524.56 451.22 529.95L451.22 529.95Q451.22 535.45 455.07 538.70Q458.92 541.94 465.52 541.94L465.52 541.94Q469.59 541.94 473.33 540.46Q477.07 538.97 479.60 535.39Q482.13 531.82 482.35 525.55L482.35 525.55L484.77 528.96Q484.33 535.45 481.69 539.79Q479.05 544.14 474.54 546.34Q470.03 548.54 463.98 548.54Z" fill="#151D2A" opacity="1"/><path d="M519.09 547L510.84 547L510.84 488.81L517.44 488.81L517.44 513.12L516.78 513.12Q516.78 500.36 522.39 494.25Q528.00 488.15 540.00 488.15L540.00 488.15L541.87 488.15L541.87 495.63L538.45 495.63Q529.00 495.63 524.04 500.52Q519.09 505.42 519.09 514.88L519.09 514.88L519.09 547Z" fill="#151D2A" opacity="1"/><path d="M597.19 547L590.60 547L590.60 529.51L589.27 529.51L589.27 508.83Q589.27 502.34 585.87 498.88Q582.46 495.41 575.30 495.41L575.30 495.41Q572.00 495.41 568.65 495.52Q565.29 495.63 562.27 495.80Q559.25 495.96 556.93 496.18L556.93 496.18L556.93 488.92Q559.36 488.70 561.88 488.48Q564.41 488.26 567.11 488.20Q569.80 488.15 572.34 488.15L572.34 488.15Q581.25 488.15 586.69 490.35Q592.13 492.55 594.66 497.23Q597.19 501.90 597.19 509.60L597.19 509.60L597.19 547ZM570.90 548.54L570.90 548.54Q564.75 548.54 560.01 546.34Q555.28 544.14 552.70 539.96Q550.12 535.78 550.12 529.84L550.12 529.84Q550.12 524.01 552.81 519.94Q555.50 515.87 560.62 513.73Q565.74 511.58 573.00 511.58L573.00 511.58L590.04 511.58L590.04 517.85L572.45 517.85Q565.51 517.85 561.83 521.21Q558.14 524.56 558.14 529.95L558.14 529.95Q558.14 535.45 562.00 538.70Q565.85 541.94 572.45 541.94L572.45 541.94Q576.51 541.94 580.25 540.46Q584.00 538.97 586.52 535.39Q589.05 531.82 589.27 525.55L589.27 525.55L591.69 528.96Q591.25 535.45 588.62 539.79Q585.98 544.14 581.47 546.34Q576.96 548.54 570.90 548.54Z" fill="#151D2A" opacity="1"/><path d="M641.63 548.87L641.63 548.87Q635.25 548.87 630.03 546.50Q624.81 544.14 621.01 539.90Q617.22 535.67 615.18 530.23Q613.14 524.78 613.14 518.62L613.14 518.62L613.14 517.08Q613.14 511.14 615.13 505.69Q617.11 500.25 620.79 496.01Q624.48 491.78 629.70 489.31Q634.93 486.83 641.42 486.83L641.42 486.83Q648.79 486.83 654.39 490.02Q660.00 493.21 663.42 499.20Q666.83 505.20 667.05 513.89L667.05 513.89L663.42 507.07L663.42 466.70L671.67 466.70L671.67 547L665.07 547L665.07 521.15L667.71 521.15Q667.49 530.28 663.91 536.50Q660.34 542.71 654.56 545.79Q648.79 548.87 641.63 548.87ZM642.74 541.61L642.74 541.61Q648.68 541.61 653.46 538.97Q658.25 536.33 661.00 531.43Q663.75 526.54 663.75 520.16L663.75 520.16L663.75 514.88Q663.75 508.72 661.00 504.05Q658.25 499.37 653.46 496.73Q648.68 494.09 642.63 494.09L642.63 494.09Q636.13 494.09 631.35 497.23Q626.57 500.36 623.98 505.75Q621.39 511.14 621.39 517.85L621.39 517.85Q621.39 524.78 624.04 530.17Q626.68 535.56 631.51 538.59Q636.36 541.61 642.74 541.61Z" fill="#151D2A" opacity="1"/><path d="M735.03 547L728.43 547L728.43 529.51L727.11 529.51L727.11 508.83Q727.11 502.34 723.70 498.88Q720.29 495.41 713.13 495.41L713.13 495.41Q709.84 495.41 706.48 495.52Q703.13 495.63 700.10 495.80Q697.08 495.96 694.76 496.18L694.76 496.18L694.76 488.92Q697.19 488.70 699.72 488.48Q702.25 488.26 704.94 488.20Q707.63 488.15 710.17 488.15L710.17 488.15Q719.08 488.15 724.52 490.35Q729.97 492.55 732.50 497.23Q735.03 501.90 735.03 509.60L735.03 509.60L735.03 547ZM708.74 548.54L708.74 548.54Q702.58 548.54 697.85 546.34Q693.12 544.14 690.53 539.96Q687.95 535.78 687.95 529.84L687.95 529.84Q687.95 524.01 690.64 519.94Q693.34 515.87 698.45 513.73Q703.57 511.58 710.83 511.58L710.83 511.58L727.88 511.58L727.88 517.85L710.28 517.85Q703.35 517.85 699.66 521.21Q695.98 524.56 695.98 529.95L695.98 529.95Q695.98 535.45 699.83 538.70Q703.68 541.94 710.28 541.94L710.28 541.94Q714.35 541.94 718.09 540.46Q721.83 538.97 724.36 535.39Q726.88 531.82 727.11 525.55L727.11 525.55L729.53 528.96Q729.09 535.45 726.45 539.79Q723.81 544.14 719.30 546.34Q714.79 548.54 708.74 548.54Z" fill="#151D2A" opacity="1"/><path d="M757.47 569.66L750.43 569.66L750.43 562.29L757.91 562.29Q761.76 562.29 764.51 561.36Q767.26 560.42 769.13 558.11Q771.00 555.80 772.32 551.73L772.32 551.73L791.90 488.81L799.93 488.81L779.47 554.04Q777.71 559.65 774.63 563.12Q771.55 566.58 767.26 568.12Q762.97 569.66 757.47 569.66L757.47 569.66ZM779.80 545.57L769.35 545.57L769.35 538.64L779.80 538.64L779.80 545.57ZM776.06 545.57L768.36 545.57L747.24 488.81L755.71 488.81L776.06 545.57Z" fill="#151D2A" opacity="1"/>
        <path d="M258.53 617L250.96 617L250.96 593.24L258.53 593.24Q258.83 593.24 259.71 593.26Q260.59 593.27 261.42 593.37L261.42 593.37Q264.24 593.74 266.19 595.38Q268.15 597.02 269.16 599.56Q270.16 602.10 270.16 605.12L270.16 605.12Q270.16 608.14 269.16 610.68Q268.15 613.22 266.19 614.86Q264.24 616.50 261.42 616.87L261.42 616.87Q260.61 616.97 259.72 616.98Q258.83 617 258.53 617L258.53 617ZM255.00 596.99L255.00 613.25L258.53 613.25Q259.02 613.25 259.79 613.22Q260.56 613.19 261.15 613.07L261.15 613.07Q262.84 612.76 263.89 611.57Q264.95 610.38 265.45 608.68Q265.95 606.98 265.95 605.12L265.95 605.12Q265.95 603.19 265.44 601.49Q264.93 599.79 263.87 598.64Q262.80 597.48 261.15 597.17L261.15 597.17Q260.56 597.03 259.79 597.01Q259.02 596.99 258.53 596.99L258.53 596.99L255.00 596.99Z" fill="#151D2A" opacity="0.62"/><path d="M288.38 617L284.40 617L284.40 593.24L288.38 593.24L288.38 617Z" fill="#151D2A" opacity="0.62"/><path d="M312.12 617.50L312.12 617.50Q309.52 617.50 307.43 616.59Q305.34 615.68 304.00 613.99Q302.65 612.30 302.29 609.97L302.29 609.97L306.41 609.34Q306.94 611.46 308.58 612.61Q310.23 613.77 312.37 613.77L312.37 613.77Q313.64 613.77 314.76 613.37Q315.89 612.97 316.59 612.22Q317.29 611.46 317.29 610.35L317.29 610.35Q317.29 609.86 317.12 609.43Q316.96 609.01 316.64 608.68Q316.31 608.35 315.81 608.08Q315.31 607.81 314.65 607.61L314.65 607.61L308.51 605.80Q307.72 605.57 306.80 605.18Q305.89 604.79 305.07 604.11Q304.25 603.42 303.73 602.36Q303.21 601.29 303.21 599.72L303.21 599.72Q303.21 597.43 304.38 595.87Q305.54 594.31 307.51 593.54Q309.48 592.76 311.89 592.78L311.89 592.78Q314.33 592.79 316.25 593.61Q318.16 594.43 319.45 595.98Q320.74 597.53 321.26 599.72L321.26 599.72L316.99 600.47Q316.73 599.21 315.98 598.33Q315.23 597.45 314.14 596.99Q313.06 596.52 311.84 596.49L311.84 596.49Q310.66 596.47 309.64 596.85Q308.63 597.22 308.01 597.91Q307.39 598.60 307.39 599.53L307.39 599.53Q307.39 600.40 307.92 600.95Q308.44 601.51 309.23 601.83Q310.01 602.15 310.82 602.36L310.82 602.36L315.08 603.55Q315.95 603.78 317.04 604.18Q318.13 604.58 319.14 605.28Q320.14 605.99 320.79 607.15Q321.45 608.30 321.45 610.09L321.45 610.09Q321.45 611.93 320.68 613.33Q319.91 614.72 318.61 615.65Q317.30 616.57 315.63 617.03Q313.96 617.50 312.12 617.50Z" fill="#151D2A" opacity="0.62"/><path d="M345.08 617.50L345.08 617.50Q341.51 617.50 338.97 615.94Q336.43 614.38 335.07 611.59Q333.71 608.80 333.71 605.12L333.71 605.12Q333.71 601.44 335.07 598.65Q336.43 595.86 338.97 594.30Q341.51 592.75 345.08 592.75L345.08 592.75Q349.18 592.75 351.92 594.80Q354.66 596.85 355.77 600.34L355.77 600.34L351.76 601.44Q351.06 599.11 349.40 597.80Q347.73 596.49 345.08 596.49L345.08 596.49Q342.68 596.49 341.09 597.56Q339.50 598.64 338.70 600.57Q337.90 602.51 337.88 605.12L337.88 605.12Q337.88 607.73 338.68 609.67Q339.48 611.60 341.08 612.68Q342.68 613.75 345.08 613.75L345.08 613.75Q347.73 613.75 349.40 612.43Q351.06 611.11 351.76 608.80L351.76 608.80L355.77 609.90Q354.66 613.39 351.92 615.44Q349.18 617.50 345.08 617.50Z" fill="#151D2A" opacity="0.62"/><path d="M379.45 617.50L379.45 617.50Q375.88 617.50 373.34 615.94Q370.80 614.38 369.44 611.59Q368.08 608.80 368.08 605.12L368.08 605.12Q368.08 601.44 369.44 598.65Q370.80 595.86 373.34 594.30Q375.88 592.75 379.45 592.75L379.45 592.75Q383.01 592.75 385.56 594.30Q388.11 595.86 389.47 598.65Q390.83 601.44 390.83 605.12L390.83 605.12Q390.83 608.80 389.47 611.59Q388.11 614.38 385.56 615.94Q383.01 617.50 379.45 617.50ZM379.45 613.75L379.45 613.75Q381.84 613.77 383.43 612.69Q385.02 611.62 385.82 609.67Q386.62 607.73 386.62 605.12L386.62 605.12Q386.62 602.51 385.82 600.59Q385.02 598.67 383.43 597.60Q381.84 596.52 379.45 596.49L379.45 596.49Q377.05 596.47 375.47 597.55Q373.89 598.62 373.08 600.57Q372.28 602.51 372.28 605.12L372.28 605.12Q372.28 607.73 373.08 609.65Q373.87 611.57 375.46 612.64Q377.05 613.72 379.45 613.75Z" fill="#151D2A" opacity="0.62"/><path d="M408.16 617L404.13 617L404.13 593.24L408.16 593.24L419.18 609.99L419.18 593.24L423.20 593.24L423.20 617L419.18 617L408.16 600.25L408.16 617Z" fill="#151D2A" opacity="0.62"/><path d="M441.85 617L437.82 617L437.82 593.24L441.85 593.24L452.87 609.99L452.87 593.24L456.90 593.24L456.90 617L452.87 617L441.85 600.25L441.85 617Z" fill="#151D2A" opacity="0.62"/><path d="M486.86 617L471.52 617L471.52 593.24L486.86 593.24L486.86 596.97L475.50 596.97L475.50 602.83L484.88 602.83L484.88 606.56L475.50 606.56L475.50 613.27L486.86 613.27L486.86 617Z" fill="#151D2A" opacity="0.62"/><path d="M510.87 617.50L510.87 617.50Q507.31 617.50 504.77 615.94Q502.23 614.38 500.87 611.59Q499.50 608.80 499.50 605.12L499.50 605.12Q499.50 601.44 500.87 598.65Q502.23 595.86 504.77 594.30Q507.31 592.75 510.87 592.75L510.87 592.75Q514.98 592.75 517.72 594.80Q520.46 596.85 521.56 600.34L521.56 600.34L517.55 601.44Q516.86 599.11 515.20 597.80Q513.53 596.49 510.87 596.49L510.87 596.49Q508.48 596.49 506.89 597.56Q505.30 598.64 504.50 600.57Q503.69 602.51 503.68 605.12L503.68 605.12Q503.68 607.73 504.48 609.67Q505.28 611.60 506.88 612.68Q508.48 613.75 510.87 613.75L510.87 613.75Q513.53 613.75 515.20 612.43Q516.86 611.11 517.55 608.80L517.55 608.80L521.56 609.90Q520.46 613.39 517.72 615.44Q514.98 617.50 510.87 617.50Z" fill="#151D2A" opacity="0.62"/><path d="M544.88 617L540.90 617L540.90 596.97L533.21 596.97L533.21 593.24L552.57 593.24L552.57 596.97L544.88 596.97L544.88 617Z" fill="#151D2A" opacity="0.62"/><path d="M596.11 617L592.14 617L592.14 596.97L584.45 596.97L584.45 593.24L603.80 593.24L603.80 596.97L596.11 596.97L596.11 617Z" fill="#151D2A" opacity="0.62"/><path d="M626.49 617.50L626.49 617.50Q622.93 617.50 620.39 615.94Q617.85 614.38 616.48 611.59Q615.12 608.80 615.12 605.12L615.12 605.12Q615.12 601.44 616.48 598.65Q617.85 595.86 620.39 594.30Q622.93 592.75 626.49 592.75L626.49 592.75Q630.06 592.75 632.61 594.30Q635.15 595.86 636.52 598.65Q637.88 601.44 637.88 605.12L637.88 605.12Q637.88 608.80 636.52 611.59Q635.15 614.38 632.61 615.94Q630.06 617.50 626.49 617.50ZM626.49 613.75L626.49 613.75Q628.88 613.77 630.48 612.69Q632.07 611.62 632.87 609.67Q633.67 607.73 633.67 605.12L633.67 605.12Q633.67 602.51 632.87 600.59Q632.07 598.67 630.48 597.60Q628.88 596.52 626.49 596.49L626.49 596.49Q624.10 596.47 622.52 597.55Q620.93 598.62 620.13 600.57Q619.33 602.51 619.33 605.12L619.33 605.12Q619.33 607.73 620.12 609.65Q620.91 611.57 622.51 612.64Q624.10 613.72 626.49 613.75Z" fill="#151D2A" opacity="0.62"/><path d="M676.37 617L672.40 617L672.40 593.24L682.21 593.24Q682.56 593.24 683.11 593.26Q683.65 593.29 684.11 593.37L684.11 593.37Q686.17 593.69 687.52 594.74Q688.86 595.80 689.52 597.41Q690.17 599.01 690.17 600.98L690.17 600.98Q690.17 603.88 688.70 605.97Q687.23 608.06 684.19 608.55L684.19 608.55L682.49 608.70L676.37 608.70L676.37 617ZM690.55 617L686.04 617L681.36 607.33L685.40 606.44L690.55 617ZM676.37 596.97L676.37 604.99L682.05 604.99Q682.38 604.99 682.79 604.96Q683.20 604.92 683.55 604.82L683.55 604.82Q684.54 604.58 685.11 603.95Q685.68 603.32 685.92 602.53Q686.16 601.74 686.16 600.98L686.16 600.98Q686.16 600.22 685.92 599.42Q685.68 598.62 685.11 597.99Q684.54 597.37 683.55 597.12L683.55 597.12Q683.20 597.02 682.79 596.99Q682.38 596.97 682.05 596.97L682.05 596.97L676.37 596.97Z" fill="#151D2A" opacity="0.62"/><path d="M719.52 617L704.18 617L704.18 593.24L719.52 593.24L719.52 596.97L708.15 596.97L708.15 602.83L717.54 602.83L717.54 606.56L708.15 606.56L708.15 613.27L719.52 613.27L719.52 617Z" fill="#151D2A" opacity="0.62"/><path d="M743.53 617.50L743.53 617.50Q739.97 617.50 737.43 615.94Q734.88 614.38 733.52 611.59Q732.16 608.80 732.16 605.12L732.16 605.12Q732.16 601.44 733.52 598.65Q734.88 595.86 737.43 594.30Q739.97 592.75 743.53 592.75L743.53 592.75Q747.64 592.75 750.38 594.80Q753.12 596.85 754.22 600.34L754.22 600.34L750.21 601.44Q749.52 599.11 747.85 597.80Q746.19 596.49 743.53 596.49L743.53 596.49Q741.14 596.49 739.55 597.56Q737.95 598.64 737.15 600.57Q736.35 602.51 736.34 605.12L736.34 605.12Q736.34 607.73 737.14 609.67Q737.94 611.60 739.54 612.68Q741.14 613.75 743.53 613.75L743.53 613.75Q746.19 613.75 747.85 612.43Q749.52 611.11 750.21 608.80L750.21 608.80L754.22 609.90Q753.12 613.39 750.38 615.44Q747.64 617.50 743.53 617.50Z" fill="#151D2A" opacity="0.62"/><path d="M777.90 617.50L777.90 617.50Q774.34 617.50 771.80 615.94Q769.25 614.38 767.89 611.59Q766.53 608.80 766.53 605.12L766.53 605.12Q766.53 601.44 767.89 598.65Q769.25 595.86 771.80 594.30Q774.34 592.75 777.90 592.75L777.90 592.75Q781.46 592.75 784.01 594.30Q786.56 595.86 787.92 598.65Q789.29 601.44 789.29 605.12L789.29 605.12Q789.29 608.80 787.92 611.59Q786.56 614.38 784.01 615.94Q781.46 617.50 777.90 617.50ZM777.90 613.75L777.90 613.75Q780.29 613.77 781.89 612.69Q783.48 611.62 784.28 609.67Q785.08 607.73 785.08 605.12L785.08 605.12Q785.08 602.51 784.28 600.59Q783.48 598.67 781.89 597.60Q780.29 596.52 777.90 596.49L777.90 596.49Q775.51 596.47 773.92 597.55Q772.34 598.62 771.54 600.57Q770.74 602.51 770.74 605.12L770.74 605.12Q770.74 607.73 771.53 609.65Q772.32 611.57 773.92 612.64Q775.51 613.72 777.90 613.75Z" fill="#151D2A" opacity="0.62"/><path d="M806.61 617L802.59 617L802.59 593.24L806.61 593.24L817.63 609.99L817.63 593.24L821.66 593.24L821.66 617L817.63 617L806.61 600.25L806.61 617Z" fill="#151D2A" opacity="0.62"/><path d="M840.31 617L836.28 617L836.28 593.24L840.31 593.24L851.33 609.99L851.33 593.24L855.35 593.24L855.35 617L851.33 617L840.31 600.25L840.31 617Z" fill="#151D2A" opacity="0.62"/><path d="M885.32 617L869.97 617L869.97 593.24L885.32 593.24L885.32 596.97L873.95 596.97L873.95 602.83L883.34 602.83L883.34 606.56L873.95 606.56L873.95 613.27L885.32 613.27L885.32 617Z" fill="#151D2A" opacity="0.62"/><path d="M909.33 617.50L909.33 617.50Q905.76 617.50 903.22 615.94Q900.68 614.38 899.32 611.59Q897.96 608.80 897.96 605.12L897.96 605.12Q897.96 601.44 899.32 598.65Q900.68 595.86 903.22 594.30Q905.76 592.75 909.33 592.75L909.33 592.75Q913.44 592.75 916.17 594.80Q918.91 596.85 920.02 600.34L920.02 600.34L916.01 601.44Q915.32 599.11 913.65 597.80Q911.98 596.49 909.33 596.49L909.33 596.49Q906.93 596.49 905.34 597.56Q903.75 598.64 902.95 600.57Q902.15 602.51 902.13 605.12L902.13 605.12Q902.13 607.73 902.93 609.67Q903.73 611.60 905.33 612.68Q906.93 613.75 909.33 613.75L909.33 613.75Q911.98 613.75 913.65 612.43Q915.32 611.11 916.01 608.80L916.01 608.80L920.02 609.90Q918.91 613.39 916.17 615.44Q913.44 617.50 909.33 617.50Z" fill="#151D2A" opacity="0.62"/><path d="M943.33 617L939.36 617L939.36 596.97L931.67 596.97L931.67 593.24L951.02 593.24L951.02 596.97L943.33 596.97L943.33 617Z" fill="#151D2A" opacity="0.62"/>
      
</svg>