<?xml version="1.0" encoding="UTF-8"?>
<svg xmlns="http://www.w3.org/2000/svg" width="2200" height="920" viewBox="0 0 2200 920" fill="none">
  <rect width="2200" height="920" fill="#151D2A"/>
  
        <g transform="translate(156 350) scale(2.2916666666666665)">
    <rect width="96" height="96" rx="26" fill="#151D2A"/>
    
    <rect x="31" y="14" width="34" height="68" rx="17" stroke="rgba(246,243,236,.22)" stroke-width="2.6"/>
    <rect x="43" y="28" width="10" height="40" rx="5" fill="#FF9361"/>
  </g>
        <path d="M463.26 452L447.81 452L447.81 357.75Q447.81 342.80 455.70 335.74Q463.60 328.69 478.89 328.69L478.89 328.69L489.98 328.69L489.98 342.13L476.20 342.13Q469.98 342.13 466.62 345.57Q463.26 349.02 463.26 355.06L463.26 355.06L463.26 452ZM491.66 375.39L435.38 375.39L435.38 363.30L491.66 363.30L491.66 375.39Z" fill="#F6F3EC" opacity="1"/><path d="M576.16 452L563.39 452L563.39 425.12L560.70 425.12L560.70 394.04Q560.70 384.80 555.92 380.10Q551.13 375.39 541.89 375.39L541.89 375.39Q536.68 375.39 531.14 375.56Q525.59 375.73 520.55 375.90Q515.51 376.06 511.82 376.40L511.82 376.40L511.82 362.29Q515.51 361.95 519.63 361.70Q523.74 361.45 528.11 361.36Q532.48 361.28 536.51 361.28L536.51 361.28Q550.29 361.28 559.02 364.56Q567.76 367.83 571.96 375.22Q576.16 382.62 576.16 395.22L576.16 395.22L576.16 452ZM533.99 454.35L533.99 454.35Q523.91 454.35 516.60 450.91Q509.30 447.46 505.35 440.91Q501.40 434.36 501.40 425.12L501.40 425.12Q501.40 415.54 505.68 409.16Q509.97 402.78 518.20 399.50Q526.43 396.22 538.02 396.22L538.02 396.22L562.38 396.22L562.38 408.32L537.35 408.32Q527.61 408.32 522.40 413.02Q517.19 417.73 517.19 425.12L517.19 425.12Q517.19 432.51 522.40 437.05Q527.61 441.58 537.35 441.58L537.35 441.58Q543.06 441.58 548.27 439.48Q553.48 437.38 556.92 432.43Q560.37 427.47 560.70 418.74L560.70 418.74L565.07 425.12Q564.23 434.70 560.45 441.16Q556.67 447.63 550.04 450.99Q543.40 454.35 533.99 454.35Z" fill="#F6F3EC" opacity="1"/><path d="M621.86 452L605.73 452L605.73 362.29L618.50 362.29L618.50 399.25L617.82 399.25Q617.82 379.59 626.48 370.44Q635.13 361.28 652.43 361.28L652.43 361.28L655.46 361.28L655.46 375.73L649.74 375.73Q636.30 375.73 629.08 382.87Q621.86 390.01 621.86 403.45L621.86 403.45L621.86 452Z" fill="#F6F3EC" opacity="1"/><path d="M741.64 452L728.87 452L728.87 425.12L726.18 425.12L726.18 394.04Q726.18 384.80 721.40 380.10Q716.61 375.39 707.37 375.39L707.37 375.39Q702.16 375.39 696.62 375.56Q691.07 375.73 686.03 375.90Q680.99 376.06 677.30 376.40L677.30 376.40L677.30 362.29Q680.99 361.95 685.11 361.70Q689.22 361.45 693.59 361.36Q697.96 361.28 701.99 361.28L701.99 361.28Q715.77 361.28 724.50 364.56Q733.24 367.83 737.44 375.22Q741.64 382.62 741.64 395.22L741.64 395.22L741.64 452ZM699.47 454.35L699.47 454.35Q689.39 454.35 682.08 450.91Q674.78 447.46 670.83 440.91Q666.88 434.36 666.88 425.12L666.88 425.12Q666.88 415.54 671.16 409.16Q675.45 402.78 683.68 399.50Q691.91 396.22 703.50 396.22L703.50 396.22L727.86 396.22L727.86 408.32L702.83 408.32Q693.09 408.32 687.88 413.02Q682.67 417.73 682.67 425.12L682.67 425.12Q682.67 432.51 687.88 437.05Q693.09 441.58 702.83 441.58L702.83 441.58Q708.54 441.58 713.75 439.48Q718.96 437.38 722.40 432.43Q725.85 427.47 726.18 418.74L726.18 418.74L730.55 425.12Q729.71 434.70 725.93 441.16Q722.15 447.63 715.52 450.99Q708.88 454.35 699.47 454.35Z" fill="#F6F3EC" opacity="1"/><path d="M808.67 455.02L808.67 455.02Q799.10 455.02 791.03 451.50Q782.97 447.97 777.00 441.58Q771.04 435.20 767.76 426.80Q764.49 418.40 764.49 408.66L764.49 408.66L764.49 405.63Q764.49 396.06 767.68 387.66Q770.87 379.26 776.67 372.87Q782.46 366.49 790.44 362.88Q798.42 359.26 808.17 359.26L808.17 359.26Q818.42 359.26 826.82 363.55Q835.22 367.83 840.59 376.90Q845.97 385.98 846.64 400.42L846.64 400.42L839.92 389.67L839.92 329.36L856.05 329.36L856.05 452L843.28 452L843.28 412.18L847.98 412.18Q847.31 427.47 841.60 436.96Q835.89 446.46 827.24 450.74Q818.58 455.02 808.67 455.02ZM810.86 440.91L810.86 440.91Q819.09 440.91 825.81 437.22Q832.53 433.52 836.56 426.55Q840.59 419.58 840.59 410.17L840.59 410.17L840.59 402.44Q840.59 393.20 836.48 386.73Q832.36 380.26 825.56 376.82Q818.75 373.38 810.69 373.38L810.69 373.38Q801.78 373.38 794.98 377.58Q788.18 381.78 784.40 389.34Q780.62 396.90 780.62 407.14L780.62 407.14Q780.62 417.39 784.48 425.04Q788.34 432.68 795.23 436.80Q802.12 440.91 810.86 440.91Z" fill="#F6F3EC" opacity="1"/><path d="M953.99 452L941.22 452L941.22 425.12L938.54 425.12L938.54 394.04Q938.54 384.80 933.75 380.10Q928.96 375.39 919.72 375.39L919.72 375.39Q914.51 375.39 908.97 375.56Q903.42 375.73 898.38 375.90Q893.34 376.06 889.65 376.40L889.65 376.40L889.65 362.29Q893.34 361.95 897.46 361.70Q901.58 361.45 905.94 361.36Q910.31 361.28 914.34 361.28L914.34 361.28Q928.12 361.28 936.86 364.56Q945.59 367.83 949.79 375.22Q953.99 382.62 953.99 395.22L953.99 395.22L953.99 452ZM911.82 454.35L911.82 454.35Q901.74 454.35 894.44 450.91Q887.13 447.46 883.18 440.91Q879.23 434.36 879.23 425.12L879.23 425.12Q879.23 415.54 883.52 409.16Q887.80 402.78 896.03 399.50Q904.26 396.22 915.86 396.22L915.86 396.22L940.22 396.22L940.22 408.32L915.18 408.32Q905.44 408.32 900.23 413.02Q895.02 417.73 895.02 425.12L895.02 425.12Q895.02 432.51 900.23 437.05Q905.44 441.58 915.18 441.58L915.18 441.58Q920.90 441.58 926.10 439.48Q931.31 437.38 934.76 432.43Q938.20 427.47 938.54 418.74L938.54 418.74L942.90 425.12Q942.06 434.70 938.28 441.16Q934.50 447.63 927.87 450.99Q921.23 454.35 911.82 454.35Z" fill="#F6F3EC" opacity="1"/><path d="M989.44 486.94L977.51 486.94L977.51 472.50L990.45 472.50Q996.16 472.50 1000.11 471.07Q1004.06 469.64 1006.66 466.28Q1009.26 462.92 1010.94 457.38L1010.94 457.38L1039.17 362.29L1054.96 362.29L1025.06 461.58Q1022.37 470.48 1017.50 476.11Q1012.62 481.74 1005.65 484.34Q998.68 486.94 989.44 486.94L989.44 486.94ZM1024.38 449.98L1004.90 449.98L1004.90 436.54L1024.38 436.54L1024.38 449.98ZM1018.34 449.98L1003.22 449.98L971.13 362.29L987.59 362.29L1018.34 449.98Z" fill="#F6F3EC" opacity="1"/>
      
</svg>