<?xml version="1.0" encoding="UTF-8"?>
<svg xmlns="http://www.w3.org/2000/svg" width="2200" height="920" viewBox="0 0 2200 920" fill="none">
  <rect width="2200" height="920" fill="#151D2A"/>
  
        <g transform="translate(156 350) scale(2.2916666666666665)">
    <rect width="96" height="96" rx="26" fill="#151D2A"/>
    
    <rect x="31" y="14" width="34" height="68" rx="17" stroke="rgba(246,243,236,.22)" stroke-width="2.6"/>
    <rect x="43" y="28" width="10" height="40" rx="5" fill="#FF9361"/>
  </g>
        <path d="M429.98 464L421.77 464L421.77 399.02Q421.77 389.56 426.67 385.00Q431.57 380.44 441.38 380.44L441.38 380.44L449.01 380.44L449.01 387.73L439.78 387.73Q434.99 387.73 432.48 390.24Q429.98 392.75 429.98 397.31L429.98 397.31L429.98 464ZM450.27 410.76L412.99 410.76L412.99 404.15L450.27 404.15L450.27 410.76Z" fill="#F6F3EC" opacity="1"/><path d="M506.36 464L499.52 464L499.52 445.87L498.15 445.87L498.15 424.44Q498.15 417.72 494.61 414.13Q491.08 410.53 483.67 410.53L483.67 410.53Q480.25 410.53 476.77 410.65Q473.30 410.76 470.16 410.93Q467.03 411.10 464.63 411.33L464.63 411.33L464.63 403.81Q467.14 403.58 469.76 403.35Q472.38 403.12 475.18 403.07Q477.97 403.01 480.59 403.01L480.59 403.01Q489.83 403.01 495.47 405.29Q501.11 407.57 503.73 412.42Q506.36 417.26 506.36 425.24L506.36 425.24L506.36 464ZM479.11 465.60L479.11 465.60Q472.73 465.60 467.82 463.32Q462.92 461.04 460.24 456.70Q457.56 452.37 457.56 446.22L457.56 446.22Q457.56 440.17 460.36 435.96Q463.15 431.74 468.45 429.51Q473.75 427.29 481.28 427.29L481.28 427.29L498.95 427.29L498.95 433.79L480.71 433.79Q473.52 433.79 469.70 437.27Q465.89 440.74 465.89 446.33L465.89 446.33Q465.89 452.03 469.88 455.39Q473.87 458.76 480.71 458.76L480.71 458.76Q484.92 458.76 488.80 457.22Q492.68 455.68 495.30 451.97Q497.92 448.27 498.15 441.77L498.15 441.77L500.66 445.30Q500.20 452.03 497.46 456.53Q494.73 461.04 490.05 463.32Q485.38 465.60 479.11 465.60Z" fill="#F6F3EC" opacity="1"/><path d="M536.22 464L527.67 464L527.67 403.69L534.51 403.69L534.51 428.89L533.83 428.89Q533.83 415.66 539.64 409.34Q545.46 403.01 557.88 403.01L557.88 403.01L559.82 403.01L559.82 410.76L556.29 410.76Q546.48 410.76 541.35 415.83Q536.22 420.91 536.22 430.71L536.22 430.71L536.22 464Z" fill="#F6F3EC" opacity="1"/><path d="M617.16 464L610.32 464L610.32 445.87L608.96 445.87L608.96 424.44Q608.96 417.72 605.42 414.13Q601.89 410.53 594.48 410.53L594.48 410.53Q591.06 410.53 587.58 410.65Q584.10 410.76 580.97 410.93Q577.83 411.10 575.44 411.33L575.44 411.33L575.44 403.81Q577.95 403.58 580.57 403.35Q583.19 403.12 585.99 403.07Q588.78 403.01 591.40 403.01L591.40 403.01Q600.63 403.01 606.28 405.29Q611.92 407.57 614.54 412.42Q617.16 417.26 617.16 425.24L617.16 425.24L617.16 464ZM589.92 465.60L589.92 465.60Q583.53 465.60 578.63 463.32Q573.73 461.04 571.05 456.70Q568.37 452.37 568.37 446.22L568.37 446.22Q568.37 440.17 571.16 435.96Q573.96 431.74 579.26 429.51Q584.56 427.29 592.08 427.29L592.08 427.29L609.75 427.29L609.75 433.79L591.51 433.79Q584.33 433.79 580.51 437.27Q576.69 440.74 576.69 446.33L576.69 446.33Q576.69 452.03 580.68 455.39Q584.67 458.76 591.51 458.76L591.51 458.76Q595.73 458.76 599.61 457.22Q603.48 455.68 606.11 451.97Q608.73 448.27 608.96 441.77L608.96 441.77L611.46 445.30Q611.01 452.03 608.27 456.53Q605.54 461.04 600.86 463.32Q596.19 465.60 589.92 465.60Z" fill="#F6F3EC" opacity="1"/><path d="M663.22 465.94L663.22 465.94Q656.61 465.94 651.19 463.49Q645.78 461.04 641.85 456.65Q637.91 452.26 635.80 446.62Q633.69 440.97 633.69 434.59L633.69 434.59L633.69 432.99Q633.69 426.84 635.75 421.19Q637.80 415.55 641.62 411.16Q645.44 406.77 650.85 404.21Q656.27 401.64 662.99 401.64L662.99 401.64Q670.63 401.64 676.44 404.95Q682.26 408.25 685.79 414.47Q689.33 420.68 689.55 429.69L689.55 429.69L685.79 422.62L685.79 380.78L694.34 380.78L694.34 464L687.50 464L687.50 437.21L690.24 437.21Q690.01 446.67 686.30 453.11Q682.60 459.55 676.62 462.75Q670.63 465.94 663.22 465.94ZM664.36 458.41L664.36 458.41Q670.52 458.41 675.48 455.68Q680.43 452.94 683.28 447.87Q686.13 442.80 686.13 436.18L686.13 436.18L686.13 430.71Q686.13 424.33 683.28 419.48Q680.43 414.64 675.48 411.90Q670.52 409.17 664.25 409.17L664.25 409.17Q657.52 409.17 652.56 412.42Q647.60 415.66 644.92 421.25Q642.24 426.84 642.24 433.79L642.24 433.79Q642.24 440.97 644.98 446.56Q647.72 452.14 652.73 455.28Q657.75 458.41 664.36 458.41Z" fill="#F6F3EC" opacity="1"/><path d="M760.01 464L753.17 464L753.17 445.87L751.80 445.87L751.80 424.44Q751.80 417.72 748.26 414.13Q744.73 410.53 737.32 410.53L737.32 410.53Q733.90 410.53 730.42 410.65Q726.95 410.76 723.81 410.93Q720.68 411.10 718.28 411.33L718.28 411.33L718.28 403.81Q720.79 403.58 723.41 403.35Q726.03 403.12 728.83 403.07Q731.62 403.01 734.24 403.01L734.24 403.01Q743.48 403.01 749.12 405.29Q754.76 407.57 757.38 412.42Q760.01 417.26 760.01 425.24L760.01 425.24L760.01 464ZM732.76 465.60L732.76 465.60Q726.38 465.60 721.47 463.32Q716.57 461.04 713.89 456.70Q711.21 452.37 711.21 446.22L711.21 446.22Q711.21 440.17 714.01 435.96Q716.80 431.74 722.10 429.51Q727.40 427.29 734.93 427.29L734.93 427.29L752.60 427.29L752.60 433.79L734.36 433.79Q727.17 433.79 723.36 437.27Q719.54 440.74 719.54 446.33L719.54 446.33Q719.54 452.03 723.53 455.39Q727.52 458.76 734.36 458.76L734.36 458.76Q738.57 458.76 742.45 457.22Q746.33 455.68 748.95 451.97Q751.57 448.27 751.80 441.77L751.80 441.77L754.31 445.30Q753.85 452.03 751.11 456.53Q748.38 461.04 743.70 463.32Q739.03 465.60 732.76 465.60Z" fill="#F6F3EC" opacity="1"/><path d="M783.26 487.48L775.97 487.48L775.97 479.85L783.72 479.85Q787.71 479.85 790.56 478.88Q793.41 477.91 795.35 475.51Q797.28 473.12 798.65 468.90L798.65 468.90L818.94 403.69L827.27 403.69L806.06 471.30Q804.24 477.11 801.05 480.70Q797.85 484.29 793.41 485.89Q788.96 487.48 783.26 487.48L783.26 487.48ZM806.40 462.52L795.57 462.52L795.57 455.34L806.40 455.34L806.40 462.52ZM802.53 462.52L794.55 462.52L772.66 403.69L781.44 403.69L802.53 462.52Z" fill="#F6F3EC" opacity="1"/>
      
</svg>