<?xml version="1.0" encoding="UTF-8"?>
<svg xmlns="http://www.w3.org/2000/svg" width="1200" height="900" viewBox="0 0 1200 900" fill="none">
  <rect width="1200" height="900" fill="#151D2A"/>
  
        <g transform="translate(490 110) scale(2.2916666666666665)">
    <rect width="96" height="96" rx="26" fill="#151D2A"/>
    <rect class="led-aura" x="32" y="15" width="32" height="66" rx="16" fill="#FF9361" opacity="0.18"/>
    <rect x="31" y="14" width="34" height="68" rx="17" stroke="rgba(246,243,236,.22)" stroke-width="2.6"/>
    <rect x="43" y="28" width="10" height="40" rx="5" fill="#FF9361"/>
  </g>
        <path d="M416.57 540L408.65 540L408.65 477.30Q408.65 468.17 413.38 463.77Q418.12 459.37 427.57 459.37L427.57 459.37L434.94 459.37L434.94 466.41L426.03 466.41Q421.41 466.41 419.00 468.83Q416.57 471.25 416.57 475.65L416.57 475.65L416.57 540ZM436.15 488.63L400.19 488.63L400.19 482.25L436.15 482.25L436.15 488.63Z" fill="#F6F3EC" opacity="1"/><path d="M490.27 540L483.67 540L483.67 522.51L482.35 522.51L482.35 501.83Q482.35 495.34 478.94 491.88Q475.53 488.41 468.38 488.41L468.38 488.41Q465.08 488.41 461.73 488.52Q458.38 488.63 455.35 488.80Q452.32 488.96 450.01 489.18L450.01 489.18L450.01 481.92Q452.44 481.70 454.96 481.48Q457.50 481.26 460.19 481.20Q462.88 481.15 465.41 481.15L465.41 481.15Q474.32 481.15 479.77 483.35Q485.21 485.55 487.75 490.23Q490.27 494.90 490.27 502.60L490.27 502.60L490.27 540ZM463.98 541.54L463.98 541.54Q457.82 541.54 453.09 539.34Q448.36 537.14 445.78 532.96Q443.19 528.78 443.19 522.84L443.19 522.84Q443.19 517.01 445.89 512.94Q448.58 508.87 453.70 506.73Q458.81 504.58 466.07 504.58L466.07 504.58L483.13 504.58L483.13 510.85L465.52 510.85Q458.59 510.85 454.91 514.21Q451.22 517.56 451.22 522.95L451.22 522.95Q451.22 528.45 455.07 531.70Q458.92 534.94 465.52 534.94L465.52 534.94Q469.59 534.94 473.33 533.46Q477.07 531.97 479.60 528.39Q482.13 524.82 482.35 518.55L482.35 518.55L484.77 521.96Q484.33 528.45 481.69 532.79Q479.05 537.14 474.54 539.34Q470.03 541.54 463.98 541.54Z" fill="#F6F3EC" opacity="1"/><path d="M519.09 540L510.84 540L510.84 481.81L517.44 481.81L517.44 506.12L516.78 506.12Q516.78 493.36 522.39 487.25Q528.00 481.15 540.00 481.15L540.00 481.15L541.87 481.15L541.87 488.63L538.45 488.63Q529.00 488.63 524.04 493.52Q519.09 498.42 519.09 507.88L519.09 507.88L519.09 540Z" fill="#F6F3EC" opacity="1"/><path d="M597.19 540L590.60 540L590.60 522.51L589.27 522.51L589.27 501.83Q589.27 495.34 585.87 491.88Q582.46 488.41 575.30 488.41L575.30 488.41Q572.00 488.41 568.65 488.52Q565.29 488.63 562.27 488.80Q559.25 488.96 556.93 489.18L556.93 489.18L556.93 481.92Q559.36 481.70 561.88 481.48Q564.41 481.26 567.11 481.20Q569.80 481.15 572.34 481.15L572.34 481.15Q581.25 481.15 586.69 483.35Q592.13 485.55 594.66 490.23Q597.19 494.90 597.19 502.60L597.19 502.60L597.19 540ZM570.90 541.54L570.90 541.54Q564.75 541.54 560.01 539.34Q555.28 537.14 552.70 532.96Q550.12 528.78 550.12 522.84L550.12 522.84Q550.12 517.01 552.81 512.94Q555.50 508.87 560.62 506.73Q565.74 504.58 573.00 504.58L573.00 504.58L590.04 504.58L590.04 510.85L572.45 510.85Q565.51 510.85 561.83 514.21Q558.14 517.56 558.14 522.95L558.14 522.95Q558.14 528.45 562.00 531.70Q565.85 534.94 572.45 534.94L572.45 534.94Q576.51 534.94 580.25 533.46Q584.00 531.97 586.52 528.39Q589.05 524.82 589.27 518.55L589.27 518.55L591.69 521.96Q591.25 528.45 588.62 532.79Q585.98 537.14 581.47 539.34Q576.96 541.54 570.90 541.54Z" fill="#F6F3EC" opacity="1"/><path d="M641.63 541.87L641.63 541.87Q635.25 541.87 630.03 539.50Q624.81 537.14 621.01 532.90Q617.22 528.67 615.18 523.23Q613.14 517.78 613.14 511.62L613.14 511.62L613.14 510.08Q613.14 504.14 615.13 498.69Q617.11 493.25 620.79 489.01Q624.48 484.78 629.70 482.31Q634.93 479.83 641.42 479.83L641.42 479.83Q648.79 479.83 654.39 483.02Q660.00 486.21 663.42 492.20Q666.83 498.20 667.05 506.89L667.05 506.89L663.42 500.07L663.42 459.70L671.67 459.70L671.67 540L665.07 540L665.07 514.15L667.71 514.15Q667.49 523.28 663.91 529.50Q660.34 535.71 654.56 538.79Q648.79 541.87 641.63 541.87ZM642.74 534.61L642.74 534.61Q648.68 534.61 653.46 531.97Q658.25 529.33 661.00 524.43Q663.75 519.54 663.75 513.16L663.75 513.16L663.75 507.88Q663.75 501.72 661.00 497.05Q658.25 492.37 653.46 489.73Q648.68 487.09 642.63 487.09L642.63 487.09Q636.13 487.09 631.35 490.23Q626.57 493.36 623.98 498.75Q621.39 504.14 621.39 510.85L621.39 510.85Q621.39 517.78 624.04 523.17Q626.68 528.56 631.51 531.59Q636.36 534.61 642.74 534.61Z" fill="#F6F3EC" opacity="1"/><path d="M735.03 540L728.43 540L728.43 522.51L727.11 522.51L727.11 501.83Q727.11 495.34 723.70 491.88Q720.29 488.41 713.13 488.41L713.13 488.41Q709.84 488.41 706.48 488.52Q703.13 488.63 700.10 488.80Q697.08 488.96 694.76 489.18L694.76 489.18L694.76 481.92Q697.19 481.70 699.72 481.48Q702.25 481.26 704.94 481.20Q707.63 481.15 710.17 481.15L710.17 481.15Q719.08 481.15 724.52 483.35Q729.97 485.55 732.50 490.23Q735.03 494.90 735.03 502.60L735.03 502.60L735.03 540ZM708.74 541.54L708.74 541.54Q702.58 541.54 697.85 539.34Q693.12 537.14 690.53 532.96Q687.95 528.78 687.95 522.84L687.95 522.84Q687.95 517.01 690.64 512.94Q693.34 508.87 698.45 506.73Q703.57 504.58 710.83 504.58L710.83 504.58L727.88 504.58L727.88 510.85L710.28 510.85Q703.35 510.85 699.66 514.21Q695.98 517.56 695.98 522.95L695.98 522.95Q695.98 528.45 699.83 531.70Q703.68 534.94 710.28 534.94L710.28 534.94Q714.35 534.94 718.09 533.46Q721.83 531.97 724.36 528.39Q726.88 524.82 727.11 518.55L727.11 518.55L729.53 521.96Q729.09 528.45 726.45 532.79Q723.81 537.14 719.30 539.34Q714.79 541.54 708.74 541.54Z" fill="#F6F3EC" opacity="1"/><path d="M757.47 562.66L750.43 562.66L750.43 555.29L757.91 555.29Q761.76 555.29 764.51 554.36Q767.26 553.42 769.13 551.11Q771.00 548.80 772.32 544.73L772.32 544.73L791.90 481.81L799.93 481.81L779.47 547.04Q777.71 552.65 774.63 556.12Q771.55 559.58 767.26 561.12Q762.97 562.66 757.47 562.66L757.47 562.66ZM779.80 538.57L769.35 538.57L769.35 531.64L779.80 531.64L779.80 538.57ZM776.06 538.57L768.36 538.57L747.24 481.81L755.71 481.81L776.06 538.57Z" fill="#F6F3EC" opacity="1"/>
        <path d="M258.53 590L250.96 590L250.96 566.24L258.53 566.24Q258.83 566.24 259.71 566.26Q260.59 566.27 261.42 566.37L261.42 566.37Q264.24 566.74 266.19 568.38Q268.15 570.02 269.16 572.56Q270.16 575.10 270.16 578.12L270.16 578.12Q270.16 581.14 269.16 583.68Q268.15 586.22 266.19 587.86Q264.24 589.50 261.42 589.87L261.42 589.87Q260.61 589.97 259.72 589.98Q258.83 590 258.53 590L258.53 590ZM255.00 569.99L255.00 586.25L258.53 586.25Q259.02 586.25 259.79 586.22Q260.56 586.19 261.15 586.07L261.15 586.07Q262.84 585.76 263.89 584.57Q264.95 583.38 265.45 581.68Q265.95 579.98 265.95 578.12L265.95 578.12Q265.95 576.19 265.44 574.49Q264.93 572.79 263.87 571.64Q262.80 570.48 261.15 570.17L261.15 570.17Q260.56 570.03 259.79 570.01Q259.02 569.99 258.53 569.99L258.53 569.99L255.00 569.99Z" fill="#F6F3EC" opacity="0.72"/><path d="M288.38 590L284.40 590L284.40 566.24L288.38 566.24L288.38 590Z" fill="#F6F3EC" opacity="0.72"/><path d="M312.12 590.50L312.12 590.50Q309.52 590.50 307.43 589.59Q305.34 588.68 304.00 586.99Q302.65 585.30 302.29 582.97L302.29 582.97L306.41 582.34Q306.94 584.46 308.58 585.61Q310.23 586.77 312.37 586.77L312.37 586.77Q313.64 586.77 314.76 586.37Q315.89 585.97 316.59 585.22Q317.29 584.46 317.29 583.35L317.29 583.35Q317.29 582.86 317.12 582.43Q316.96 582.01 316.64 581.68Q316.31 581.35 315.81 581.08Q315.31 580.81 314.65 580.61L314.65 580.61L308.51 578.80Q307.72 578.57 306.80 578.18Q305.89 577.79 305.07 577.11Q304.25 576.42 303.73 575.36Q303.21 574.29 303.21 572.72L303.21 572.72Q303.21 570.43 304.38 568.87Q305.54 567.31 307.51 566.54Q309.48 565.76 311.89 565.78L311.89 565.78Q314.33 565.79 316.25 566.61Q318.16 567.43 319.45 568.98Q320.74 570.53 321.26 572.72L321.26 572.72L316.99 573.47Q316.73 572.21 315.98 571.33Q315.23 570.45 314.14 569.99Q313.06 569.52 311.84 569.49L311.84 569.49Q310.66 569.47 309.64 569.85Q308.63 570.22 308.01 570.91Q307.39 571.60 307.39 572.53L307.39 572.53Q307.39 573.40 307.92 573.95Q308.44 574.51 309.23 574.83Q310.01 575.15 310.82 575.36L310.82 575.36L315.08 576.55Q315.95 576.78 317.04 577.18Q318.13 577.58 319.14 578.28Q320.14 578.99 320.79 580.15Q321.45 581.30 321.45 583.09L321.45 583.09Q321.45 584.93 320.68 586.33Q319.91 587.72 318.61 588.65Q317.30 589.57 315.63 590.03Q313.96 590.50 312.12 590.50Z" fill="#F6F3EC" opacity="0.72"/><path d="M345.08 590.50L345.08 590.50Q341.51 590.50 338.97 588.94Q336.43 587.38 335.07 584.59Q333.71 581.80 333.71 578.12L333.71 578.12Q333.71 574.44 335.07 571.65Q336.43 568.86 338.97 567.30Q341.51 565.75 345.08 565.75L345.08 565.75Q349.18 565.75 351.92 567.80Q354.66 569.85 355.77 573.34L355.77 573.34L351.76 574.44Q351.06 572.11 349.40 570.80Q347.73 569.49 345.08 569.49L345.08 569.49Q342.68 569.49 341.09 570.56Q339.50 571.64 338.70 573.57Q337.90 575.51 337.88 578.12L337.88 578.12Q337.88 580.73 338.68 582.67Q339.48 584.60 341.08 585.68Q342.68 586.75 345.08 586.75L345.08 586.75Q347.73 586.75 349.40 585.43Q351.06 584.11 351.76 581.80L351.76 581.80L355.77 582.90Q354.66 586.39 351.92 588.44Q349.18 590.50 345.08 590.50Z" fill="#F6F3EC" opacity="0.72"/><path d="M379.45 590.50L379.45 590.50Q375.88 590.50 373.34 588.94Q370.80 587.38 369.44 584.59Q368.08 581.80 368.08 578.12L368.08 578.12Q368.08 574.44 369.44 571.65Q370.80 568.86 373.34 567.30Q375.88 565.75 379.45 565.75L379.45 565.75Q383.01 565.75 385.56 567.30Q388.11 568.86 389.47 571.65Q390.83 574.44 390.83 578.12L390.83 578.12Q390.83 581.80 389.47 584.59Q388.11 587.38 385.56 588.94Q383.01 590.50 379.45 590.50ZM379.45 586.75L379.45 586.75Q381.84 586.77 383.43 585.69Q385.02 584.62 385.82 582.67Q386.62 580.73 386.62 578.12L386.62 578.12Q386.62 575.51 385.82 573.59Q385.02 571.67 383.43 570.60Q381.84 569.52 379.45 569.49L379.45 569.49Q377.05 569.47 375.47 570.55Q373.89 571.62 373.08 573.57Q372.28 575.51 372.28 578.12L372.28 578.12Q372.28 580.73 373.08 582.65Q373.87 584.57 375.46 585.64Q377.05 586.72 379.45 586.75Z" fill="#F6F3EC" opacity="0.72"/><path d="M408.16 590L404.13 590L404.13 566.24L408.16 566.24L419.18 582.99L419.18 566.24L423.20 566.24L423.20 590L419.18 590L408.16 573.25L408.16 590Z" fill="#F6F3EC" opacity="0.72"/><path d="M441.85 590L437.82 590L437.82 566.24L441.85 566.24L452.87 582.99L452.87 566.24L456.90 566.24L456.90 590L452.87 590L441.85 573.25L441.85 590Z" fill="#F6F3EC" opacity="0.72"/><path d="M486.86 590L471.52 590L471.52 566.24L486.86 566.24L486.86 569.97L475.50 569.97L475.50 575.83L484.88 575.83L484.88 579.56L475.50 579.56L475.50 586.27L486.86 586.27L486.86 590Z" fill="#F6F3EC" opacity="0.72"/><path d="M510.87 590.50L510.87 590.50Q507.31 590.50 504.77 588.94Q502.23 587.38 500.87 584.59Q499.50 581.80 499.50 578.12L499.50 578.12Q499.50 574.44 500.87 571.65Q502.23 568.86 504.77 567.30Q507.31 565.75 510.87 565.75L510.87 565.75Q514.98 565.75 517.72 567.80Q520.46 569.85 521.56 573.34L521.56 573.34L517.55 574.44Q516.86 572.11 515.20 570.80Q513.53 569.49 510.87 569.49L510.87 569.49Q508.48 569.49 506.89 570.56Q505.30 571.64 504.50 573.57Q503.69 575.51 503.68 578.12L503.68 578.12Q503.68 580.73 504.48 582.67Q505.28 584.60 506.88 585.68Q508.48 586.75 510.87 586.75L510.87 586.75Q513.53 586.75 515.20 585.43Q516.86 584.11 517.55 581.80L517.55 581.80L521.56 582.90Q520.46 586.39 517.72 588.44Q514.98 590.50 510.87 590.50Z" fill="#F6F3EC" opacity="0.72"/><path d="M544.88 590L540.90 590L540.90 569.97L533.21 569.97L533.21 566.24L552.57 566.24L552.57 569.97L544.88 569.97L544.88 590Z" fill="#F6F3EC" opacity="0.72"/><path d="M596.11 590L592.14 590L592.14 569.97L584.45 569.97L584.45 566.24L603.80 566.24L603.80 569.97L596.11 569.97L596.11 590Z" fill="#F6F3EC" opacity="0.72"/><path d="M626.49 590.50L626.49 590.50Q622.93 590.50 620.39 588.94Q617.85 587.38 616.48 584.59Q615.12 581.80 615.12 578.12L615.12 578.12Q615.12 574.44 616.48 571.65Q617.85 568.86 620.39 567.30Q622.93 565.75 626.49 565.75L626.49 565.75Q630.06 565.75 632.61 567.30Q635.15 568.86 636.52 571.65Q637.88 574.44 637.88 578.12L637.88 578.12Q637.88 581.80 636.52 584.59Q635.15 587.38 632.61 588.94Q630.06 590.50 626.49 590.50ZM626.49 586.75L626.49 586.75Q628.88 586.77 630.48 585.69Q632.07 584.62 632.87 582.67Q633.67 580.73 633.67 578.12L633.67 578.12Q633.67 575.51 632.87 573.59Q632.07 571.67 630.48 570.60Q628.88 569.52 626.49 569.49L626.49 569.49Q624.10 569.47 622.52 570.55Q620.93 571.62 620.13 573.57Q619.33 575.51 619.33 578.12L619.33 578.12Q619.33 580.73 620.12 582.65Q620.91 584.57 622.51 585.64Q624.10 586.72 626.49 586.75Z" fill="#F6F3EC" opacity="0.72"/><path d="M676.37 590L672.40 590L672.40 566.24L682.21 566.24Q682.56 566.24 683.11 566.26Q683.65 566.29 684.11 566.37L684.11 566.37Q686.17 566.69 687.52 567.74Q688.86 568.80 689.52 570.41Q690.17 572.01 690.17 573.98L690.17 573.98Q690.17 576.88 688.70 578.97Q687.23 581.06 684.19 581.55L684.19 581.55L682.49 581.70L676.37 581.70L676.37 590ZM690.55 590L686.04 590L681.36 580.33L685.40 579.44L690.55 590ZM676.37 569.97L676.37 577.99L682.05 577.99Q682.38 577.99 682.79 577.96Q683.20 577.92 683.55 577.82L683.55 577.82Q684.54 577.58 685.11 576.95Q685.68 576.32 685.92 575.53Q686.16 574.74 686.16 573.98L686.16 573.98Q686.16 573.22 685.92 572.42Q685.68 571.62 685.11 570.99Q684.54 570.37 683.55 570.12L683.55 570.12Q683.20 570.02 682.79 569.99Q682.38 569.97 682.05 569.97L682.05 569.97L676.37 569.97Z" fill="#F6F3EC" opacity="0.72"/><path d="M719.52 590L704.18 590L704.18 566.24L719.52 566.24L719.52 569.97L708.15 569.97L708.15 575.83L717.54 575.83L717.54 579.56L708.15 579.56L708.15 586.27L719.52 586.27L719.52 590Z" fill="#F6F3EC" opacity="0.72"/><path d="M743.53 590.50L743.53 590.50Q739.97 590.50 737.43 588.94Q734.88 587.38 733.52 584.59Q732.16 581.80 732.16 578.12L732.16 578.12Q732.16 574.44 733.52 571.65Q734.88 568.86 737.43 567.30Q739.97 565.75 743.53 565.75L743.53 565.75Q747.64 565.75 750.38 567.80Q753.12 569.85 754.22 573.34L754.22 573.34L750.21 574.44Q749.52 572.11 747.85 570.80Q746.19 569.49 743.53 569.49L743.53 569.49Q741.14 569.49 739.55 570.56Q737.95 571.64 737.15 573.57Q736.35 575.51 736.34 578.12L736.34 578.12Q736.34 580.73 737.14 582.67Q737.94 584.60 739.54 585.68Q741.14 586.75 743.53 586.75L743.53 586.75Q746.19 586.75 747.85 585.43Q749.52 584.11 750.21 581.80L750.21 581.80L754.22 582.90Q753.12 586.39 750.38 588.44Q747.64 590.50 743.53 590.50Z" fill="#F6F3EC" opacity="0.72"/><path d="M777.90 590.50L777.90 590.50Q774.34 590.50 771.80 588.94Q769.25 587.38 767.89 584.59Q766.53 581.80 766.53 578.12L766.53 578.12Q766.53 574.44 767.89 571.65Q769.25 568.86 771.80 567.30Q774.34 565.75 777.90 565.75L777.90 565.75Q781.46 565.75 784.01 567.30Q786.56 568.86 787.92 571.65Q789.29 574.44 789.29 578.12L789.29 578.12Q789.29 581.80 787.92 584.59Q786.56 587.38 784.01 588.94Q781.46 590.50 777.90 590.50ZM777.90 586.75L777.90 586.75Q780.29 586.77 781.89 585.69Q783.48 584.62 784.28 582.67Q785.08 580.73 785.08 578.12L785.08 578.12Q785.08 575.51 784.28 573.59Q783.48 571.67 781.89 570.60Q780.29 569.52 777.90 569.49L777.90 569.49Q775.51 569.47 773.92 570.55Q772.34 571.62 771.54 573.57Q770.74 575.51 770.74 578.12L770.74 578.12Q770.74 580.73 771.53 582.65Q772.32 584.57 773.92 585.64Q775.51 586.72 777.90 586.75Z" fill="#F6F3EC" opacity="0.72"/><path d="M806.61 590L802.59 590L802.59 566.24L806.61 566.24L817.63 582.99L817.63 566.24L821.66 566.24L821.66 590L817.63 590L806.61 573.25L806.61 590Z" fill="#F6F3EC" opacity="0.72"/><path d="M840.31 590L836.28 590L836.28 566.24L840.31 566.24L851.33 582.99L851.33 566.24L855.35 566.24L855.35 590L851.33 590L840.31 573.25L840.31 590Z" fill="#F6F3EC" opacity="0.72"/><path d="M885.32 590L869.97 590L869.97 566.24L885.32 566.24L885.32 569.97L873.95 569.97L873.95 575.83L883.34 575.83L883.34 579.56L873.95 579.56L873.95 586.27L885.32 586.27L885.32 590Z" fill="#F6F3EC" opacity="0.72"/><path d="M909.33 590.50L909.33 590.50Q905.76 590.50 903.22 588.94Q900.68 587.38 899.32 584.59Q897.96 581.80 897.96 578.12L897.96 578.12Q897.96 574.44 899.32 571.65Q900.68 568.86 903.22 567.30Q905.76 565.75 909.33 565.75L909.33 565.75Q913.44 565.75 916.17 567.80Q918.91 569.85 920.02 573.34L920.02 573.34L916.01 574.44Q915.32 572.11 913.65 570.80Q911.98 569.49 909.33 569.49L909.33 569.49Q906.93 569.49 905.34 570.56Q903.75 571.64 902.95 573.57Q902.15 575.51 902.13 578.12L902.13 578.12Q902.13 580.73 902.93 582.67Q903.73 584.60 905.33 585.68Q906.93 586.75 909.33 586.75L909.33 586.75Q911.98 586.75 913.65 585.43Q915.32 584.11 916.01 581.80L916.01 581.80L920.02 582.90Q918.91 586.39 916.17 588.44Q913.44 590.50 909.33 590.50Z" fill="#F6F3EC" opacity="0.72"/><path d="M943.33 590L939.36 590L939.36 569.97L931.67 569.97L931.67 566.24L951.02 566.24L951.02 569.97L943.33 569.97L943.33 590Z" fill="#F6F3EC" opacity="0.72"/>
      
</svg>