<?xml version="1.0" encoding="UTF-8"?>
<svg xmlns="http://www.w3.org/2000/svg" width="2200" height="780" viewBox="0 0 2200 780" fill="none">
  
  
        <path d="M816.52 386L804.28 386L804.28 289.10Q804.28 274.99 811.60 268.19Q818.90 261.39 833.52 261.39L833.52 261.39L844.91 261.39L844.91 272.27L831.14 272.27Q824.00 272.27 820.26 276.01Q816.52 279.75 816.52 286.55L816.52 286.55L816.52 386ZM846.78 306.61L791.20 306.61L791.20 296.75L846.78 296.75L846.78 306.61Z" fill="#151D2A" opacity="1"/><path d="M930.42 386L920.23 386L920.23 358.97L918.19 358.97L918.19 327.01Q918.19 316.98 912.91 311.63Q907.64 306.27 896.60 306.27L896.60 306.27Q891.50 306.27 886.31 306.44Q881.13 306.61 876.45 306.87Q871.77 307.12 868.21 307.46L868.21 307.46L868.21 296.24Q871.95 295.90 875.86 295.56Q879.76 295.22 883.93 295.13Q888.10 295.05 892.00 295.05L892.00 295.05Q905.77 295.05 914.19 298.45Q922.61 301.85 926.51 309.07Q930.42 316.30 930.42 328.20L930.42 328.20L930.42 386ZM889.79 388.38L889.79 388.38Q880.27 388.38 872.97 384.98Q865.65 381.58 861.66 375.12Q857.66 368.66 857.66 359.48L857.66 359.48Q857.66 350.47 861.83 344.18Q866.00 337.89 873.90 334.57Q881.81 331.26 893.02 331.26L893.02 331.26L919.38 331.26L919.38 340.95L892.17 340.95Q881.47 340.95 875.77 346.13Q870.08 351.32 870.08 359.65L870.08 359.65Q870.08 368.15 876.02 373.17Q881.98 378.18 892.17 378.18L892.17 378.18Q898.47 378.18 904.25 375.88Q910.02 373.59 913.93 368.06Q917.85 362.54 918.19 352.85L918.19 352.85L921.92 358.12Q921.25 368.15 917.16 374.87Q913.09 381.58 906.12 384.98Q899.14 388.38 889.79 388.38Z" fill="#151D2A" opacity="1"/><path d="M974.97 386L962.22 386L962.22 296.07L972.42 296.07L972.42 333.64L971.39 333.64Q971.39 313.92 980.07 304.49Q988.74 295.05 1007.26 295.05L1007.26 295.05L1010.15 295.05L1010.15 306.61L1004.88 306.61Q990.26 306.61 982.62 314.18Q974.97 321.74 974.97 336.36L974.97 336.36L974.97 386Z" fill="#151D2A" opacity="1"/><path d="M1095.66 386L1085.46 386L1085.46 358.97L1083.42 358.97L1083.42 327.01Q1083.42 316.98 1078.15 311.63Q1072.88 306.27 1061.84 306.27L1061.84 306.27Q1056.74 306.27 1051.55 306.44Q1046.37 306.61 1041.69 306.87Q1037.02 307.12 1033.44 307.46L1033.44 307.46L1033.44 296.24Q1037.18 295.90 1041.10 295.56Q1045.01 295.22 1049.17 295.13Q1053.34 295.05 1057.25 295.05L1057.25 295.05Q1071.02 295.05 1079.43 298.45Q1087.85 301.85 1091.76 309.07Q1095.66 316.30 1095.66 328.20L1095.66 328.20L1095.66 386ZM1055.04 388.38L1055.04 388.38Q1045.52 388.38 1038.20 384.98Q1030.89 381.58 1026.90 375.12Q1022.90 368.66 1022.90 359.48L1022.90 359.48Q1022.90 350.47 1027.07 344.18Q1031.24 337.89 1039.14 334.57Q1047.05 331.26 1058.27 331.26L1058.27 331.26L1084.62 331.26L1084.62 340.95L1057.41 340.95Q1046.70 340.95 1041.01 346.13Q1035.32 351.32 1035.32 359.65L1035.32 359.65Q1035.32 368.15 1041.27 373.17Q1047.21 378.18 1057.41 378.18L1057.41 378.18Q1063.70 378.18 1069.49 375.88Q1075.27 373.59 1079.17 368.06Q1083.09 362.54 1083.42 352.85L1083.42 352.85L1087.16 358.12Q1086.49 368.15 1082.40 374.87Q1078.33 381.58 1071.36 384.98Q1064.38 388.38 1055.04 388.38Z" fill="#151D2A" opacity="1"/><path d="M1164.35 388.89L1164.35 388.89Q1154.48 388.89 1146.41 385.24Q1138.33 381.58 1132.47 375.04Q1126.61 368.49 1123.46 360.07Q1120.31 351.66 1120.31 342.14L1120.31 342.14L1120.31 339.76Q1120.31 330.58 1123.38 322.16Q1126.43 313.75 1132.13 307.20Q1137.82 300.66 1145.90 296.83Q1153.97 293.01 1164.00 293.01L1164.00 293.01Q1175.39 293.01 1184.06 297.94Q1192.73 302.87 1198.00 312.13Q1203.27 321.40 1203.62 334.83L1203.62 334.83L1198.00 324.29L1198.00 261.90L1210.75 261.90L1210.75 386L1200.55 386L1200.55 346.05L1204.63 346.05Q1204.29 360.16 1198.77 369.76Q1193.24 379.37 1184.32 384.13Q1175.39 388.89 1164.35 388.89ZM1166.04 377.67L1166.04 377.67Q1175.22 377.67 1182.62 373.59Q1190.01 369.51 1194.26 361.94Q1198.51 354.38 1198.51 344.52L1198.51 344.52L1198.51 336.36Q1198.51 326.84 1194.26 319.62Q1190.01 312.39 1182.62 308.31Q1175.22 304.23 1165.88 304.23L1165.88 304.23Q1155.85 304.23 1148.45 309.07Q1141.05 313.92 1137.06 322.25Q1133.06 330.58 1133.06 340.95L1133.06 340.95Q1133.06 351.66 1137.14 359.99Q1141.22 368.32 1148.70 373.00Q1156.18 377.67 1166.04 377.67Z" fill="#151D2A" opacity="1"/><path d="M1308.67 386L1298.47 386L1298.47 358.97L1296.43 358.97L1296.43 327.01Q1296.43 316.98 1291.16 311.63Q1285.89 306.27 1274.84 306.27L1274.84 306.27Q1269.74 306.27 1264.56 306.44Q1259.38 306.61 1254.70 306.87Q1250.02 307.12 1246.45 307.46L1246.45 307.46L1246.45 296.24Q1250.19 295.90 1254.10 295.56Q1258.01 295.22 1262.18 295.13Q1266.34 295.05 1270.25 295.05L1270.25 295.05Q1284.02 295.05 1292.44 298.45Q1300.85 301.85 1304.76 309.07Q1308.67 316.30 1308.67 328.20L1308.67 328.20L1308.67 386ZM1268.04 388.38L1268.04 388.38Q1258.52 388.38 1251.21 384.98Q1243.90 381.58 1239.91 375.12Q1235.91 368.66 1235.91 359.48L1235.91 359.48Q1235.91 350.47 1240.08 344.18Q1244.24 337.89 1252.15 334.57Q1260.05 331.26 1271.27 331.26L1271.27 331.26L1297.63 331.26L1297.63 340.95L1270.42 340.95Q1259.71 340.95 1254.02 346.13Q1248.32 351.32 1248.32 359.65L1248.32 359.65Q1248.32 368.15 1254.27 373.17Q1260.22 378.18 1270.42 378.18L1270.42 378.18Q1276.71 378.18 1282.49 375.88Q1288.27 373.59 1292.18 368.06Q1296.09 362.54 1296.43 352.85L1296.43 352.85L1300.17 358.12Q1299.49 368.15 1295.41 374.87Q1291.33 381.58 1284.36 384.98Q1277.39 388.38 1268.04 388.38Z" fill="#151D2A" opacity="1"/><path d="M1343.36 421.02L1332.47 421.02L1332.47 409.63L1344.03 409.63Q1349.98 409.63 1354.23 408.19Q1358.48 406.74 1361.38 403.17Q1364.26 399.60 1366.30 393.31L1366.30 393.31L1396.56 296.07L1408.97 296.07L1377.36 396.88Q1374.63 405.55 1369.88 410.90Q1365.12 416.26 1358.48 418.64Q1351.86 421.02 1343.36 421.02L1343.36 421.02ZM1377.87 383.79L1361.71 383.79L1361.71 373.08L1377.87 373.08L1377.87 383.79ZM1372.08 383.79L1360.18 383.79L1327.54 296.07L1340.63 296.07L1372.08 383.79Z" fill="#151D2A" opacity="1"/>
        
      
</svg>