<?xml version="1.0" encoding="UTF-8"?>
<svg xmlns="http://www.w3.org/2000/svg" width="2200" height="780" viewBox="0 0 2200 780" fill="none">
  
  
        <path d="M816.52 386L804.28 386L804.28 289.10Q804.28 274.99 811.60 268.19Q818.90 261.39 833.52 261.39L833.52 261.39L844.91 261.39L844.91 272.27L831.14 272.27Q824.00 272.27 820.26 276.01Q816.52 279.75 816.52 286.55L816.52 286.55L816.52 386ZM846.78 306.61L791.20 306.61L791.20 296.75L846.78 296.75L846.78 306.61Z" fill="#F6F3EC" opacity="1"/><path d="M930.42 386L920.23 386L920.23 358.97L918.19 358.97L918.19 327.01Q918.19 316.98 912.91 311.63Q907.64 306.27 896.60 306.27L896.60 306.27Q891.50 306.27 886.31 306.44Q881.13 306.61 876.45 306.87Q871.77 307.12 868.21 307.46L868.21 307.46L868.21 296.24Q871.95 295.90 875.86 295.56Q879.76 295.22 883.93 295.13Q888.10 295.05 892.00 295.05L892.00 295.05Q905.77 295.05 914.19 298.45Q922.61 301.85 926.51 309.07Q930.42 316.30 930.42 328.20L930.42 328.20L930.42 386ZM889.79 388.38L889.79 388.38Q880.27 388.38 872.97 384.98Q865.65 381.58 861.66 375.12Q857.66 368.66 857.66 359.48L857.66 359.48Q857.66 350.47 861.83 344.18Q866.00 337.89 873.90 334.57Q881.81 331.26 893.02 331.26L893.02 331.26L919.38 331.26L919.38 340.95L892.17 340.95Q881.47 340.95 875.77 346.13Q870.08 351.32 870.08 359.65L870.08 359.65Q870.08 368.15 876.02 373.17Q881.98 378.18 892.17 378.18L892.17 378.18Q898.47 378.18 904.25 375.88Q910.02 373.59 913.93 368.06Q917.85 362.54 918.19 352.85L918.19 352.85L921.92 358.12Q921.25 368.15 917.16 374.87Q913.09 381.58 906.12 384.98Q899.14 388.38 889.79 388.38Z" fill="#F6F3EC" opacity="1"/><path d="M974.97 386L962.22 386L962.22 296.07L972.42 296.07L972.42 333.64L971.39 333.64Q971.39 313.92 980.07 304.49Q988.74 295.05 1007.26 295.05L1007.26 295.05L1010.15 295.05L1010.15 306.61L1004.88 306.61Q990.26 306.61 982.62 314.18Q974.97 321.74 974.97 336.36L974.97 336.36L974.97 386Z" fill="#F6F3EC" opacity="1"/><path d="M1095.66 386L1085.46 386L1085.46 358.97L1083.42 358.97L1083.42 327.01Q1083.42 316.98 1078.15 311.63Q1072.88 306.27 1061.84 306.27L1061.84 306.27Q1056.74 306.27 1051.55 306.44Q1046.37 306.61 1041.69 306.87Q1037.02 307.12 1033.44 307.46L1033.44 307.46L1033.44 296.24Q1037.18 295.90 1041.10 295.56Q1045.01 295.22 1049.17 295.13Q1053.34 295.05 1057.25 295.05L1057.25 295.05Q1071.02 295.05 1079.43 298.45Q1087.85 301.85 1091.76 309.07Q1095.66 316.30 1095.66 328.20L1095.66 328.20L1095.66 386ZM1055.04 388.38L1055.04 388.38Q1045.52 388.38 1038.20 384.98Q1030.89 381.58 1026.90 375.12Q1022.90 368.66 1022.90 359.48L1022.90 359.48Q1022.90 350.47 1027.07 344.18Q1031.24 337.89 1039.14 334.57Q1047.05 331.26 1058.27 331.26L1058.27 331.26L1084.62 331.26L1084.62 340.95L1057.41 340.95Q1046.70 340.95 1041.01 346.13Q1035.32 351.32 1035.32 359.65L1035.32 359.65Q1035.32 368.15 1041.27 373.17Q1047.21 378.18 1057.41 378.18L1057.41 378.18Q1063.70 378.18 1069.49 375.88Q1075.27 373.59 1079.17 368.06Q1083.09 362.54 1083.42 352.85L1083.42 352.85L1087.16 358.12Q1086.49 368.15 1082.40 374.87Q1078.33 381.58 1071.36 384.98Q1064.38 388.38 1055.04 388.38Z" fill="#F6F3EC" opacity="1"/><path d="M1164.35 388.89L1164.35 388.89Q1154.48 388.89 1146.41 385.24Q1138.33 381.58 1132.47 375.04Q1126.61 368.49 1123.46 360.07Q1120.31 351.66 1120.31 342.14L1120.31 342.14L1120.31 339.76Q1120.31 330.58 1123.38 322.16Q1126.43 313.75 1132.13 307.20Q1137.82 300.66 1145.90 296.83Q1153.97 293.01 1164.00 293.01L1164.00 293.01Q1175.39 293.01 1184.06 297.94Q1192.73 302.87 1198.00 312.13Q1203.27 321.40 1203.62 334.83L1203.62 334.83L1198.00 324.29L1198.00 261.90L1210.75 261.90L1210.75 386L1200.55 386L1200.55 346.05L1204.63 346.05Q1204.29 360.16 1198.77 369.76Q1193.24 379.37 1184.32 384.13Q1175.39 388.89 1164.35 388.89ZM1166.04 377.67L1166.04 377.67Q1175.22 377.67 1182.62 373.59Q1190.01 369.51 1194.26 361.94Q1198.51 354.38 1198.51 344.52L1198.51 344.52L1198.51 336.36Q1198.51 326.84 1194.26 319.62Q1190.01 312.39 1182.62 308.31Q1175.22 304.23 1165.88 304.23L1165.88 304.23Q1155.85 304.23 1148.45 309.07Q1141.05 313.92 1137.06 322.25Q1133.06 330.58 1133.06 340.95L1133.06 340.95Q1133.06 351.66 1137.14 359.99Q1141.22 368.32 1148.70 373.00Q1156.18 377.67 1166.04 377.67Z" fill="#F6F3EC" opacity="1"/><path d="M1308.67 386L1298.47 386L1298.47 358.97L1296.43 358.97L1296.43 327.01Q1296.43 316.98 1291.16 311.63Q1285.89 306.27 1274.84 306.27L1274.84 306.27Q1269.74 306.27 1264.56 306.44Q1259.38 306.61 1254.70 306.87Q1250.02 307.12 1246.45 307.46L1246.45 307.46L1246.45 296.24Q1250.19 295.90 1254.10 295.56Q1258.01 295.22 1262.18 295.13Q1266.34 295.05 1270.25 295.05L1270.25 295.05Q1284.02 295.05 1292.44 298.45Q1300.85 301.85 1304.76 309.07Q1308.67 316.30 1308.67 328.20L1308.67 328.20L1308.67 386ZM1268.04 388.38L1268.04 388.38Q1258.52 388.38 1251.21 384.98Q1243.90 381.58 1239.91 375.12Q1235.91 368.66 1235.91 359.48L1235.91 359.48Q1235.91 350.47 1240.08 344.18Q1244.24 337.89 1252.15 334.57Q1260.05 331.26 1271.27 331.26L1271.27 331.26L1297.63 331.26L1297.63 340.95L1270.42 340.95Q1259.71 340.95 1254.02 346.13Q1248.32 351.32 1248.32 359.65L1248.32 359.65Q1248.32 368.15 1254.27 373.17Q1260.22 378.18 1270.42 378.18L1270.42 378.18Q1276.71 378.18 1282.49 375.88Q1288.27 373.59 1292.18 368.06Q1296.09 362.54 1296.43 352.85L1296.43 352.85L1300.17 358.12Q1299.49 368.15 1295.41 374.87Q1291.33 381.58 1284.36 384.98Q1277.39 388.38 1268.04 388.38Z" fill="#F6F3EC" opacity="1"/><path d="M1343.36 421.02L1332.47 421.02L1332.47 409.63L1344.03 409.63Q1349.98 409.63 1354.23 408.19Q1358.48 406.74 1361.38 403.17Q1364.26 399.60 1366.30 393.31L1366.30 393.31L1396.56 296.07L1408.97 296.07L1377.36 396.88Q1374.63 405.55 1369.88 410.90Q1365.12 416.26 1358.48 418.64Q1351.86 421.02 1343.36 421.02L1343.36 421.02ZM1377.87 383.79L1361.71 383.79L1361.71 373.08L1377.87 373.08L1377.87 383.79ZM1372.08 383.79L1360.18 383.79L1327.54 296.07L1340.63 296.07L1372.08 383.79Z" fill="#F6F3EC" opacity="1"/>
        <path d="M779.57 474L772.69 474L772.69 452.40L779.57 452.40Q779.84 452.40 780.65 452.42Q781.45 452.43 782.20 452.52L782.20 452.52Q784.76 452.85 786.54 454.34Q788.32 455.83 789.23 458.14Q790.15 460.45 790.15 463.20L790.15 463.20Q790.15 465.94 789.23 468.25Q788.32 470.56 786.54 472.06Q784.76 473.55 782.20 473.88L782.20 473.88Q781.46 473.97 780.65 473.99Q779.84 474 779.57 474L779.57 474ZM776.36 455.81L776.36 470.60L779.57 470.60Q780.02 470.60 780.72 470.56Q781.42 470.54 781.96 470.43L781.96 470.43Q783.49 470.14 784.45 469.06Q785.41 467.99 785.87 466.44Q786.32 464.89 786.32 463.20L786.32 463.20Q786.32 461.44 785.86 459.90Q785.39 458.36 784.43 457.31Q783.46 456.25 781.96 455.97L781.96 455.97Q781.42 455.85 780.72 455.83Q780.02 455.81 779.57 455.81L779.57 455.81L776.36 455.81Z" fill="#F6F3EC" opacity="0.72"/><path d="M807.62 474L804.00 474L804.00 452.40L807.62 452.40L807.62 474Z" fill="#F6F3EC" opacity="0.72"/><path d="M830.11 474.45L830.11 474.45Q827.74 474.45 825.85 473.63Q823.95 472.80 822.73 471.26Q821.50 469.73 821.17 467.61L821.17 467.61L824.92 467.04Q825.40 468.96 826.90 470.01Q828.39 471.06 830.34 471.06L830.34 471.06Q831.49 471.06 832.51 470.70Q833.53 470.34 834.17 469.65Q834.81 468.96 834.81 467.95L834.81 467.95Q834.81 467.50 834.66 467.12Q834.51 466.74 834.22 466.44Q833.92 466.14 833.47 465.89Q833.01 465.64 832.41 465.46L832.41 465.46L826.83 463.81Q826.11 463.61 825.28 463.25Q824.44 462.90 823.70 462.28Q822.96 461.65 822.49 460.69Q822.01 459.72 822.01 458.30L822.01 458.30Q822.01 456.21 823.07 454.79Q824.13 453.38 825.92 452.67Q827.71 451.96 829.90 451.98L829.90 451.98Q832.12 452.00 833.86 452.74Q835.60 453.48 836.77 454.89Q837.94 456.30 838.42 458.30L838.42 458.30L834.54 458.97Q834.30 457.83 833.62 457.03Q832.93 456.23 831.95 455.81Q830.97 455.38 829.86 455.36L829.86 455.36Q828.78 455.34 827.86 455.68Q826.93 456.01 826.37 456.64Q825.81 457.27 825.81 458.12L825.81 458.12Q825.81 458.91 826.29 459.41Q826.77 459.92 827.48 460.21Q828.19 460.50 828.93 460.69L828.93 460.69L832.80 461.77Q833.59 461.99 834.58 462.35Q835.57 462.70 836.49 463.35Q837.40 464.00 838.00 465.05Q838.59 466.10 838.59 467.71L838.59 467.71Q838.59 469.39 837.89 470.66Q837.19 471.93 836.01 472.77Q834.82 473.61 833.30 474.03Q831.78 474.45 830.11 474.45Z" fill="#F6F3EC" opacity="0.72"/><path d="M860.98 474.45L860.98 474.45Q857.74 474.45 855.43 473.03Q853.12 471.62 851.88 469.08Q850.64 466.55 850.64 463.20L850.64 463.20Q850.64 459.86 851.88 457.32Q853.12 454.79 855.43 453.37Q857.74 451.95 860.98 451.95L860.98 451.95Q864.71 451.95 867.20 453.82Q869.69 455.69 870.70 458.85L870.70 458.85L867.05 459.86Q866.42 457.74 864.91 456.55Q863.39 455.36 860.98 455.36L860.98 455.36Q858.80 455.36 857.36 456.33Q855.91 457.31 855.18 459.07Q854.45 460.83 854.44 463.20L854.44 463.20Q854.44 465.57 855.17 467.33Q855.89 469.10 857.35 470.07Q858.80 471.05 860.98 471.05L860.98 471.05Q863.39 471.05 864.91 469.85Q866.42 468.64 867.05 466.55L867.05 466.55L870.70 467.55Q869.69 470.71 867.20 472.58Q864.71 474.45 860.98 474.45Z" fill="#F6F3EC" opacity="0.72"/><path d="M893.13 474.45L893.13 474.45Q889.89 474.45 887.58 473.03Q885.27 471.62 884.04 469.08Q882.80 466.55 882.80 463.20L882.80 463.20Q882.80 459.86 884.04 457.32Q885.27 454.79 887.58 453.37Q889.89 451.95 893.13 451.95L893.13 451.95Q896.37 451.95 898.69 453.37Q901.01 454.79 902.25 457.32Q903.48 459.86 903.48 463.20L903.48 463.20Q903.48 466.55 902.25 469.08Q901.01 471.62 898.69 473.03Q896.37 474.45 893.13 474.45ZM893.13 471.05L893.13 471.05Q895.31 471.06 896.75 470.08Q898.20 469.11 898.93 467.34Q899.66 465.57 899.66 463.20L899.66 463.20Q899.66 460.83 898.93 459.08Q898.20 457.33 896.75 456.36Q895.31 455.38 893.13 455.36L893.13 455.36Q890.96 455.34 889.52 456.31Q888.08 457.29 887.35 459.06Q886.62 460.83 886.62 463.20L886.62 463.20Q886.62 465.57 887.34 467.32Q888.06 469.06 889.51 470.04Q890.96 471.01 893.13 471.05Z" fill="#F6F3EC" opacity="0.72"/><path d="M920.14 474L916.48 474L916.48 452.40L920.14 452.40L930.16 467.63L930.16 452.40L933.82 452.40L933.82 474L930.16 474L920.14 458.77L920.14 474Z" fill="#F6F3EC" opacity="0.72"/><path d="M951.68 474L948.02 474L948.02 452.40L951.68 452.40L961.70 467.63L961.70 452.40L965.36 452.40L965.36 474L961.70 474L951.68 458.77L951.68 474Z" fill="#F6F3EC" opacity="0.72"/><path d="M993.51 474L979.56 474L979.56 452.40L993.51 452.40L993.51 455.79L983.18 455.79L983.18 461.12L991.71 461.12L991.71 464.50L983.18 464.50L983.18 470.61L993.51 470.61L993.51 474Z" fill="#F6F3EC" opacity="0.72"/><path d="M1016.25 474.45L1016.25 474.45Q1013.01 474.45 1010.70 473.03Q1008.39 471.62 1007.15 469.08Q1005.91 466.55 1005.91 463.20L1005.91 463.20Q1005.91 459.86 1007.15 457.32Q1008.39 454.79 1010.70 453.37Q1013.01 451.95 1016.25 451.95L1016.25 451.95Q1019.98 451.95 1022.47 453.82Q1024.96 455.69 1025.97 458.85L1025.97 458.85L1022.32 459.86Q1021.69 457.74 1020.18 456.55Q1018.66 455.36 1016.25 455.36L1016.25 455.36Q1014.07 455.36 1012.62 456.33Q1011.18 457.31 1010.45 459.07Q1009.72 460.83 1009.71 463.20L1009.71 463.20Q1009.71 465.57 1010.43 467.33Q1011.16 469.10 1012.62 470.07Q1014.07 471.05 1016.25 471.05L1016.25 471.05Q1018.66 471.05 1020.18 469.85Q1021.69 468.64 1022.32 466.55L1022.32 466.55L1025.97 467.55Q1024.96 470.71 1022.47 472.58Q1019.98 474.45 1016.25 474.45Z" fill="#F6F3EC" opacity="0.72"/><path d="M1048.07 474L1044.46 474L1044.46 455.79L1037.47 455.79L1037.47 452.40L1055.06 452.40L1055.06 455.79L1048.07 455.79L1048.07 474Z" fill="#F6F3EC" opacity="0.72"/><path d="M1096.47 474L1092.85 474L1092.85 455.79L1085.86 455.79L1085.86 452.40L1103.46 452.40L1103.46 455.79L1096.47 455.79L1096.47 474Z" fill="#F6F3EC" opacity="0.72"/><path d="M1124.99 474.45L1124.99 474.45Q1121.75 474.45 1119.44 473.03Q1117.13 471.62 1115.89 469.08Q1114.66 466.55 1114.66 463.20L1114.66 463.20Q1114.66 459.86 1115.89 457.32Q1117.13 454.79 1119.44 453.37Q1121.75 451.95 1124.99 451.95L1124.99 451.95Q1128.23 451.95 1130.55 453.37Q1132.87 454.79 1134.11 457.32Q1135.34 459.86 1135.34 463.20L1135.34 463.20Q1135.34 466.55 1134.11 469.08Q1132.87 471.62 1130.55 473.03Q1128.23 474.45 1124.99 474.45ZM1124.99 471.05L1124.99 471.05Q1127.17 471.06 1128.62 470.08Q1130.06 469.11 1130.79 467.34Q1131.52 465.57 1131.52 463.20L1131.52 463.20Q1131.52 460.83 1130.79 459.08Q1130.06 457.33 1128.62 456.36Q1127.17 455.38 1124.99 455.36L1124.99 455.36Q1122.82 455.34 1121.38 456.31Q1119.94 457.29 1119.21 459.06Q1118.48 460.83 1118.48 463.20L1118.48 463.20Q1118.48 465.57 1119.20 467.32Q1119.92 469.06 1121.37 470.04Q1122.82 471.01 1124.99 471.05Z" fill="#F6F3EC" opacity="0.72"/><path d="M1172.16 474L1168.54 474L1168.54 452.40L1177.47 452.40Q1177.78 452.40 1178.28 452.42Q1178.77 452.44 1179.19 452.52L1179.19 452.52Q1181.07 452.81 1182.29 453.76Q1183.51 454.73 1184.10 456.19Q1184.70 457.65 1184.70 459.44L1184.70 459.44Q1184.70 462.07 1183.36 463.97Q1182.03 465.87 1179.27 466.32L1179.27 466.32L1177.72 466.45L1172.16 466.45L1172.16 474ZM1185.04 474L1180.95 474L1176.69 465.21L1180.36 464.40L1185.04 474ZM1172.16 455.79L1172.16 463.08L1177.32 463.08Q1177.62 463.08 1177.99 463.05Q1178.37 463.02 1178.68 462.93L1178.68 462.93Q1179.58 462.70 1180.10 462.13Q1180.62 461.56 1180.83 460.85Q1181.05 460.13 1181.05 459.44L1181.05 459.44Q1181.05 458.75 1180.83 458.02Q1180.62 457.29 1180.10 456.72Q1179.58 456.15 1178.68 455.93L1178.68 455.93Q1178.37 455.83 1177.99 455.81Q1177.62 455.79 1177.32 455.79L1177.32 455.79L1172.16 455.79Z" fill="#F6F3EC" opacity="0.72"/><path d="M1212.29 474L1198.34 474L1198.34 452.40L1212.29 452.40L1212.29 455.79L1201.96 455.79L1201.96 461.12L1210.49 461.12L1210.49 464.50L1201.96 464.50L1201.96 470.61L1212.29 470.61L1212.29 474Z" fill="#F6F3EC" opacity="0.72"/><path d="M1235.03 474.45L1235.03 474.45Q1231.79 474.45 1229.48 473.03Q1227.17 471.62 1225.93 469.08Q1224.69 466.55 1224.69 463.20L1224.69 463.20Q1224.69 459.86 1225.93 457.32Q1227.17 454.79 1229.48 453.37Q1231.79 451.95 1235.03 451.95L1235.03 451.95Q1238.76 451.95 1241.25 453.82Q1243.74 455.69 1244.75 458.85L1244.75 458.85L1241.10 459.86Q1240.47 457.74 1238.96 456.55Q1237.44 455.36 1235.03 455.36L1235.03 455.36Q1232.85 455.36 1231.40 456.33Q1229.96 457.31 1229.23 459.07Q1228.50 460.83 1228.49 463.20L1228.49 463.20Q1228.49 465.57 1229.21 467.33Q1229.94 469.10 1231.40 470.07Q1232.85 471.05 1235.03 471.05L1235.03 471.05Q1237.44 471.05 1238.96 469.85Q1240.47 468.64 1241.10 466.55L1241.10 466.55L1244.75 467.55Q1243.74 470.71 1241.25 472.58Q1238.76 474.45 1235.03 474.45Z" fill="#F6F3EC" opacity="0.72"/><path d="M1267.18 474.45L1267.18 474.45Q1263.94 474.45 1261.63 473.03Q1259.32 471.62 1258.08 469.08Q1256.85 466.55 1256.85 463.20L1256.85 463.20Q1256.85 459.86 1258.08 457.32Q1259.32 454.79 1261.63 453.37Q1263.94 451.95 1267.18 451.95L1267.18 451.95Q1270.42 451.95 1272.74 453.37Q1275.06 454.79 1276.29 457.32Q1277.53 459.86 1277.53 463.20L1277.53 463.20Q1277.53 466.55 1276.29 469.08Q1275.06 471.62 1272.74 473.03Q1270.42 474.45 1267.18 474.45ZM1267.18 471.05L1267.18 471.05Q1269.36 471.06 1270.80 470.08Q1272.25 469.11 1272.98 467.34Q1273.71 465.57 1273.71 463.20L1273.71 463.20Q1273.71 460.83 1272.98 459.08Q1272.25 457.33 1270.80 456.36Q1269.36 455.38 1267.18 455.36L1267.18 455.36Q1265.01 455.34 1263.57 456.31Q1262.13 457.29 1261.40 459.06Q1260.67 460.83 1260.67 463.20L1260.67 463.20Q1260.67 465.57 1261.39 467.32Q1262.11 469.06 1263.56 470.04Q1265.01 471.01 1267.18 471.05Z" fill="#F6F3EC" opacity="0.72"/><path d="M1294.19 474L1290.53 474L1290.53 452.40L1294.19 452.40L1304.21 467.63L1304.21 452.40L1307.87 452.40L1307.87 474L1304.21 474L1294.19 458.77L1294.19 474Z" fill="#F6F3EC" opacity="0.72"/><path d="M1325.73 474L1322.07 474L1322.07 452.40L1325.73 452.40L1335.75 467.63L1335.75 452.40L1339.41 452.40L1339.41 474L1335.75 474L1325.73 458.77L1325.73 474Z" fill="#F6F3EC" opacity="0.72"/><path d="M1367.56 474L1353.61 474L1353.61 452.40L1367.56 452.40L1367.56 455.79L1357.23 455.79L1357.23 461.12L1365.76 461.12L1365.76 464.50L1357.23 464.50L1357.23 470.61L1367.56 470.61L1367.56 474Z" fill="#F6F3EC" opacity="0.72"/><path d="M1390.30 474.45L1390.30 474.45Q1387.06 474.45 1384.75 473.03Q1382.44 471.62 1381.20 469.08Q1379.96 466.55 1379.96 463.20L1379.96 463.20Q1379.96 459.86 1381.20 457.32Q1382.44 454.79 1384.75 453.37Q1387.06 451.95 1390.30 451.95L1390.30 451.95Q1394.03 451.95 1396.52 453.82Q1399.01 455.69 1400.02 458.85L1400.02 458.85L1396.37 459.86Q1395.74 457.74 1394.23 456.55Q1392.71 455.36 1390.30 455.36L1390.30 455.36Q1388.12 455.36 1386.67 456.33Q1385.23 457.31 1384.50 459.07Q1383.77 460.83 1383.76 463.20L1383.76 463.20Q1383.76 465.57 1384.48 467.33Q1385.21 469.10 1386.67 470.07Q1388.12 471.05 1390.30 471.05L1390.30 471.05Q1392.71 471.05 1394.23 469.85Q1395.74 468.64 1396.37 466.55L1396.37 466.55L1400.02 467.55Q1399.01 470.71 1396.52 472.58Q1394.03 474.45 1390.30 474.45Z" fill="#F6F3EC" opacity="0.72"/><path d="M1422.12 474L1418.51 474L1418.51 455.79L1411.52 455.79L1411.52 452.40L1429.11 452.40L1429.11 455.79L1422.12 455.79L1422.12 474Z" fill="#F6F3EC" opacity="0.72"/>
      
</svg>