<?xml version="1.0" encoding="UTF-8"?>
<svg xmlns="http://www.w3.org/2000/svg" width="2200" height="780" viewBox="0 0 2200 780" fill="none">
  
  
        <path d="M741.12 390L721.43 390L721.43 269.95Q721.43 250.90 731.49 241.91Q741.55 232.92 761.02 232.92L761.02 232.92L775.15 232.92L775.15 250.04L757.60 250.04Q749.68 250.04 745.40 254.43Q741.12 258.82 741.12 266.52L741.12 266.52L741.12 390ZM777.29 292.42L705.60 292.42L705.60 277.01L777.29 277.01L777.29 292.42Z" fill="#F6F3EC" opacity="1"/><path d="M884.93 390L868.67 390L868.67 355.76L865.24 355.76L865.24 316.17Q865.24 304.40 859.14 298.41Q853.04 292.42 841.27 292.42L841.27 292.42Q834.64 292.42 827.58 292.63Q820.52 292.84 814.10 293.06Q807.68 293.27 802.97 293.70L802.97 293.70L802.97 275.72Q807.68 275.30 812.92 274.98Q818.16 274.65 823.73 274.55Q829.29 274.44 834.43 274.44L834.43 274.44Q851.97 274.44 863.10 278.61Q874.23 282.79 879.58 292.20Q884.93 301.62 884.93 317.67L884.93 317.67L884.93 390ZM831.22 393.00L831.22 393.00Q818.38 393.00 809.07 388.61Q799.76 384.22 794.73 375.88Q789.70 367.53 789.70 355.76L789.70 355.76Q789.70 343.56 795.16 335.43Q800.61 327.30 811.10 323.13Q821.59 318.95 836.35 318.95L836.35 318.95L867.38 318.95L867.38 334.36L835.50 334.36Q823.08 334.36 816.45 340.35Q809.82 346.34 809.82 355.76L809.82 355.76Q809.82 365.18 816.45 370.95Q823.08 376.73 835.50 376.73L835.50 376.73Q842.77 376.73 849.41 374.06Q856.04 371.38 860.43 365.07Q864.81 358.76 865.24 347.63L865.24 347.63L870.81 355.76Q869.74 367.96 864.92 376.20Q860.11 384.44 851.65 388.72Q843.20 393.00 831.22 393.00Z" fill="#F6F3EC" opacity="1"/><path d="M943.14 390L922.59 390L922.59 275.72L938.86 275.72L938.86 322.80L938.00 322.80Q938.00 297.77 949.02 286.10Q960.04 274.44 982.09 274.44L982.09 274.44L985.94 274.44L985.94 292.84L978.66 292.84Q961.54 292.84 952.34 301.94Q943.14 311.03 943.14 328.15L943.14 328.15L943.14 390Z" fill="#F6F3EC" opacity="1"/><path d="M1095.72 390L1079.46 390L1079.46 355.76L1076.03 355.76L1076.03 316.17Q1076.03 304.40 1069.93 298.41Q1063.83 292.42 1052.06 292.42L1052.06 292.42Q1045.43 292.42 1038.37 292.63Q1031.31 292.84 1024.89 293.06Q1018.47 293.27 1013.76 293.70L1013.76 293.70L1013.76 275.72Q1018.47 275.30 1023.71 274.98Q1028.95 274.65 1034.52 274.55Q1040.08 274.44 1045.22 274.44L1045.22 274.44Q1062.76 274.44 1073.89 278.61Q1085.02 282.79 1090.37 292.20Q1095.72 301.62 1095.72 317.67L1095.72 317.67L1095.72 390ZM1042.01 393.00L1042.01 393.00Q1029.17 393.00 1019.86 388.61Q1010.55 384.22 1005.52 375.88Q1000.49 367.53 1000.49 355.76L1000.49 355.76Q1000.49 343.56 1005.95 335.43Q1011.40 327.30 1021.89 323.13Q1032.38 318.95 1047.14 318.95L1047.14 318.95L1078.17 318.95L1078.17 334.36L1046.29 334.36Q1033.87 334.36 1027.24 340.35Q1020.61 346.34 1020.61 355.76L1020.61 355.76Q1020.61 365.18 1027.24 370.95Q1033.87 376.73 1046.29 376.73L1046.29 376.73Q1053.56 376.73 1060.20 374.06Q1066.83 371.38 1071.22 365.07Q1075.60 358.76 1076.03 347.63L1076.03 347.63L1081.60 355.76Q1080.53 367.96 1075.71 376.20Q1070.90 384.44 1062.44 388.72Q1053.99 393.00 1042.01 393.00Z" fill="#F6F3EC" opacity="1"/><path d="M1181.11 393.85L1181.11 393.85Q1168.91 393.85 1158.64 389.36Q1148.36 384.86 1140.77 376.73Q1133.17 368.60 1129.00 357.90Q1124.82 347.20 1124.82 334.79L1124.82 334.79L1124.82 330.94Q1124.82 318.74 1128.89 308.04Q1132.96 297.34 1140.34 289.21Q1147.72 281.07 1157.89 276.47Q1168.05 271.87 1180.46 271.87L1180.46 271.87Q1193.52 271.87 1204.22 277.33Q1214.92 282.79 1221.77 294.34Q1228.61 305.90 1229.47 324.30L1229.47 324.30L1220.91 310.61L1220.91 233.78L1241.45 233.78L1241.45 390L1225.19 390L1225.19 339.28L1231.18 339.28Q1230.33 358.76 1223.05 370.85Q1215.77 382.94 1204.75 388.39Q1193.73 393.85 1181.11 393.85ZM1183.89 375.88L1183.89 375.88Q1194.37 375.88 1202.93 371.17Q1211.49 366.46 1216.63 357.58Q1221.77 348.70 1221.77 336.71L1221.77 336.71L1221.77 326.87Q1221.77 315.10 1216.52 306.86Q1211.28 298.62 1202.61 294.24Q1193.95 289.85 1183.67 289.85L1183.67 289.85Q1172.33 289.85 1163.66 295.20Q1155.00 300.55 1150.18 310.18Q1145.37 319.81 1145.37 332.86L1145.37 332.86Q1145.37 345.92 1150.29 355.65Q1155.21 365.39 1163.99 370.63Q1172.76 375.88 1183.89 375.88Z" fill="#F6F3EC" opacity="1"/><path d="M1366.22 390L1349.95 390L1349.95 355.76L1346.53 355.76L1346.53 316.17Q1346.53 304.40 1340.43 298.41Q1334.33 292.42 1322.56 292.42L1322.56 292.42Q1315.93 292.42 1308.86 292.63Q1301.80 292.84 1295.38 293.06Q1288.96 293.27 1284.25 293.70L1284.25 293.70L1284.25 275.72Q1288.96 275.30 1294.20 274.98Q1299.45 274.65 1305.01 274.55Q1310.58 274.44 1315.71 274.44L1315.71 274.44Q1333.26 274.44 1344.39 278.61Q1355.52 282.79 1360.87 292.20Q1366.22 301.62 1366.22 317.67L1366.22 317.67L1366.22 390ZM1312.50 393.00L1312.50 393.00Q1299.66 393.00 1290.35 388.61Q1281.04 384.22 1276.01 375.88Q1270.99 367.53 1270.99 355.76L1270.99 355.76Q1270.99 343.56 1276.44 335.43Q1281.90 327.30 1292.39 323.13Q1302.87 318.95 1317.64 318.95L1317.64 318.95L1348.67 318.95L1348.67 334.36L1316.78 334.36Q1304.37 334.36 1297.74 340.35Q1291.10 346.34 1291.10 355.76L1291.10 355.76Q1291.10 365.18 1297.74 370.95Q1304.37 376.73 1316.78 376.73L1316.78 376.73Q1324.06 376.73 1330.69 374.06Q1337.33 371.38 1341.71 365.07Q1346.10 358.76 1346.53 347.63L1346.53 347.63L1352.09 355.76Q1351.02 367.96 1346.21 376.20Q1341.39 384.44 1332.94 388.72Q1324.49 393.00 1312.50 393.00Z" fill="#F6F3EC" opacity="1"/><path d="M1411.37 434.51L1396.18 434.51L1396.18 416.11L1412.65 416.11Q1419.93 416.11 1424.96 414.29Q1429.99 412.47 1433.30 408.19Q1436.62 403.91 1438.76 396.85L1438.76 396.85L1474.71 275.72L1494.83 275.72L1456.74 402.20Q1453.31 413.54 1447.11 420.71Q1440.90 427.88 1432.02 431.19Q1423.14 434.51 1411.37 434.51L1411.37 434.51ZM1455.88 387.43L1431.06 387.43L1431.06 370.31L1455.88 370.31L1455.88 387.43ZM1448.18 387.43L1428.92 387.43L1388.04 275.72L1409.02 275.72L1448.18 387.43Z" fill="#F6F3EC" opacity="1"/>
        <path d="M743.80 474L736.63 474L736.63 449.52L743.80 449.52Q744.25 449.52 745.22 449.54Q746.18 449.55 747.07 449.69L747.07 449.69Q749.77 450.08 751.55 451.76Q753.32 453.45 754.19 456.04Q755.06 458.63 755.06 461.76L755.06 461.76Q755.06 464.90 754.19 467.50Q753.32 470.09 751.55 471.76Q749.77 473.44 747.07 473.83L747.07 473.83Q746.20 473.95 745.21 473.97Q744.21 474 743.80 474L743.80 474ZM738.16 450.95L738.16 472.57L743.80 472.57Q744.62 472.57 745.44 472.52Q746.27 472.47 746.83 472.37L746.83 472.37Q749.24 471.96 750.71 470.51Q752.18 469.05 752.86 466.80Q753.53 464.55 753.53 461.76L753.53 461.76Q753.53 458.97 752.86 456.72Q752.18 454.47 750.71 453.01Q749.24 451.56 746.83 451.15L746.83 451.15Q746.27 451.05 745.42 451.00Q744.57 450.95 743.80 450.95L743.80 450.95L738.16 450.95Z" fill="#F6F3EC" opacity="0.72"/><path d="M772.57 474L771.14 474L771.14 449.52L772.57 449.52L772.57 474Z" fill="#F6F3EC" opacity="0.72"/><path d="M797.79 474.51L797.79 474.51Q795.31 474.51 793.33 473.70Q791.35 472.89 790.05 471.42Q788.75 469.94 788.31 467.91L788.31 467.91L789.73 467.64Q790.40 470.16 792.56 471.62Q794.72 473.08 797.79 473.08L797.79 473.08Q799.93 473.08 801.53 472.40Q803.13 471.72 804.01 470.49Q804.90 469.26 804.90 467.61L804.90 467.61Q804.90 466.37 804.44 465.53Q803.98 464.70 803.27 464.18Q802.57 463.66 801.80 463.36Q801.04 463.05 800.44 462.88L800.44 462.88L794.32 461.05Q793.00 460.65 792.04 460.09Q791.08 459.53 790.47 458.82Q789.85 458.11 789.56 457.25Q789.26 456.40 789.26 455.44L789.26 455.44Q789.26 453.57 790.27 452.11Q791.28 450.66 793.08 449.83Q794.89 449.01 797.25 449.01L797.25 449.01Q799.65 449.01 801.55 449.89Q803.45 450.78 804.67 452.38Q805.88 453.99 806.19 456.15L806.19 456.15L804.76 456.42Q804.52 454.64 803.50 453.29Q802.48 451.93 800.87 451.19Q799.25 450.44 797.25 450.44L797.25 450.44Q795.33 450.44 793.87 451.10Q792.42 451.76 791.60 452.89Q790.79 454.01 790.79 455.40L790.79 455.40Q790.79 456.86 791.58 457.74Q792.37 458.62 793.51 459.10Q794.65 459.58 795.68 459.89L795.68 459.89L800.75 461.42Q801.40 461.61 802.33 461.97Q803.27 462.34 804.18 463.02Q805.09 463.70 805.69 464.81Q806.29 465.93 806.29 467.61L806.29 467.61Q806.29 469.19 805.70 470.46Q805.10 471.74 803.98 472.64Q802.86 473.54 801.29 474.03Q799.73 474.51 797.79 474.51Z" fill="#F6F3EC" opacity="0.72"/><path d="M831.31 474.51L831.31 474.51Q827.66 474.51 825.22 472.88Q822.78 471.25 821.56 468.37Q820.33 465.50 820.33 461.76L820.33 461.76Q820.33 458.02 821.56 455.15Q822.78 452.27 825.22 450.64Q827.66 449.01 831.31 449.01L831.31 449.01Q835.60 449.01 838.22 451.25Q840.83 453.48 841.75 457.20L841.75 457.20L840.26 457.54Q839.44 454.30 837.20 452.37Q834.97 450.44 831.31 450.44L831.31 450.44Q828.17 450.44 826.09 451.88Q824.00 453.33 822.95 455.89Q821.90 458.44 821.86 461.76L821.86 461.76Q821.83 465.07 822.88 467.63Q823.94 470.18 826.05 471.63Q828.17 473.08 831.31 473.08L831.31 473.08Q834.97 473.08 837.20 471.14Q839.44 469.21 840.26 465.98L840.26 465.98L841.75 466.32Q840.83 470.04 838.22 472.27Q835.60 474.51 831.31 474.51Z" fill="#F6F3EC" opacity="0.72"/><path d="M867.11 474.51L867.11 474.51Q863.46 474.51 861.02 472.88Q858.58 471.25 857.36 468.37Q856.13 465.50 856.13 461.76L856.13 461.76Q856.13 458.02 857.36 455.15Q858.58 452.27 861.02 450.64Q863.46 449.01 867.11 449.01L867.11 449.01Q870.77 449.01 873.21 450.64Q875.65 452.27 876.87 455.15Q878.10 458.02 878.10 461.76L878.10 461.76Q878.10 465.50 876.87 468.37Q875.65 471.25 873.21 472.88Q870.77 474.51 867.11 474.51ZM867.11 473.08L867.11 473.08Q870.26 473.08 872.36 471.63Q874.46 470.18 875.51 467.63Q876.57 465.07 876.57 461.76L876.57 461.76Q876.57 458.44 875.51 455.89Q874.46 453.33 872.36 451.88Q870.26 450.44 867.11 450.44L867.11 450.44Q863.97 450.44 861.89 451.88Q859.80 453.33 858.75 455.89Q857.70 458.44 857.66 461.76L857.66 461.76Q857.63 465.07 858.68 467.63Q859.74 470.18 861.85 471.63Q863.97 473.08 867.11 473.08Z" fill="#F6F3EC" opacity="0.72"/><path d="M894.92 474L893.50 474L893.50 449.52L894.92 449.52L909.82 471.45L909.82 449.52L911.24 449.52L911.24 474L909.82 474L894.92 452.04L894.92 474Z" fill="#F6F3EC" opacity="0.72"/><path d="M929.43 474L928.00 474L928.00 449.52L929.43 449.52L944.32 471.45L944.32 449.52L945.75 449.52L945.75 474L944.32 474L929.43 452.04L929.43 474Z" fill="#F6F3EC" opacity="0.72"/><path d="M977.47 474L962.51 474L962.51 449.52L977.47 449.52L977.47 450.95L963.94 450.95L963.94 461.05L975.43 461.05L975.43 462.47L963.94 462.47L963.94 472.57L977.47 472.57L977.47 474Z" fill="#F6F3EC" opacity="0.72"/><path d="M1003.17 474.51L1003.17 474.51Q999.52 474.51 997.08 472.88Q994.64 471.25 993.42 468.37Q992.19 465.50 992.19 461.76L992.19 461.76Q992.19 458.02 993.42 455.15Q994.64 452.27 997.08 450.64Q999.52 449.01 1003.17 449.01L1003.17 449.01Q1007.46 449.01 1010.08 451.25Q1012.69 453.48 1013.61 457.20L1013.61 457.20L1012.12 457.54Q1011.30 454.30 1009.06 452.37Q1006.83 450.44 1003.17 450.44L1003.17 450.44Q1000.03 450.44 997.95 451.88Q995.86 453.33 994.81 455.89Q993.76 458.44 993.72 461.76L993.72 461.76Q993.69 465.07 994.74 467.63Q995.80 470.18 997.91 471.63Q1000.03 473.08 1003.17 473.08L1003.17 473.08Q1006.83 473.08 1009.06 471.14Q1011.30 469.21 1012.12 465.98L1012.12 465.98L1013.61 466.32Q1012.69 470.04 1010.08 472.27Q1007.46 474.51 1003.17 474.51Z" fill="#F6F3EC" opacity="0.72"/><path d="M1037.72 474L1036.29 474L1036.29 450.95L1027.31 450.95L1027.31 449.52L1046.69 449.52L1046.69 450.95L1037.72 450.95L1037.72 474Z" fill="#F6F3EC" opacity="0.72"/><path d="M1093.34 474L1091.91 474L1091.91 450.95L1082.93 450.95L1082.93 449.52L1102.31 449.52L1102.31 450.95L1093.34 450.95L1093.34 474Z" fill="#F6F3EC" opacity="0.72"/><path d="M1126.65 474.51L1126.65 474.51Q1123.00 474.51 1120.56 472.88Q1118.12 471.25 1116.90 468.37Q1115.67 465.50 1115.67 461.76L1115.67 461.76Q1115.67 458.02 1116.90 455.15Q1118.12 452.27 1120.56 450.64Q1123.00 449.01 1126.65 449.01L1126.65 449.01Q1130.31 449.01 1132.75 450.64Q1135.19 452.27 1136.41 455.15Q1137.64 458.02 1137.64 461.76L1137.64 461.76Q1137.64 465.50 1136.41 468.37Q1135.19 471.25 1132.75 472.88Q1130.31 474.51 1126.65 474.51ZM1126.65 473.08L1126.65 473.08Q1129.80 473.08 1131.90 471.63Q1134.00 470.18 1135.05 467.63Q1136.11 465.07 1136.11 461.76L1136.11 461.76Q1136.11 458.44 1135.05 455.89Q1134.00 453.33 1131.90 451.88Q1129.80 450.44 1126.65 450.44L1126.65 450.44Q1123.51 450.44 1121.43 451.88Q1119.34 453.33 1118.29 455.89Q1117.24 458.44 1117.20 461.76L1117.20 461.76Q1117.17 465.07 1118.22 467.63Q1119.28 470.18 1121.39 471.63Q1123.51 473.08 1126.65 473.08Z" fill="#F6F3EC" opacity="0.72"/><path d="M1178.02 474L1176.60 474L1176.60 449.52L1185.61 449.52Q1185.96 449.52 1186.34 449.55Q1186.71 449.57 1187.17 449.66L1187.17 449.66Q1188.94 449.93 1190.24 450.94Q1191.54 451.95 1192.24 453.49Q1192.95 455.03 1192.95 456.86L1192.95 456.86Q1192.95 459.48 1191.52 461.45Q1190.09 463.43 1187.65 463.97L1187.65 463.97L1187.37 464.21L1178.02 464.21L1178.02 474ZM1193.63 474L1191.93 474L1187.10 464.04L1188.33 463.12L1193.63 474ZM1178.02 450.95L1178.02 462.78L1185.61 462.78Q1185.89 462.78 1186.29 462.75Q1186.69 462.71 1187.10 462.64L1187.10 462.64Q1188.51 462.37 1189.47 461.52Q1190.43 460.67 1190.93 459.46Q1191.42 458.24 1191.42 456.86L1191.42 456.86Q1191.42 455.49 1190.93 454.27Q1190.43 453.06 1189.47 452.21Q1188.51 451.36 1187.10 451.08L1187.10 451.08Q1186.69 451.00 1186.29 450.97Q1185.89 450.95 1185.61 450.95L1185.61 450.95L1178.02 450.95Z" fill="#F6F3EC" opacity="0.72"/><path d="M1224.33 474L1209.37 474L1209.37 449.52L1224.33 449.52L1224.33 450.95L1210.80 450.95L1210.80 461.05L1222.29 461.05L1222.29 462.47L1210.80 462.47L1210.80 472.57L1224.33 472.57L1224.33 474Z" fill="#F6F3EC" opacity="0.72"/><path d="M1250.03 474.51L1250.03 474.51Q1246.38 474.51 1243.94 472.88Q1241.50 471.25 1240.27 468.37Q1239.05 465.50 1239.05 461.76L1239.05 461.76Q1239.05 458.02 1240.27 455.15Q1241.50 452.27 1243.94 450.64Q1246.38 449.01 1250.03 449.01L1250.03 449.01Q1254.32 449.01 1256.93 451.25Q1259.55 453.48 1260.47 457.20L1260.47 457.20L1258.97 457.54Q1258.16 454.30 1255.92 452.37Q1253.69 450.44 1250.03 450.44L1250.03 450.44Q1246.89 450.44 1244.80 451.88Q1242.72 453.33 1241.67 455.89Q1240.61 458.44 1240.58 461.76L1240.58 461.76Q1240.55 465.07 1241.60 467.63Q1242.65 470.18 1244.77 471.63Q1246.89 473.08 1250.03 473.08L1250.03 473.08Q1253.69 473.08 1255.92 471.14Q1258.16 469.21 1258.97 465.98L1258.97 465.98L1260.47 466.32Q1259.55 470.04 1256.93 472.27Q1254.32 474.51 1250.03 474.51Z" fill="#F6F3EC" opacity="0.72"/><path d="M1285.83 474.51L1285.83 474.51Q1282.18 474.51 1279.74 472.88Q1277.30 471.25 1276.07 468.37Q1274.85 465.50 1274.85 461.76L1274.85 461.76Q1274.85 458.02 1276.07 455.15Q1277.30 452.27 1279.74 450.64Q1282.18 449.01 1285.83 449.01L1285.83 449.01Q1289.49 449.01 1291.93 450.64Q1294.37 452.27 1295.59 455.15Q1296.81 458.02 1296.81 461.76L1296.81 461.76Q1296.81 465.50 1295.59 468.37Q1294.37 471.25 1291.93 472.88Q1289.49 474.51 1285.83 474.51ZM1285.83 473.08L1285.83 473.08Q1288.98 473.08 1291.08 471.63Q1293.18 470.18 1294.23 467.63Q1295.28 465.07 1295.28 461.76L1295.28 461.76Q1295.28 458.44 1294.23 455.89Q1293.18 453.33 1291.08 451.88Q1288.98 450.44 1285.83 450.44L1285.83 450.44Q1282.69 450.44 1280.60 451.88Q1278.52 453.33 1277.47 455.89Q1276.41 458.44 1276.38 461.76L1276.38 461.76Q1276.35 465.07 1277.40 467.63Q1278.45 470.18 1280.57 471.63Q1282.69 473.08 1285.83 473.08Z" fill="#F6F3EC" opacity="0.72"/><path d="M1313.64 474L1312.21 474L1312.21 449.52L1313.64 449.52L1328.53 471.45L1328.53 449.52L1329.96 449.52L1329.96 474L1328.53 474L1313.64 452.04L1313.64 474Z" fill="#F6F3EC" opacity="0.72"/><path d="M1348.15 474L1346.72 474L1346.72 449.52L1348.15 449.52L1363.04 471.45L1363.04 449.52L1364.47 449.52L1364.47 474L1363.04 474L1348.15 452.04L1348.15 474Z" fill="#F6F3EC" opacity="0.72"/><path d="M1396.19 474L1381.23 474L1381.23 449.52L1396.19 449.52L1396.19 450.95L1382.66 450.95L1382.66 461.05L1394.15 461.05L1394.15 462.47L1382.66 462.47L1382.66 472.57L1396.19 472.57L1396.19 474Z" fill="#F6F3EC" opacity="0.72"/><path d="M1421.89 474.51L1421.89 474.51Q1418.24 474.51 1415.80 472.88Q1413.36 471.25 1412.13 468.37Q1410.91 465.50 1410.91 461.76L1410.91 461.76Q1410.91 458.02 1412.13 455.15Q1413.36 452.27 1415.80 450.64Q1418.24 449.01 1421.89 449.01L1421.89 449.01Q1426.18 449.01 1428.79 451.25Q1431.41 453.48 1432.33 457.20L1432.33 457.20L1430.83 457.54Q1430.02 454.30 1427.78 452.37Q1425.55 450.44 1421.89 450.44L1421.89 450.44Q1418.75 450.44 1416.66 451.88Q1414.58 453.33 1413.53 455.89Q1412.47 458.44 1412.44 461.76L1412.44 461.76Q1412.41 465.07 1413.46 467.63Q1414.51 470.18 1416.63 471.63Q1418.75 473.08 1421.89 473.08L1421.89 473.08Q1425.55 473.08 1427.78 471.14Q1430.02 469.21 1430.83 465.98L1430.83 465.98L1432.33 466.32Q1431.41 470.04 1428.79 472.27Q1426.18 474.51 1421.89 474.51Z" fill="#F6F3EC" opacity="0.72"/><path d="M1456.43 474L1455.01 474L1455.01 450.95L1446.03 450.95L1446.03 449.52L1465.41 449.52L1465.41 450.95L1456.43 450.95L1456.43 474Z" fill="#F6F3EC" opacity="0.72"/>
      
</svg>