<?xml version="1.0" encoding="UTF-8"?>
<svg xmlns="http://www.w3.org/2000/svg" width="2200" height="780" viewBox="0 0 2200 780" fill="none">
  
  
        <path d="M816.52 386L804.28 386L804.28 289.10Q804.28 274.99 811.60 268.19Q818.90 261.39 833.52 261.39L833.52 261.39L844.91 261.39L844.91 272.27L831.14 272.27Q824.00 272.27 820.26 276.01Q816.52 279.75 816.52 286.55L816.52 286.55L816.52 386ZM846.78 306.61L791.20 306.61L791.20 296.75L846.78 296.75L846.78 306.61Z" fill="#F6F3EC" opacity="1"/><path d="M930.42 386L920.23 386L920.23 358.97L918.19 358.97L918.19 327.01Q918.19 316.98 912.91 311.63Q907.64 306.27 896.60 306.27L896.60 306.27Q891.50 306.27 886.31 306.44Q881.13 306.61 876.45 306.87Q871.77 307.12 868.21 307.46L868.21 307.46L868.21 296.24Q871.95 295.90 875.86 295.56Q879.76 295.22 883.93 295.13Q888.10 295.05 892.00 295.05L892.00 295.05Q905.77 295.05 914.19 298.45Q922.61 301.85 926.51 309.07Q930.42 316.30 930.42 328.20L930.42 328.20L930.42 386ZM889.79 388.38L889.79 388.38Q880.27 388.38 872.97 384.98Q865.65 381.58 861.66 375.12Q857.66 368.66 857.66 359.48L857.66 359.48Q857.66 350.47 861.83 344.18Q866.00 337.89 873.90 334.57Q881.81 331.26 893.02 331.26L893.02 331.26L919.38 331.26L919.38 340.95L892.17 340.95Q881.47 340.95 875.77 346.13Q870.08 351.32 870.08 359.65L870.08 359.65Q870.08 368.15 876.02 373.17Q881.98 378.18 892.17 378.18L892.17 378.18Q898.47 378.18 904.25 375.88Q910.02 373.59 913.93 368.06Q917.85 362.54 918.19 352.85L918.19 352.85L921.92 358.12Q921.25 368.15 917.16 374.87Q913.09 381.58 906.12 384.98Q899.14 388.38 889.79 388.38Z" fill="#F6F3EC" opacity="1"/><path d="M974.97 386L962.22 386L962.22 296.07L972.42 296.07L972.42 333.64L971.39 333.64Q971.39 313.92 980.07 304.49Q988.74 295.05 1007.26 295.05L1007.26 295.05L1010.15 295.05L1010.15 306.61L1004.88 306.61Q990.26 306.61 982.62 314.18Q974.97 321.74 974.97 336.36L974.97 336.36L974.97 386Z" fill="#F6F3EC" opacity="1"/><path d="M1095.66 386L1085.46 386L1085.46 358.97L1083.42 358.97L1083.42 327.01Q1083.42 316.98 1078.15 311.63Q1072.88 306.27 1061.84 306.27L1061.84 306.27Q1056.74 306.27 1051.55 306.44Q1046.37 306.61 1041.69 306.87Q1037.02 307.12 1033.44 307.46L1033.44 307.46L1033.44 296.24Q1037.18 295.90 1041.10 295.56Q1045.01 295.22 1049.17 295.13Q1053.34 295.05 1057.25 295.05L1057.25 295.05Q1071.02 295.05 1079.43 298.45Q1087.85 301.85 1091.76 309.07Q1095.66 316.30 1095.66 328.20L1095.66 328.20L1095.66 386ZM1055.04 388.38L1055.04 388.38Q1045.52 388.38 1038.20 384.98Q1030.89 381.58 1026.90 375.12Q1022.90 368.66 1022.90 359.48L1022.90 359.48Q1022.90 350.47 1027.07 344.18Q1031.24 337.89 1039.14 334.57Q1047.05 331.26 1058.27 331.26L1058.27 331.26L1084.62 331.26L1084.62 340.95L1057.41 340.95Q1046.70 340.95 1041.01 346.13Q1035.32 351.32 1035.32 359.65L1035.32 359.65Q1035.32 368.15 1041.27 373.17Q1047.21 378.18 1057.41 378.18L1057.41 378.18Q1063.70 378.18 1069.49 375.88Q1075.27 373.59 1079.17 368.06Q1083.09 362.54 1083.42 352.85L1083.42 352.85L1087.16 358.12Q1086.49 368.15 1082.40 374.87Q1078.33 381.58 1071.36 384.98Q1064.38 388.38 1055.04 388.38Z" fill="#F6F3EC" opacity="1"/><path d="M1164.35 388.89L1164.35 388.89Q1154.48 388.89 1146.41 385.24Q1138.33 381.58 1132.47 375.04Q1126.61 368.49 1123.46 360.07Q1120.31 351.66 1120.31 342.14L1120.31 342.14L1120.31 339.76Q1120.31 330.58 1123.38 322.16Q1126.43 313.75 1132.13 307.20Q1137.82 300.66 1145.90 296.83Q1153.97 293.01 1164.00 293.01L1164.00 293.01Q1175.39 293.01 1184.06 297.94Q1192.73 302.87 1198.00 312.13Q1203.27 321.40 1203.62 334.83L1203.62 334.83L1198.00 324.29L1198.00 261.90L1210.75 261.90L1210.75 386L1200.55 386L1200.55 346.05L1204.63 346.05Q1204.29 360.16 1198.77 369.76Q1193.24 379.37 1184.32 384.13Q1175.39 388.89 1164.35 388.89ZM1166.04 377.67L1166.04 377.67Q1175.22 377.67 1182.62 373.59Q1190.01 369.51 1194.26 361.94Q1198.51 354.38 1198.51 344.52L1198.51 344.52L1198.51 336.36Q1198.51 326.84 1194.26 319.62Q1190.01 312.39 1182.62 308.31Q1175.22 304.23 1165.88 304.23L1165.88 304.23Q1155.85 304.23 1148.45 309.07Q1141.05 313.92 1137.06 322.25Q1133.06 330.58 1133.06 340.95L1133.06 340.95Q1133.06 351.66 1137.14 359.99Q1141.22 368.32 1148.70 373.00Q1156.18 377.67 1166.04 377.67Z" fill="#F6F3EC" opacity="1"/><path d="M1308.67 386L1298.47 386L1298.47 358.97L1296.43 358.97L1296.43 327.01Q1296.43 316.98 1291.16 311.63Q1285.89 306.27 1274.84 306.27L1274.84 306.27Q1269.74 306.27 1264.56 306.44Q1259.38 306.61 1254.70 306.87Q1250.02 307.12 1246.45 307.46L1246.45 307.46L1246.45 296.24Q1250.19 295.90 1254.10 295.56Q1258.01 295.22 1262.18 295.13Q1266.34 295.05 1270.25 295.05L1270.25 295.05Q1284.02 295.05 1292.44 298.45Q1300.85 301.85 1304.76 309.07Q1308.67 316.30 1308.67 328.20L1308.67 328.20L1308.67 386ZM1268.04 388.38L1268.04 388.38Q1258.52 388.38 1251.21 384.98Q1243.90 381.58 1239.91 375.12Q1235.91 368.66 1235.91 359.48L1235.91 359.48Q1235.91 350.47 1240.08 344.18Q1244.24 337.89 1252.15 334.57Q1260.05 331.26 1271.27 331.26L1271.27 331.26L1297.63 331.26L1297.63 340.95L1270.42 340.95Q1259.71 340.95 1254.02 346.13Q1248.32 351.32 1248.32 359.65L1248.32 359.65Q1248.32 368.15 1254.27 373.17Q1260.22 378.18 1270.42 378.18L1270.42 378.18Q1276.71 378.18 1282.49 375.88Q1288.27 373.59 1292.18 368.06Q1296.09 362.54 1296.43 352.85L1296.43 352.85L1300.17 358.12Q1299.49 368.15 1295.41 374.87Q1291.33 381.58 1284.36 384.98Q1277.39 388.38 1268.04 388.38Z" fill="#F6F3EC" opacity="1"/><path d="M1343.36 421.02L1332.47 421.02L1332.47 409.63L1344.03 409.63Q1349.98 409.63 1354.23 408.19Q1358.48 406.74 1361.38 403.17Q1364.26 399.60 1366.30 393.31L1366.30 393.31L1396.56 296.07L1408.97 296.07L1377.36 396.88Q1374.63 405.55 1369.88 410.90Q1365.12 416.26 1358.48 418.64Q1351.86 421.02 1343.36 421.02L1343.36 421.02ZM1377.87 383.79L1361.71 383.79L1361.71 373.08L1377.87 373.08L1377.87 383.79ZM1372.08 383.79L1360.18 383.79L1327.54 296.07L1340.63 296.07L1372.08 383.79Z" fill="#F6F3EC" opacity="1"/>
        <path d="M779.57 495L772.69 495L772.69 473.40L779.57 473.40Q779.84 473.40 780.65 473.42Q781.45 473.43 782.20 473.52L782.20 473.52Q784.76 473.85 786.54 475.34Q788.32 476.83 789.23 479.14Q790.15 481.45 790.15 484.20L790.15 484.20Q790.15 486.94 789.23 489.25Q788.32 491.56 786.54 493.06Q784.76 494.55 782.20 494.88L782.20 494.88Q781.46 494.97 780.65 494.99Q779.84 495 779.57 495L779.57 495ZM776.36 476.81L776.36 491.60L779.57 491.60Q780.02 491.60 780.72 491.56Q781.42 491.54 781.96 491.43L781.96 491.43Q783.49 491.14 784.45 490.06Q785.41 488.99 785.87 487.44Q786.32 485.89 786.32 484.20L786.32 484.20Q786.32 482.44 785.86 480.90Q785.39 479.36 784.43 478.31Q783.46 477.25 781.96 476.97L781.96 476.97Q781.42 476.85 780.72 476.83Q780.02 476.81 779.57 476.81L779.57 476.81L776.36 476.81Z" fill="#F6F3EC" opacity="0.72"/><path d="M807.62 495L804.00 495L804.00 473.40L807.62 473.40L807.62 495Z" fill="#F6F3EC" opacity="0.72"/><path d="M830.11 495.45L830.11 495.45Q827.74 495.45 825.85 494.63Q823.95 493.80 822.73 492.26Q821.50 490.73 821.17 488.61L821.17 488.61L824.92 488.04Q825.40 489.96 826.90 491.01Q828.39 492.06 830.34 492.06L830.34 492.06Q831.49 492.06 832.51 491.70Q833.53 491.34 834.17 490.65Q834.81 489.96 834.81 488.95L834.81 488.95Q834.81 488.50 834.66 488.12Q834.51 487.74 834.22 487.44Q833.92 487.14 833.47 486.89Q833.01 486.64 832.41 486.46L832.41 486.46L826.83 484.81Q826.11 484.61 825.28 484.25Q824.44 483.90 823.70 483.28Q822.96 482.65 822.49 481.69Q822.01 480.72 822.01 479.30L822.01 479.30Q822.01 477.21 823.07 475.79Q824.13 474.38 825.92 473.67Q827.71 472.96 829.90 472.98L829.90 472.98Q832.12 473.00 833.86 473.74Q835.60 474.48 836.77 475.89Q837.94 477.30 838.42 479.30L838.42 479.30L834.54 479.97Q834.30 478.83 833.62 478.03Q832.93 477.23 831.95 476.81Q830.97 476.38 829.86 476.36L829.86 476.36Q828.78 476.34 827.86 476.68Q826.93 477.01 826.37 477.64Q825.81 478.27 825.81 479.12L825.81 479.12Q825.81 479.91 826.29 480.41Q826.77 480.92 827.48 481.21Q828.19 481.50 828.93 481.69L828.93 481.69L832.80 482.77Q833.59 482.99 834.58 483.35Q835.57 483.70 836.49 484.35Q837.40 485.00 838.00 486.05Q838.59 487.10 838.59 488.71L838.59 488.71Q838.59 490.39 837.89 491.66Q837.19 492.93 836.01 493.77Q834.82 494.61 833.30 495.03Q831.78 495.45 830.11 495.45Z" fill="#F6F3EC" opacity="0.72"/><path d="M860.98 495.45L860.98 495.45Q857.74 495.45 855.43 494.03Q853.12 492.62 851.88 490.08Q850.64 487.55 850.64 484.20L850.64 484.20Q850.64 480.86 851.88 478.32Q853.12 475.79 855.43 474.37Q857.74 472.95 860.98 472.95L860.98 472.95Q864.71 472.95 867.20 474.82Q869.69 476.69 870.70 479.85L870.70 479.85L867.05 480.86Q866.42 478.74 864.91 477.55Q863.39 476.36 860.98 476.36L860.98 476.36Q858.80 476.36 857.36 477.33Q855.91 478.31 855.18 480.07Q854.45 481.83 854.44 484.20L854.44 484.20Q854.44 486.57 855.17 488.33Q855.89 490.10 857.35 491.07Q858.80 492.05 860.98 492.05L860.98 492.05Q863.39 492.05 864.91 490.85Q866.42 489.64 867.05 487.55L867.05 487.55L870.70 488.55Q869.69 491.71 867.20 493.58Q864.71 495.45 860.98 495.45Z" fill="#F6F3EC" opacity="0.72"/><path d="M893.13 495.45L893.13 495.45Q889.89 495.45 887.58 494.03Q885.27 492.62 884.04 490.08Q882.80 487.55 882.80 484.20L882.80 484.20Q882.80 480.86 884.04 478.32Q885.27 475.79 887.58 474.37Q889.89 472.95 893.13 472.95L893.13 472.95Q896.37 472.95 898.69 474.37Q901.01 475.79 902.25 478.32Q903.48 480.86 903.48 484.20L903.48 484.20Q903.48 487.55 902.25 490.08Q901.01 492.62 898.69 494.03Q896.37 495.45 893.13 495.45ZM893.13 492.05L893.13 492.05Q895.31 492.06 896.75 491.08Q898.20 490.11 898.93 488.34Q899.66 486.57 899.66 484.20L899.66 484.20Q899.66 481.83 898.93 480.08Q898.20 478.33 896.75 477.36Q895.31 476.38 893.13 476.36L893.13 476.36Q890.96 476.34 889.52 477.31Q888.08 478.29 887.35 480.06Q886.62 481.83 886.62 484.20L886.62 484.20Q886.62 486.57 887.34 488.32Q888.06 490.06 889.51 491.04Q890.96 492.01 893.13 492.05Z" fill="#F6F3EC" opacity="0.72"/><path d="M920.14 495L916.48 495L916.48 473.40L920.14 473.40L930.16 488.63L930.16 473.40L933.82 473.40L933.82 495L930.16 495L920.14 479.77L920.14 495Z" fill="#F6F3EC" opacity="0.72"/><path d="M951.68 495L948.02 495L948.02 473.40L951.68 473.40L961.70 488.63L961.70 473.40L965.36 473.40L965.36 495L961.70 495L951.68 479.77L951.68 495Z" fill="#F6F3EC" opacity="0.72"/><path d="M993.51 495L979.56 495L979.56 473.40L993.51 473.40L993.51 476.79L983.18 476.79L983.18 482.12L991.71 482.12L991.71 485.50L983.18 485.50L983.18 491.61L993.51 491.61L993.51 495Z" fill="#F6F3EC" opacity="0.72"/><path d="M1016.25 495.45L1016.25 495.45Q1013.01 495.45 1010.70 494.03Q1008.39 492.62 1007.15 490.08Q1005.91 487.55 1005.91 484.20L1005.91 484.20Q1005.91 480.86 1007.15 478.32Q1008.39 475.79 1010.70 474.37Q1013.01 472.95 1016.25 472.95L1016.25 472.95Q1019.98 472.95 1022.47 474.82Q1024.96 476.69 1025.97 479.85L1025.97 479.85L1022.32 480.86Q1021.69 478.74 1020.18 477.55Q1018.66 476.36 1016.25 476.36L1016.25 476.36Q1014.07 476.36 1012.62 477.33Q1011.18 478.31 1010.45 480.07Q1009.72 481.83 1009.71 484.20L1009.71 484.20Q1009.71 486.57 1010.43 488.33Q1011.16 490.10 1012.62 491.07Q1014.07 492.05 1016.25 492.05L1016.25 492.05Q1018.66 492.05 1020.18 490.85Q1021.69 489.64 1022.32 487.55L1022.32 487.55L1025.97 488.55Q1024.96 491.71 1022.47 493.58Q1019.98 495.45 1016.25 495.45Z" fill="#F6F3EC" opacity="0.72"/><path d="M1048.07 495L1044.46 495L1044.46 476.79L1037.47 476.79L1037.47 473.40L1055.06 473.40L1055.06 476.79L1048.07 476.79L1048.07 495Z" fill="#F6F3EC" opacity="0.72"/><path d="M1096.47 495L1092.85 495L1092.85 476.79L1085.86 476.79L1085.86 473.40L1103.46 473.40L1103.46 476.79L1096.47 476.79L1096.47 495Z" fill="#F6F3EC" opacity="0.72"/><path d="M1124.99 495.45L1124.99 495.45Q1121.75 495.45 1119.44 494.03Q1117.13 492.62 1115.89 490.08Q1114.66 487.55 1114.66 484.20L1114.66 484.20Q1114.66 480.86 1115.89 478.32Q1117.13 475.79 1119.44 474.37Q1121.75 472.95 1124.99 472.95L1124.99 472.95Q1128.23 472.95 1130.55 474.37Q1132.87 475.79 1134.11 478.32Q1135.34 480.86 1135.34 484.20L1135.34 484.20Q1135.34 487.55 1134.11 490.08Q1132.87 492.62 1130.55 494.03Q1128.23 495.45 1124.99 495.45ZM1124.99 492.05L1124.99 492.05Q1127.17 492.06 1128.62 491.08Q1130.06 490.11 1130.79 488.34Q1131.52 486.57 1131.52 484.20L1131.52 484.20Q1131.52 481.83 1130.79 480.08Q1130.06 478.33 1128.62 477.36Q1127.17 476.38 1124.99 476.36L1124.99 476.36Q1122.82 476.34 1121.38 477.31Q1119.94 478.29 1119.21 480.06Q1118.48 481.83 1118.48 484.20L1118.48 484.20Q1118.48 486.57 1119.20 488.32Q1119.92 490.06 1121.37 491.04Q1122.82 492.01 1124.99 492.05Z" fill="#F6F3EC" opacity="0.72"/><path d="M1172.16 495L1168.54 495L1168.54 473.40L1177.47 473.40Q1177.78 473.40 1178.28 473.42Q1178.77 473.44 1179.19 473.52L1179.19 473.52Q1181.07 473.81 1182.29 474.76Q1183.51 475.73 1184.10 477.19Q1184.70 478.65 1184.70 480.44L1184.70 480.44Q1184.70 483.07 1183.36 484.97Q1182.03 486.87 1179.27 487.32L1179.27 487.32L1177.72 487.45L1172.16 487.45L1172.16 495ZM1185.04 495L1180.95 495L1176.69 486.21L1180.36 485.40L1185.04 495ZM1172.16 476.79L1172.16 484.08L1177.32 484.08Q1177.62 484.08 1177.99 484.05Q1178.37 484.02 1178.68 483.93L1178.68 483.93Q1179.58 483.70 1180.10 483.13Q1180.62 482.56 1180.83 481.85Q1181.05 481.13 1181.05 480.44L1181.05 480.44Q1181.05 479.75 1180.83 479.02Q1180.62 478.29 1180.10 477.72Q1179.58 477.15 1178.68 476.93L1178.68 476.93Q1178.37 476.83 1177.99 476.81Q1177.62 476.79 1177.32 476.79L1177.32 476.79L1172.16 476.79Z" fill="#F6F3EC" opacity="0.72"/><path d="M1212.29 495L1198.34 495L1198.34 473.40L1212.29 473.40L1212.29 476.79L1201.96 476.79L1201.96 482.12L1210.49 482.12L1210.49 485.50L1201.96 485.50L1201.96 491.61L1212.29 491.61L1212.29 495Z" fill="#F6F3EC" opacity="0.72"/><path d="M1235.03 495.45L1235.03 495.45Q1231.79 495.45 1229.48 494.03Q1227.17 492.62 1225.93 490.08Q1224.69 487.55 1224.69 484.20L1224.69 484.20Q1224.69 480.86 1225.93 478.32Q1227.17 475.79 1229.48 474.37Q1231.79 472.95 1235.03 472.95L1235.03 472.95Q1238.76 472.95 1241.25 474.82Q1243.74 476.69 1244.75 479.85L1244.75 479.85L1241.10 480.86Q1240.47 478.74 1238.96 477.55Q1237.44 476.36 1235.03 476.36L1235.03 476.36Q1232.85 476.36 1231.40 477.33Q1229.96 478.31 1229.23 480.07Q1228.50 481.83 1228.49 484.20L1228.49 484.20Q1228.49 486.57 1229.21 488.33Q1229.94 490.10 1231.40 491.07Q1232.85 492.05 1235.03 492.05L1235.03 492.05Q1237.44 492.05 1238.96 490.85Q1240.47 489.64 1241.10 487.55L1241.10 487.55L1244.75 488.55Q1243.74 491.71 1241.25 493.58Q1238.76 495.45 1235.03 495.45Z" fill="#F6F3EC" opacity="0.72"/><path d="M1267.18 495.45L1267.18 495.45Q1263.94 495.45 1261.63 494.03Q1259.32 492.62 1258.08 490.08Q1256.85 487.55 1256.85 484.20L1256.85 484.20Q1256.85 480.86 1258.08 478.32Q1259.32 475.79 1261.63 474.37Q1263.94 472.95 1267.18 472.95L1267.18 472.95Q1270.42 472.95 1272.74 474.37Q1275.06 475.79 1276.29 478.32Q1277.53 480.86 1277.53 484.20L1277.53 484.20Q1277.53 487.55 1276.29 490.08Q1275.06 492.62 1272.74 494.03Q1270.42 495.45 1267.18 495.45ZM1267.18 492.05L1267.18 492.05Q1269.36 492.06 1270.80 491.08Q1272.25 490.11 1272.98 488.34Q1273.71 486.57 1273.71 484.20L1273.71 484.20Q1273.71 481.83 1272.98 480.08Q1272.25 478.33 1270.80 477.36Q1269.36 476.38 1267.18 476.36L1267.18 476.36Q1265.01 476.34 1263.57 477.31Q1262.13 478.29 1261.40 480.06Q1260.67 481.83 1260.67 484.20L1260.67 484.20Q1260.67 486.57 1261.39 488.32Q1262.11 490.06 1263.56 491.04Q1265.01 492.01 1267.18 492.05Z" fill="#F6F3EC" opacity="0.72"/><path d="M1294.19 495L1290.53 495L1290.53 473.40L1294.19 473.40L1304.21 488.63L1304.21 473.40L1307.87 473.40L1307.87 495L1304.21 495L1294.19 479.77L1294.19 495Z" fill="#F6F3EC" opacity="0.72"/><path d="M1325.73 495L1322.07 495L1322.07 473.40L1325.73 473.40L1335.75 488.63L1335.75 473.40L1339.41 473.40L1339.41 495L1335.75 495L1325.73 479.77L1325.73 495Z" fill="#F6F3EC" opacity="0.72"/><path d="M1367.56 495L1353.61 495L1353.61 473.40L1367.56 473.40L1367.56 476.79L1357.23 476.79L1357.23 482.12L1365.76 482.12L1365.76 485.50L1357.23 485.50L1357.23 491.61L1367.56 491.61L1367.56 495Z" fill="#F6F3EC" opacity="0.72"/><path d="M1390.30 495.45L1390.30 495.45Q1387.06 495.45 1384.75 494.03Q1382.44 492.62 1381.20 490.08Q1379.96 487.55 1379.96 484.20L1379.96 484.20Q1379.96 480.86 1381.20 478.32Q1382.44 475.79 1384.75 474.37Q1387.06 472.95 1390.30 472.95L1390.30 472.95Q1394.03 472.95 1396.52 474.82Q1399.01 476.69 1400.02 479.85L1400.02 479.85L1396.37 480.86Q1395.74 478.74 1394.23 477.55Q1392.71 476.36 1390.30 476.36L1390.30 476.36Q1388.12 476.36 1386.67 477.33Q1385.23 478.31 1384.50 480.07Q1383.77 481.83 1383.76 484.20L1383.76 484.20Q1383.76 486.57 1384.48 488.33Q1385.21 490.10 1386.67 491.07Q1388.12 492.05 1390.30 492.05L1390.30 492.05Q1392.71 492.05 1394.23 490.85Q1395.74 489.64 1396.37 487.55L1396.37 487.55L1400.02 488.55Q1399.01 491.71 1396.52 493.58Q1394.03 495.45 1390.30 495.45Z" fill="#F6F3EC" opacity="0.72"/><path d="M1422.12 495L1418.51 495L1418.51 476.79L1411.52 476.79L1411.52 473.40L1429.11 473.40L1429.11 476.79L1422.12 476.79L1422.12 495Z" fill="#F6F3EC" opacity="0.72"/>
      
</svg>