<?xml version="1.0" encoding="UTF-8"?>
<svg xmlns="http://www.w3.org/2000/svg" width="2200" height="780" viewBox="0 0 2200 780" fill="none">
  
  
        <path d="M816.52 386L804.28 386L804.28 289.10Q804.28 274.99 811.60 268.19Q818.90 261.39 833.52 261.39L833.52 261.39L844.91 261.39L844.91 272.27L831.14 272.27Q824.00 272.27 820.26 276.01Q816.52 279.75 816.52 286.55L816.52 286.55L816.52 386ZM846.78 306.61L791.20 306.61L791.20 296.75L846.78 296.75L846.78 306.61Z" fill="#151D2A" opacity="1"/><path d="M930.42 386L920.23 386L920.23 358.97L918.19 358.97L918.19 327.01Q918.19 316.98 912.91 311.63Q907.64 306.27 896.60 306.27L896.60 306.27Q891.50 306.27 886.31 306.44Q881.13 306.61 876.45 306.87Q871.77 307.12 868.21 307.46L868.21 307.46L868.21 296.24Q871.95 295.90 875.86 295.56Q879.76 295.22 883.93 295.13Q888.10 295.05 892.00 295.05L892.00 295.05Q905.77 295.05 914.19 298.45Q922.61 301.85 926.51 309.07Q930.42 316.30 930.42 328.20L930.42 328.20L930.42 386ZM889.79 388.38L889.79 388.38Q880.27 388.38 872.97 384.98Q865.65 381.58 861.66 375.12Q857.66 368.66 857.66 359.48L857.66 359.48Q857.66 350.47 861.83 344.18Q866.00 337.89 873.90 334.57Q881.81 331.26 893.02 331.26L893.02 331.26L919.38 331.26L919.38 340.95L892.17 340.95Q881.47 340.95 875.77 346.13Q870.08 351.32 870.08 359.65L870.08 359.65Q870.08 368.15 876.02 373.17Q881.98 378.18 892.17 378.18L892.17 378.18Q898.47 378.18 904.25 375.88Q910.02 373.59 913.93 368.06Q917.85 362.54 918.19 352.85L918.19 352.85L921.92 358.12Q921.25 368.15 917.16 374.87Q913.09 381.58 906.12 384.98Q899.14 388.38 889.79 388.38Z" fill="#151D2A" opacity="1"/><path d="M974.97 386L962.22 386L962.22 296.07L972.42 296.07L972.42 333.64L971.39 333.64Q971.39 313.92 980.07 304.49Q988.74 295.05 1007.26 295.05L1007.26 295.05L1010.15 295.05L1010.15 306.61L1004.88 306.61Q990.26 306.61 982.62 314.18Q974.97 321.74 974.97 336.36L974.97 336.36L974.97 386Z" fill="#151D2A" opacity="1"/><path d="M1095.66 386L1085.46 386L1085.46 358.97L1083.42 358.97L1083.42 327.01Q1083.42 316.98 1078.15 311.63Q1072.88 306.27 1061.84 306.27L1061.84 306.27Q1056.74 306.27 1051.55 306.44Q1046.37 306.61 1041.69 306.87Q1037.02 307.12 1033.44 307.46L1033.44 307.46L1033.44 296.24Q1037.18 295.90 1041.10 295.56Q1045.01 295.22 1049.17 295.13Q1053.34 295.05 1057.25 295.05L1057.25 295.05Q1071.02 295.05 1079.43 298.45Q1087.85 301.85 1091.76 309.07Q1095.66 316.30 1095.66 328.20L1095.66 328.20L1095.66 386ZM1055.04 388.38L1055.04 388.38Q1045.52 388.38 1038.20 384.98Q1030.89 381.58 1026.90 375.12Q1022.90 368.66 1022.90 359.48L1022.90 359.48Q1022.90 350.47 1027.07 344.18Q1031.24 337.89 1039.14 334.57Q1047.05 331.26 1058.27 331.26L1058.27 331.26L1084.62 331.26L1084.62 340.95L1057.41 340.95Q1046.70 340.95 1041.01 346.13Q1035.32 351.32 1035.32 359.65L1035.32 359.65Q1035.32 368.15 1041.27 373.17Q1047.21 378.18 1057.41 378.18L1057.41 378.18Q1063.70 378.18 1069.49 375.88Q1075.27 373.59 1079.17 368.06Q1083.09 362.54 1083.42 352.85L1083.42 352.85L1087.16 358.12Q1086.49 368.15 1082.40 374.87Q1078.33 381.58 1071.36 384.98Q1064.38 388.38 1055.04 388.38Z" fill="#151D2A" opacity="1"/><path d="M1164.35 388.89L1164.35 388.89Q1154.48 388.89 1146.41 385.24Q1138.33 381.58 1132.47 375.04Q1126.61 368.49 1123.46 360.07Q1120.31 351.66 1120.31 342.14L1120.31 342.14L1120.31 339.76Q1120.31 330.58 1123.38 322.16Q1126.43 313.75 1132.13 307.20Q1137.82 300.66 1145.90 296.83Q1153.97 293.01 1164.00 293.01L1164.00 293.01Q1175.39 293.01 1184.06 297.94Q1192.73 302.87 1198.00 312.13Q1203.27 321.40 1203.62 334.83L1203.62 334.83L1198.00 324.29L1198.00 261.90L1210.75 261.90L1210.75 386L1200.55 386L1200.55 346.05L1204.63 346.05Q1204.29 360.16 1198.77 369.76Q1193.24 379.37 1184.32 384.13Q1175.39 388.89 1164.35 388.89ZM1166.04 377.67L1166.04 377.67Q1175.22 377.67 1182.62 373.59Q1190.01 369.51 1194.26 361.94Q1198.51 354.38 1198.51 344.52L1198.51 344.52L1198.51 336.36Q1198.51 326.84 1194.26 319.62Q1190.01 312.39 1182.62 308.31Q1175.22 304.23 1165.88 304.23L1165.88 304.23Q1155.85 304.23 1148.45 309.07Q1141.05 313.92 1137.06 322.25Q1133.06 330.58 1133.06 340.95L1133.06 340.95Q1133.06 351.66 1137.14 359.99Q1141.22 368.32 1148.70 373.00Q1156.18 377.67 1166.04 377.67Z" fill="#151D2A" opacity="1"/><path d="M1308.67 386L1298.47 386L1298.47 358.97L1296.43 358.97L1296.43 327.01Q1296.43 316.98 1291.16 311.63Q1285.89 306.27 1274.84 306.27L1274.84 306.27Q1269.74 306.27 1264.56 306.44Q1259.38 306.61 1254.70 306.87Q1250.02 307.12 1246.45 307.46L1246.45 307.46L1246.45 296.24Q1250.19 295.90 1254.10 295.56Q1258.01 295.22 1262.18 295.13Q1266.34 295.05 1270.25 295.05L1270.25 295.05Q1284.02 295.05 1292.44 298.45Q1300.85 301.85 1304.76 309.07Q1308.67 316.30 1308.67 328.20L1308.67 328.20L1308.67 386ZM1268.04 388.38L1268.04 388.38Q1258.52 388.38 1251.21 384.98Q1243.90 381.58 1239.91 375.12Q1235.91 368.66 1235.91 359.48L1235.91 359.48Q1235.91 350.47 1240.08 344.18Q1244.24 337.89 1252.15 334.57Q1260.05 331.26 1271.27 331.26L1271.27 331.26L1297.63 331.26L1297.63 340.95L1270.42 340.95Q1259.71 340.95 1254.02 346.13Q1248.32 351.32 1248.32 359.65L1248.32 359.65Q1248.32 368.15 1254.27 373.17Q1260.22 378.18 1270.42 378.18L1270.42 378.18Q1276.71 378.18 1282.49 375.88Q1288.27 373.59 1292.18 368.06Q1296.09 362.54 1296.43 352.85L1296.43 352.85L1300.17 358.12Q1299.49 368.15 1295.41 374.87Q1291.33 381.58 1284.36 384.98Q1277.39 388.38 1268.04 388.38Z" fill="#151D2A" opacity="1"/><path d="M1343.36 421.02L1332.47 421.02L1332.47 409.63L1344.03 409.63Q1349.98 409.63 1354.23 408.19Q1358.48 406.74 1361.38 403.17Q1364.26 399.60 1366.30 393.31L1366.30 393.31L1396.56 296.07L1408.97 296.07L1377.36 396.88Q1374.63 405.55 1369.88 410.90Q1365.12 416.26 1358.48 418.64Q1351.86 421.02 1343.36 421.02L1343.36 421.02ZM1377.87 383.79L1361.71 383.79L1361.71 373.08L1377.87 373.08L1377.87 383.79ZM1372.08 383.79L1360.18 383.79L1327.54 296.07L1340.63 296.07L1372.08 383.79Z" fill="#151D2A" opacity="1"/>
        <path d="M779.57 485L772.69 485L772.69 463.40L779.57 463.40Q779.84 463.40 780.65 463.42Q781.45 463.43 782.20 463.52L782.20 463.52Q784.76 463.85 786.54 465.34Q788.32 466.83 789.23 469.14Q790.15 471.45 790.15 474.20L790.15 474.20Q790.15 476.94 789.23 479.25Q788.32 481.56 786.54 483.06Q784.76 484.55 782.20 484.88L782.20 484.88Q781.46 484.97 780.65 484.99Q779.84 485 779.57 485L779.57 485ZM776.36 466.81L776.36 481.60L779.57 481.60Q780.02 481.60 780.72 481.56Q781.42 481.54 781.96 481.43L781.96 481.43Q783.49 481.14 784.45 480.06Q785.41 478.99 785.87 477.44Q786.32 475.89 786.32 474.20L786.32 474.20Q786.32 472.44 785.86 470.90Q785.39 469.36 784.43 468.31Q783.46 467.25 781.96 466.97L781.96 466.97Q781.42 466.85 780.72 466.83Q780.02 466.81 779.57 466.81L779.57 466.81L776.36 466.81Z" fill="#151D2A" opacity="0.62"/><path d="M807.62 485L804.00 485L804.00 463.40L807.62 463.40L807.62 485Z" fill="#151D2A" opacity="0.62"/><path d="M830.11 485.45L830.11 485.45Q827.74 485.45 825.85 484.63Q823.95 483.80 822.73 482.26Q821.50 480.73 821.17 478.61L821.17 478.61L824.92 478.04Q825.40 479.96 826.90 481.01Q828.39 482.06 830.34 482.06L830.34 482.06Q831.49 482.06 832.51 481.70Q833.53 481.34 834.17 480.65Q834.81 479.96 834.81 478.95L834.81 478.95Q834.81 478.50 834.66 478.12Q834.51 477.74 834.22 477.44Q833.92 477.14 833.47 476.89Q833.01 476.64 832.41 476.46L832.41 476.46L826.83 474.81Q826.11 474.61 825.28 474.25Q824.44 473.90 823.70 473.28Q822.96 472.65 822.49 471.69Q822.01 470.72 822.01 469.30L822.01 469.30Q822.01 467.21 823.07 465.79Q824.13 464.38 825.92 463.67Q827.71 462.96 829.90 462.98L829.90 462.98Q832.12 463.00 833.86 463.74Q835.60 464.48 836.77 465.89Q837.94 467.30 838.42 469.30L838.42 469.30L834.54 469.97Q834.30 468.83 833.62 468.03Q832.93 467.23 831.95 466.81Q830.97 466.38 829.86 466.36L829.86 466.36Q828.78 466.34 827.86 466.68Q826.93 467.01 826.37 467.64Q825.81 468.27 825.81 469.12L825.81 469.12Q825.81 469.91 826.29 470.41Q826.77 470.92 827.48 471.21Q828.19 471.50 828.93 471.69L828.93 471.69L832.80 472.77Q833.59 472.99 834.58 473.35Q835.57 473.70 836.49 474.35Q837.40 475.00 838.00 476.05Q838.59 477.10 838.59 478.71L838.59 478.71Q838.59 480.39 837.89 481.66Q837.19 482.93 836.01 483.77Q834.82 484.61 833.30 485.03Q831.78 485.45 830.11 485.45Z" fill="#151D2A" opacity="0.62"/><path d="M860.98 485.45L860.98 485.45Q857.74 485.45 855.43 484.03Q853.12 482.62 851.88 480.08Q850.64 477.55 850.64 474.20L850.64 474.20Q850.64 470.86 851.88 468.32Q853.12 465.79 855.43 464.37Q857.74 462.95 860.98 462.95L860.98 462.95Q864.71 462.95 867.20 464.82Q869.69 466.69 870.70 469.85L870.70 469.85L867.05 470.86Q866.42 468.74 864.91 467.55Q863.39 466.36 860.98 466.36L860.98 466.36Q858.80 466.36 857.36 467.33Q855.91 468.31 855.18 470.07Q854.45 471.83 854.44 474.20L854.44 474.20Q854.44 476.57 855.17 478.33Q855.89 480.10 857.35 481.07Q858.80 482.05 860.98 482.05L860.98 482.05Q863.39 482.05 864.91 480.85Q866.42 479.64 867.05 477.55L867.05 477.55L870.70 478.55Q869.69 481.71 867.20 483.58Q864.71 485.45 860.98 485.45Z" fill="#151D2A" opacity="0.62"/><path d="M893.13 485.45L893.13 485.45Q889.89 485.45 887.58 484.03Q885.27 482.62 884.04 480.08Q882.80 477.55 882.80 474.20L882.80 474.20Q882.80 470.86 884.04 468.32Q885.27 465.79 887.58 464.37Q889.89 462.95 893.13 462.95L893.13 462.95Q896.37 462.95 898.69 464.37Q901.01 465.79 902.25 468.32Q903.48 470.86 903.48 474.20L903.48 474.20Q903.48 477.55 902.25 480.08Q901.01 482.62 898.69 484.03Q896.37 485.45 893.13 485.45ZM893.13 482.05L893.13 482.05Q895.31 482.06 896.75 481.08Q898.20 480.11 898.93 478.34Q899.66 476.57 899.66 474.20L899.66 474.20Q899.66 471.83 898.93 470.08Q898.20 468.33 896.75 467.36Q895.31 466.38 893.13 466.36L893.13 466.36Q890.96 466.34 889.52 467.31Q888.08 468.29 887.35 470.06Q886.62 471.83 886.62 474.20L886.62 474.20Q886.62 476.57 887.34 478.32Q888.06 480.06 889.51 481.04Q890.96 482.01 893.13 482.05Z" fill="#151D2A" opacity="0.62"/><path d="M920.14 485L916.48 485L916.48 463.40L920.14 463.40L930.16 478.63L930.16 463.40L933.82 463.40L933.82 485L930.16 485L920.14 469.77L920.14 485Z" fill="#151D2A" opacity="0.62"/><path d="M951.68 485L948.02 485L948.02 463.40L951.68 463.40L961.70 478.63L961.70 463.40L965.36 463.40L965.36 485L961.70 485L951.68 469.77L951.68 485Z" fill="#151D2A" opacity="0.62"/><path d="M993.51 485L979.56 485L979.56 463.40L993.51 463.40L993.51 466.79L983.18 466.79L983.18 472.12L991.71 472.12L991.71 475.50L983.18 475.50L983.18 481.61L993.51 481.61L993.51 485Z" fill="#151D2A" opacity="0.62"/><path d="M1016.25 485.45L1016.25 485.45Q1013.01 485.45 1010.70 484.03Q1008.39 482.62 1007.15 480.08Q1005.91 477.55 1005.91 474.20L1005.91 474.20Q1005.91 470.86 1007.15 468.32Q1008.39 465.79 1010.70 464.37Q1013.01 462.95 1016.25 462.95L1016.25 462.95Q1019.98 462.95 1022.47 464.82Q1024.96 466.69 1025.97 469.85L1025.97 469.85L1022.32 470.86Q1021.69 468.74 1020.18 467.55Q1018.66 466.36 1016.25 466.36L1016.25 466.36Q1014.07 466.36 1012.62 467.33Q1011.18 468.31 1010.45 470.07Q1009.72 471.83 1009.71 474.20L1009.71 474.20Q1009.71 476.57 1010.43 478.33Q1011.16 480.10 1012.62 481.07Q1014.07 482.05 1016.25 482.05L1016.25 482.05Q1018.66 482.05 1020.18 480.85Q1021.69 479.64 1022.32 477.55L1022.32 477.55L1025.97 478.55Q1024.96 481.71 1022.47 483.58Q1019.98 485.45 1016.25 485.45Z" fill="#151D2A" opacity="0.62"/><path d="M1048.07 485L1044.46 485L1044.46 466.79L1037.47 466.79L1037.47 463.40L1055.06 463.40L1055.06 466.79L1048.07 466.79L1048.07 485Z" fill="#151D2A" opacity="0.62"/><path d="M1096.47 485L1092.85 485L1092.85 466.79L1085.86 466.79L1085.86 463.40L1103.46 463.40L1103.46 466.79L1096.47 466.79L1096.47 485Z" fill="#151D2A" opacity="0.62"/><path d="M1124.99 485.45L1124.99 485.45Q1121.75 485.45 1119.44 484.03Q1117.13 482.62 1115.89 480.08Q1114.66 477.55 1114.66 474.20L1114.66 474.20Q1114.66 470.86 1115.89 468.32Q1117.13 465.79 1119.44 464.37Q1121.75 462.95 1124.99 462.95L1124.99 462.95Q1128.23 462.95 1130.55 464.37Q1132.87 465.79 1134.11 468.32Q1135.34 470.86 1135.34 474.20L1135.34 474.20Q1135.34 477.55 1134.11 480.08Q1132.87 482.62 1130.55 484.03Q1128.23 485.45 1124.99 485.45ZM1124.99 482.05L1124.99 482.05Q1127.17 482.06 1128.62 481.08Q1130.06 480.11 1130.79 478.34Q1131.52 476.57 1131.52 474.20L1131.52 474.20Q1131.52 471.83 1130.79 470.08Q1130.06 468.33 1128.62 467.36Q1127.17 466.38 1124.99 466.36L1124.99 466.36Q1122.82 466.34 1121.38 467.31Q1119.94 468.29 1119.21 470.06Q1118.48 471.83 1118.48 474.20L1118.48 474.20Q1118.48 476.57 1119.20 478.32Q1119.92 480.06 1121.37 481.04Q1122.82 482.01 1124.99 482.05Z" fill="#151D2A" opacity="0.62"/><path d="M1172.16 485L1168.54 485L1168.54 463.40L1177.47 463.40Q1177.78 463.40 1178.28 463.42Q1178.77 463.44 1179.19 463.52L1179.19 463.52Q1181.07 463.81 1182.29 464.76Q1183.51 465.73 1184.10 467.19Q1184.70 468.65 1184.70 470.44L1184.70 470.44Q1184.70 473.07 1183.36 474.97Q1182.03 476.87 1179.27 477.32L1179.27 477.32L1177.72 477.45L1172.16 477.45L1172.16 485ZM1185.04 485L1180.95 485L1176.69 476.21L1180.36 475.40L1185.04 485ZM1172.16 466.79L1172.16 474.08L1177.32 474.08Q1177.62 474.08 1177.99 474.05Q1178.37 474.02 1178.68 473.93L1178.68 473.93Q1179.58 473.70 1180.10 473.13Q1180.62 472.56 1180.83 471.85Q1181.05 471.13 1181.05 470.44L1181.05 470.44Q1181.05 469.75 1180.83 469.02Q1180.62 468.29 1180.10 467.72Q1179.58 467.15 1178.68 466.93L1178.68 466.93Q1178.37 466.83 1177.99 466.81Q1177.62 466.79 1177.32 466.79L1177.32 466.79L1172.16 466.79Z" fill="#151D2A" opacity="0.62"/><path d="M1212.29 485L1198.34 485L1198.34 463.40L1212.29 463.40L1212.29 466.79L1201.96 466.79L1201.96 472.12L1210.49 472.12L1210.49 475.50L1201.96 475.50L1201.96 481.61L1212.29 481.61L1212.29 485Z" fill="#151D2A" opacity="0.62"/><path d="M1235.03 485.45L1235.03 485.45Q1231.79 485.45 1229.48 484.03Q1227.17 482.62 1225.93 480.08Q1224.69 477.55 1224.69 474.20L1224.69 474.20Q1224.69 470.86 1225.93 468.32Q1227.17 465.79 1229.48 464.37Q1231.79 462.95 1235.03 462.95L1235.03 462.95Q1238.76 462.95 1241.25 464.82Q1243.74 466.69 1244.75 469.85L1244.75 469.85L1241.10 470.86Q1240.47 468.74 1238.96 467.55Q1237.44 466.36 1235.03 466.36L1235.03 466.36Q1232.85 466.36 1231.40 467.33Q1229.96 468.31 1229.23 470.07Q1228.50 471.83 1228.49 474.20L1228.49 474.20Q1228.49 476.57 1229.21 478.33Q1229.94 480.10 1231.40 481.07Q1232.85 482.05 1235.03 482.05L1235.03 482.05Q1237.44 482.05 1238.96 480.85Q1240.47 479.64 1241.10 477.55L1241.10 477.55L1244.75 478.55Q1243.74 481.71 1241.25 483.58Q1238.76 485.45 1235.03 485.45Z" fill="#151D2A" opacity="0.62"/><path d="M1267.18 485.45L1267.18 485.45Q1263.94 485.45 1261.63 484.03Q1259.32 482.62 1258.08 480.08Q1256.85 477.55 1256.85 474.20L1256.85 474.20Q1256.85 470.86 1258.08 468.32Q1259.32 465.79 1261.63 464.37Q1263.94 462.95 1267.18 462.95L1267.18 462.95Q1270.42 462.95 1272.74 464.37Q1275.06 465.79 1276.29 468.32Q1277.53 470.86 1277.53 474.20L1277.53 474.20Q1277.53 477.55 1276.29 480.08Q1275.06 482.62 1272.74 484.03Q1270.42 485.45 1267.18 485.45ZM1267.18 482.05L1267.18 482.05Q1269.36 482.06 1270.80 481.08Q1272.25 480.11 1272.98 478.34Q1273.71 476.57 1273.71 474.20L1273.71 474.20Q1273.71 471.83 1272.98 470.08Q1272.25 468.33 1270.80 467.36Q1269.36 466.38 1267.18 466.36L1267.18 466.36Q1265.01 466.34 1263.57 467.31Q1262.13 468.29 1261.40 470.06Q1260.67 471.83 1260.67 474.20L1260.67 474.20Q1260.67 476.57 1261.39 478.32Q1262.11 480.06 1263.56 481.04Q1265.01 482.01 1267.18 482.05Z" fill="#151D2A" opacity="0.62"/><path d="M1294.19 485L1290.53 485L1290.53 463.40L1294.19 463.40L1304.21 478.63L1304.21 463.40L1307.87 463.40L1307.87 485L1304.21 485L1294.19 469.77L1294.19 485Z" fill="#151D2A" opacity="0.62"/><path d="M1325.73 485L1322.07 485L1322.07 463.40L1325.73 463.40L1335.75 478.63L1335.75 463.40L1339.41 463.40L1339.41 485L1335.75 485L1325.73 469.77L1325.73 485Z" fill="#151D2A" opacity="0.62"/><path d="M1367.56 485L1353.61 485L1353.61 463.40L1367.56 463.40L1367.56 466.79L1357.23 466.79L1357.23 472.12L1365.76 472.12L1365.76 475.50L1357.23 475.50L1357.23 481.61L1367.56 481.61L1367.56 485Z" fill="#151D2A" opacity="0.62"/><path d="M1390.30 485.45L1390.30 485.45Q1387.06 485.45 1384.75 484.03Q1382.44 482.62 1381.20 480.08Q1379.96 477.55 1379.96 474.20L1379.96 474.20Q1379.96 470.86 1381.20 468.32Q1382.44 465.79 1384.75 464.37Q1387.06 462.95 1390.30 462.95L1390.30 462.95Q1394.03 462.95 1396.52 464.82Q1399.01 466.69 1400.02 469.85L1400.02 469.85L1396.37 470.86Q1395.74 468.74 1394.23 467.55Q1392.71 466.36 1390.30 466.36L1390.30 466.36Q1388.12 466.36 1386.67 467.33Q1385.23 468.31 1384.50 470.07Q1383.77 471.83 1383.76 474.20L1383.76 474.20Q1383.76 476.57 1384.48 478.33Q1385.21 480.10 1386.67 481.07Q1388.12 482.05 1390.30 482.05L1390.30 482.05Q1392.71 482.05 1394.23 480.85Q1395.74 479.64 1396.37 477.55L1396.37 477.55L1400.02 478.55Q1399.01 481.71 1396.52 483.58Q1394.03 485.45 1390.30 485.45Z" fill="#151D2A" opacity="0.62"/><path d="M1422.12 485L1418.51 485L1418.51 466.79L1411.52 466.79L1411.52 463.40L1429.11 463.40L1429.11 466.79L1422.12 466.79L1422.12 485Z" fill="#151D2A" opacity="0.62"/>
      
</svg>