<?xml version="1.0" encoding="UTF-8"?>
<svg xmlns="http://www.w3.org/2000/svg" width="2200" height="780" viewBox="0 0 2200 780" fill="none">
  
  
        <path d="M816.52 386L804.28 386L804.28 289.10Q804.28 274.99 811.60 268.19Q818.90 261.39 833.52 261.39L833.52 261.39L844.91 261.39L844.91 272.27L831.14 272.27Q824.00 272.27 820.26 276.01Q816.52 279.75 816.52 286.55L816.52 286.55L816.52 386ZM846.78 306.61L791.20 306.61L791.20 296.75L846.78 296.75L846.78 306.61Z" fill="#151D2A" opacity="1"/><path d="M930.42 386L920.23 386L920.23 358.97L918.19 358.97L918.19 327.01Q918.19 316.98 912.91 311.63Q907.64 306.27 896.60 306.27L896.60 306.27Q891.50 306.27 886.31 306.44Q881.13 306.61 876.45 306.87Q871.77 307.12 868.21 307.46L868.21 307.46L868.21 296.24Q871.95 295.90 875.86 295.56Q879.76 295.22 883.93 295.13Q888.10 295.05 892.00 295.05L892.00 295.05Q905.77 295.05 914.19 298.45Q922.61 301.85 926.51 309.07Q930.42 316.30 930.42 328.20L930.42 328.20L930.42 386ZM889.79 388.38L889.79 388.38Q880.27 388.38 872.97 384.98Q865.65 381.58 861.66 375.12Q857.66 368.66 857.66 359.48L857.66 359.48Q857.66 350.47 861.83 344.18Q866.00 337.89 873.90 334.57Q881.81 331.26 893.02 331.26L893.02 331.26L919.38 331.26L919.38 340.95L892.17 340.95Q881.47 340.95 875.77 346.13Q870.08 351.32 870.08 359.65L870.08 359.65Q870.08 368.15 876.02 373.17Q881.98 378.18 892.17 378.18L892.17 378.18Q898.47 378.18 904.25 375.88Q910.02 373.59 913.93 368.06Q917.85 362.54 918.19 352.85L918.19 352.85L921.92 358.12Q921.25 368.15 917.16 374.87Q913.09 381.58 906.12 384.98Q899.14 388.38 889.79 388.38Z" fill="#151D2A" opacity="1"/><path d="M974.97 386L962.22 386L962.22 296.07L972.42 296.07L972.42 333.64L971.39 333.64Q971.39 313.92 980.07 304.49Q988.74 295.05 1007.26 295.05L1007.26 295.05L1010.15 295.05L1010.15 306.61L1004.88 306.61Q990.26 306.61 982.62 314.18Q974.97 321.74 974.97 336.36L974.97 336.36L974.97 386Z" fill="#151D2A" opacity="1"/><path d="M1095.66 386L1085.46 386L1085.46 358.97L1083.42 358.97L1083.42 327.01Q1083.42 316.98 1078.15 311.63Q1072.88 306.27 1061.84 306.27L1061.84 306.27Q1056.74 306.27 1051.55 306.44Q1046.37 306.61 1041.69 306.87Q1037.02 307.12 1033.44 307.46L1033.44 307.46L1033.44 296.24Q1037.18 295.90 1041.10 295.56Q1045.01 295.22 1049.17 295.13Q1053.34 295.05 1057.25 295.05L1057.25 295.05Q1071.02 295.05 1079.43 298.45Q1087.85 301.85 1091.76 309.07Q1095.66 316.30 1095.66 328.20L1095.66 328.20L1095.66 386ZM1055.04 388.38L1055.04 388.38Q1045.52 388.38 1038.20 384.98Q1030.89 381.58 1026.90 375.12Q1022.90 368.66 1022.90 359.48L1022.90 359.48Q1022.90 350.47 1027.07 344.18Q1031.24 337.89 1039.14 334.57Q1047.05 331.26 1058.27 331.26L1058.27 331.26L1084.62 331.26L1084.62 340.95L1057.41 340.95Q1046.70 340.95 1041.01 346.13Q1035.32 351.32 1035.32 359.65L1035.32 359.65Q1035.32 368.15 1041.27 373.17Q1047.21 378.18 1057.41 378.18L1057.41 378.18Q1063.70 378.18 1069.49 375.88Q1075.27 373.59 1079.17 368.06Q1083.09 362.54 1083.42 352.85L1083.42 352.85L1087.16 358.12Q1086.49 368.15 1082.40 374.87Q1078.33 381.58 1071.36 384.98Q1064.38 388.38 1055.04 388.38Z" fill="#151D2A" opacity="1"/><path d="M1164.35 388.89L1164.35 388.89Q1154.48 388.89 1146.41 385.24Q1138.33 381.58 1132.47 375.04Q1126.61 368.49 1123.46 360.07Q1120.31 351.66 1120.31 342.14L1120.31 342.14L1120.31 339.76Q1120.31 330.58 1123.38 322.16Q1126.43 313.75 1132.13 307.20Q1137.82 300.66 1145.90 296.83Q1153.97 293.01 1164.00 293.01L1164.00 293.01Q1175.39 293.01 1184.06 297.94Q1192.73 302.87 1198.00 312.13Q1203.27 321.40 1203.62 334.83L1203.62 334.83L1198.00 324.29L1198.00 261.90L1210.75 261.90L1210.75 386L1200.55 386L1200.55 346.05L1204.63 346.05Q1204.29 360.16 1198.77 369.76Q1193.24 379.37 1184.32 384.13Q1175.39 388.89 1164.35 388.89ZM1166.04 377.67L1166.04 377.67Q1175.22 377.67 1182.62 373.59Q1190.01 369.51 1194.26 361.94Q1198.51 354.38 1198.51 344.52L1198.51 344.52L1198.51 336.36Q1198.51 326.84 1194.26 319.62Q1190.01 312.39 1182.62 308.31Q1175.22 304.23 1165.88 304.23L1165.88 304.23Q1155.85 304.23 1148.45 309.07Q1141.05 313.92 1137.06 322.25Q1133.06 330.58 1133.06 340.95L1133.06 340.95Q1133.06 351.66 1137.14 359.99Q1141.22 368.32 1148.70 373.00Q1156.18 377.67 1166.04 377.67Z" fill="#151D2A" opacity="1"/><path d="M1308.67 386L1298.47 386L1298.47 358.97L1296.43 358.97L1296.43 327.01Q1296.43 316.98 1291.16 311.63Q1285.89 306.27 1274.84 306.27L1274.84 306.27Q1269.74 306.27 1264.56 306.44Q1259.38 306.61 1254.70 306.87Q1250.02 307.12 1246.45 307.46L1246.45 307.46L1246.45 296.24Q1250.19 295.90 1254.10 295.56Q1258.01 295.22 1262.18 295.13Q1266.34 295.05 1270.25 295.05L1270.25 295.05Q1284.02 295.05 1292.44 298.45Q1300.85 301.85 1304.76 309.07Q1308.67 316.30 1308.67 328.20L1308.67 328.20L1308.67 386ZM1268.04 388.38L1268.04 388.38Q1258.52 388.38 1251.21 384.98Q1243.90 381.58 1239.91 375.12Q1235.91 368.66 1235.91 359.48L1235.91 359.48Q1235.91 350.47 1240.08 344.18Q1244.24 337.89 1252.15 334.57Q1260.05 331.26 1271.27 331.26L1271.27 331.26L1297.63 331.26L1297.63 340.95L1270.42 340.95Q1259.71 340.95 1254.02 346.13Q1248.32 351.32 1248.32 359.65L1248.32 359.65Q1248.32 368.15 1254.27 373.17Q1260.22 378.18 1270.42 378.18L1270.42 378.18Q1276.71 378.18 1282.49 375.88Q1288.27 373.59 1292.18 368.06Q1296.09 362.54 1296.43 352.85L1296.43 352.85L1300.17 358.12Q1299.49 368.15 1295.41 374.87Q1291.33 381.58 1284.36 384.98Q1277.39 388.38 1268.04 388.38Z" fill="#151D2A" opacity="1"/><path d="M1343.36 421.02L1332.47 421.02L1332.47 409.63L1344.03 409.63Q1349.98 409.63 1354.23 408.19Q1358.48 406.74 1361.38 403.17Q1364.26 399.60 1366.30 393.31L1366.30 393.31L1396.56 296.07L1408.97 296.07L1377.36 396.88Q1374.63 405.55 1369.88 410.90Q1365.12 416.26 1358.48 418.64Q1351.86 421.02 1343.36 421.02L1343.36 421.02ZM1377.87 383.79L1361.71 383.79L1361.71 373.08L1377.87 373.08L1377.87 383.79ZM1372.08 383.79L1360.18 383.79L1327.54 296.07L1340.63 296.07L1372.08 383.79Z" fill="#151D2A" opacity="1"/>
        <path d="M779.57 460L772.69 460L772.69 438.40L779.57 438.40Q779.84 438.40 780.65 438.42Q781.45 438.43 782.20 438.52L782.20 438.52Q784.76 438.85 786.54 440.34Q788.32 441.83 789.23 444.14Q790.15 446.45 790.15 449.20L790.15 449.20Q790.15 451.94 789.23 454.25Q788.32 456.56 786.54 458.06Q784.76 459.55 782.20 459.88L782.20 459.88Q781.46 459.97 780.65 459.99Q779.84 460 779.57 460L779.57 460ZM776.36 441.81L776.36 456.60L779.57 456.60Q780.02 456.60 780.72 456.56Q781.42 456.54 781.96 456.43L781.96 456.43Q783.49 456.14 784.45 455.06Q785.41 453.99 785.87 452.44Q786.32 450.89 786.32 449.20L786.32 449.20Q786.32 447.44 785.86 445.90Q785.39 444.36 784.43 443.31Q783.46 442.25 781.96 441.97L781.96 441.97Q781.42 441.85 780.72 441.83Q780.02 441.81 779.57 441.81L779.57 441.81L776.36 441.81Z" fill="#151D2A" opacity="0.62"/><path d="M807.62 460L804.00 460L804.00 438.40L807.62 438.40L807.62 460Z" fill="#151D2A" opacity="0.62"/><path d="M830.11 460.45L830.11 460.45Q827.74 460.45 825.85 459.63Q823.95 458.80 822.73 457.26Q821.50 455.73 821.17 453.61L821.17 453.61L824.92 453.04Q825.40 454.96 826.90 456.01Q828.39 457.06 830.34 457.06L830.34 457.06Q831.49 457.06 832.51 456.70Q833.53 456.34 834.17 455.65Q834.81 454.96 834.81 453.95L834.81 453.95Q834.81 453.50 834.66 453.12Q834.51 452.74 834.22 452.44Q833.92 452.14 833.47 451.89Q833.01 451.64 832.41 451.46L832.41 451.46L826.83 449.81Q826.11 449.61 825.28 449.25Q824.44 448.90 823.70 448.28Q822.96 447.65 822.49 446.69Q822.01 445.72 822.01 444.30L822.01 444.30Q822.01 442.21 823.07 440.79Q824.13 439.38 825.92 438.67Q827.71 437.96 829.90 437.98L829.90 437.98Q832.12 438.00 833.86 438.74Q835.60 439.48 836.77 440.89Q837.94 442.30 838.42 444.30L838.42 444.30L834.54 444.97Q834.30 443.83 833.62 443.03Q832.93 442.23 831.95 441.81Q830.97 441.38 829.86 441.36L829.86 441.36Q828.78 441.34 827.86 441.68Q826.93 442.01 826.37 442.64Q825.81 443.27 825.81 444.12L825.81 444.12Q825.81 444.91 826.29 445.41Q826.77 445.92 827.48 446.21Q828.19 446.50 828.93 446.69L828.93 446.69L832.80 447.77Q833.59 447.99 834.58 448.35Q835.57 448.70 836.49 449.35Q837.40 450.00 838.00 451.05Q838.59 452.10 838.59 453.71L838.59 453.71Q838.59 455.39 837.89 456.66Q837.19 457.93 836.01 458.77Q834.82 459.61 833.30 460.03Q831.78 460.45 830.11 460.45Z" fill="#151D2A" opacity="0.62"/><path d="M860.98 460.45L860.98 460.45Q857.74 460.45 855.43 459.03Q853.12 457.62 851.88 455.08Q850.64 452.55 850.64 449.20L850.64 449.20Q850.64 445.86 851.88 443.32Q853.12 440.79 855.43 439.37Q857.74 437.95 860.98 437.95L860.98 437.95Q864.71 437.95 867.20 439.82Q869.69 441.69 870.70 444.85L870.70 444.85L867.05 445.86Q866.42 443.74 864.91 442.55Q863.39 441.36 860.98 441.36L860.98 441.36Q858.80 441.36 857.36 442.33Q855.91 443.31 855.18 445.07Q854.45 446.83 854.44 449.20L854.44 449.20Q854.44 451.57 855.17 453.33Q855.89 455.10 857.35 456.07Q858.80 457.05 860.98 457.05L860.98 457.05Q863.39 457.05 864.91 455.85Q866.42 454.64 867.05 452.55L867.05 452.55L870.70 453.55Q869.69 456.71 867.20 458.58Q864.71 460.45 860.98 460.45Z" fill="#151D2A" opacity="0.62"/><path d="M893.13 460.45L893.13 460.45Q889.89 460.45 887.58 459.03Q885.27 457.62 884.04 455.08Q882.80 452.55 882.80 449.20L882.80 449.20Q882.80 445.86 884.04 443.32Q885.27 440.79 887.58 439.37Q889.89 437.95 893.13 437.95L893.13 437.95Q896.37 437.95 898.69 439.37Q901.01 440.79 902.25 443.32Q903.48 445.86 903.48 449.20L903.48 449.20Q903.48 452.55 902.25 455.08Q901.01 457.62 898.69 459.03Q896.37 460.45 893.13 460.45ZM893.13 457.05L893.13 457.05Q895.31 457.06 896.75 456.08Q898.20 455.11 898.93 453.34Q899.66 451.57 899.66 449.20L899.66 449.20Q899.66 446.83 898.93 445.08Q898.20 443.33 896.75 442.36Q895.31 441.38 893.13 441.36L893.13 441.36Q890.96 441.34 889.52 442.31Q888.08 443.29 887.35 445.06Q886.62 446.83 886.62 449.20L886.62 449.20Q886.62 451.57 887.34 453.32Q888.06 455.06 889.51 456.04Q890.96 457.01 893.13 457.05Z" fill="#151D2A" opacity="0.62"/><path d="M920.14 460L916.48 460L916.48 438.40L920.14 438.40L930.16 453.63L930.16 438.40L933.82 438.40L933.82 460L930.16 460L920.14 444.77L920.14 460Z" fill="#151D2A" opacity="0.62"/><path d="M951.68 460L948.02 460L948.02 438.40L951.68 438.40L961.70 453.63L961.70 438.40L965.36 438.40L965.36 460L961.70 460L951.68 444.77L951.68 460Z" fill="#151D2A" opacity="0.62"/><path d="M993.51 460L979.56 460L979.56 438.40L993.51 438.40L993.51 441.79L983.18 441.79L983.18 447.12L991.71 447.12L991.71 450.50L983.18 450.50L983.18 456.61L993.51 456.61L993.51 460Z" fill="#151D2A" opacity="0.62"/><path d="M1016.25 460.45L1016.25 460.45Q1013.01 460.45 1010.70 459.03Q1008.39 457.62 1007.15 455.08Q1005.91 452.55 1005.91 449.20L1005.91 449.20Q1005.91 445.86 1007.15 443.32Q1008.39 440.79 1010.70 439.37Q1013.01 437.95 1016.25 437.95L1016.25 437.95Q1019.98 437.95 1022.47 439.82Q1024.96 441.69 1025.97 444.85L1025.97 444.85L1022.32 445.86Q1021.69 443.74 1020.18 442.55Q1018.66 441.36 1016.25 441.36L1016.25 441.36Q1014.07 441.36 1012.62 442.33Q1011.18 443.31 1010.45 445.07Q1009.72 446.83 1009.71 449.20L1009.71 449.20Q1009.71 451.57 1010.43 453.33Q1011.16 455.10 1012.62 456.07Q1014.07 457.05 1016.25 457.05L1016.25 457.05Q1018.66 457.05 1020.18 455.85Q1021.69 454.64 1022.32 452.55L1022.32 452.55L1025.97 453.55Q1024.96 456.71 1022.47 458.58Q1019.98 460.45 1016.25 460.45Z" fill="#151D2A" opacity="0.62"/><path d="M1048.07 460L1044.46 460L1044.46 441.79L1037.47 441.79L1037.47 438.40L1055.06 438.40L1055.06 441.79L1048.07 441.79L1048.07 460Z" fill="#151D2A" opacity="0.62"/><path d="M1096.47 460L1092.85 460L1092.85 441.79L1085.86 441.79L1085.86 438.40L1103.46 438.40L1103.46 441.79L1096.47 441.79L1096.47 460Z" fill="#151D2A" opacity="0.62"/><path d="M1124.99 460.45L1124.99 460.45Q1121.75 460.45 1119.44 459.03Q1117.13 457.62 1115.89 455.08Q1114.66 452.55 1114.66 449.20L1114.66 449.20Q1114.66 445.86 1115.89 443.32Q1117.13 440.79 1119.44 439.37Q1121.75 437.95 1124.99 437.95L1124.99 437.95Q1128.23 437.95 1130.55 439.37Q1132.87 440.79 1134.11 443.32Q1135.34 445.86 1135.34 449.20L1135.34 449.20Q1135.34 452.55 1134.11 455.08Q1132.87 457.62 1130.55 459.03Q1128.23 460.45 1124.99 460.45ZM1124.99 457.05L1124.99 457.05Q1127.17 457.06 1128.62 456.08Q1130.06 455.11 1130.79 453.34Q1131.52 451.57 1131.52 449.20L1131.52 449.20Q1131.52 446.83 1130.79 445.08Q1130.06 443.33 1128.62 442.36Q1127.17 441.38 1124.99 441.36L1124.99 441.36Q1122.82 441.34 1121.38 442.31Q1119.94 443.29 1119.21 445.06Q1118.48 446.83 1118.48 449.20L1118.48 449.20Q1118.48 451.57 1119.20 453.32Q1119.92 455.06 1121.37 456.04Q1122.82 457.01 1124.99 457.05Z" fill="#151D2A" opacity="0.62"/><path d="M1172.16 460L1168.54 460L1168.54 438.40L1177.47 438.40Q1177.78 438.40 1178.28 438.42Q1178.77 438.44 1179.19 438.52L1179.19 438.52Q1181.07 438.81 1182.29 439.76Q1183.51 440.73 1184.10 442.19Q1184.70 443.65 1184.70 445.44L1184.70 445.44Q1184.70 448.07 1183.36 449.97Q1182.03 451.87 1179.27 452.32L1179.27 452.32L1177.72 452.45L1172.16 452.45L1172.16 460ZM1185.04 460L1180.95 460L1176.69 451.21L1180.36 450.40L1185.04 460ZM1172.16 441.79L1172.16 449.08L1177.32 449.08Q1177.62 449.08 1177.99 449.05Q1178.37 449.02 1178.68 448.93L1178.68 448.93Q1179.58 448.70 1180.10 448.13Q1180.62 447.56 1180.83 446.85Q1181.05 446.13 1181.05 445.44L1181.05 445.44Q1181.05 444.75 1180.83 444.02Q1180.62 443.29 1180.10 442.72Q1179.58 442.15 1178.68 441.93L1178.68 441.93Q1178.37 441.83 1177.99 441.81Q1177.62 441.79 1177.32 441.79L1177.32 441.79L1172.16 441.79Z" fill="#151D2A" opacity="0.62"/><path d="M1212.29 460L1198.34 460L1198.34 438.40L1212.29 438.40L1212.29 441.79L1201.96 441.79L1201.96 447.12L1210.49 447.12L1210.49 450.50L1201.96 450.50L1201.96 456.61L1212.29 456.61L1212.29 460Z" fill="#151D2A" opacity="0.62"/><path d="M1235.03 460.45L1235.03 460.45Q1231.79 460.45 1229.48 459.03Q1227.17 457.62 1225.93 455.08Q1224.69 452.55 1224.69 449.20L1224.69 449.20Q1224.69 445.86 1225.93 443.32Q1227.17 440.79 1229.48 439.37Q1231.79 437.95 1235.03 437.95L1235.03 437.95Q1238.76 437.95 1241.25 439.82Q1243.74 441.69 1244.75 444.85L1244.75 444.85L1241.10 445.86Q1240.47 443.74 1238.96 442.55Q1237.44 441.36 1235.03 441.36L1235.03 441.36Q1232.85 441.36 1231.40 442.33Q1229.96 443.31 1229.23 445.07Q1228.50 446.83 1228.49 449.20L1228.49 449.20Q1228.49 451.57 1229.21 453.33Q1229.94 455.10 1231.40 456.07Q1232.85 457.05 1235.03 457.05L1235.03 457.05Q1237.44 457.05 1238.96 455.85Q1240.47 454.64 1241.10 452.55L1241.10 452.55L1244.75 453.55Q1243.74 456.71 1241.25 458.58Q1238.76 460.45 1235.03 460.45Z" fill="#151D2A" opacity="0.62"/><path d="M1267.18 460.45L1267.18 460.45Q1263.94 460.45 1261.63 459.03Q1259.32 457.62 1258.08 455.08Q1256.85 452.55 1256.85 449.20L1256.85 449.20Q1256.85 445.86 1258.08 443.32Q1259.32 440.79 1261.63 439.37Q1263.94 437.95 1267.18 437.95L1267.18 437.95Q1270.42 437.95 1272.74 439.37Q1275.06 440.79 1276.29 443.32Q1277.53 445.86 1277.53 449.20L1277.53 449.20Q1277.53 452.55 1276.29 455.08Q1275.06 457.62 1272.74 459.03Q1270.42 460.45 1267.18 460.45ZM1267.18 457.05L1267.18 457.05Q1269.36 457.06 1270.80 456.08Q1272.25 455.11 1272.98 453.34Q1273.71 451.57 1273.71 449.20L1273.71 449.20Q1273.71 446.83 1272.98 445.08Q1272.25 443.33 1270.80 442.36Q1269.36 441.38 1267.18 441.36L1267.18 441.36Q1265.01 441.34 1263.57 442.31Q1262.13 443.29 1261.40 445.06Q1260.67 446.83 1260.67 449.20L1260.67 449.20Q1260.67 451.57 1261.39 453.32Q1262.11 455.06 1263.56 456.04Q1265.01 457.01 1267.18 457.05Z" fill="#151D2A" opacity="0.62"/><path d="M1294.19 460L1290.53 460L1290.53 438.40L1294.19 438.40L1304.21 453.63L1304.21 438.40L1307.87 438.40L1307.87 460L1304.21 460L1294.19 444.77L1294.19 460Z" fill="#151D2A" opacity="0.62"/><path d="M1325.73 460L1322.07 460L1322.07 438.40L1325.73 438.40L1335.75 453.63L1335.75 438.40L1339.41 438.40L1339.41 460L1335.75 460L1325.73 444.77L1325.73 460Z" fill="#151D2A" opacity="0.62"/><path d="M1367.56 460L1353.61 460L1353.61 438.40L1367.56 438.40L1367.56 441.79L1357.23 441.79L1357.23 447.12L1365.76 447.12L1365.76 450.50L1357.23 450.50L1357.23 456.61L1367.56 456.61L1367.56 460Z" fill="#151D2A" opacity="0.62"/><path d="M1390.30 460.45L1390.30 460.45Q1387.06 460.45 1384.75 459.03Q1382.44 457.62 1381.20 455.08Q1379.96 452.55 1379.96 449.20L1379.96 449.20Q1379.96 445.86 1381.20 443.32Q1382.44 440.79 1384.75 439.37Q1387.06 437.95 1390.30 437.95L1390.30 437.95Q1394.03 437.95 1396.52 439.82Q1399.01 441.69 1400.02 444.85L1400.02 444.85L1396.37 445.86Q1395.74 443.74 1394.23 442.55Q1392.71 441.36 1390.30 441.36L1390.30 441.36Q1388.12 441.36 1386.67 442.33Q1385.23 443.31 1384.50 445.07Q1383.77 446.83 1383.76 449.20L1383.76 449.20Q1383.76 451.57 1384.48 453.33Q1385.21 455.10 1386.67 456.07Q1388.12 457.05 1390.30 457.05L1390.30 457.05Q1392.71 457.05 1394.23 455.85Q1395.74 454.64 1396.37 452.55L1396.37 452.55L1400.02 453.55Q1399.01 456.71 1396.52 458.58Q1394.03 460.45 1390.30 460.45Z" fill="#151D2A" opacity="0.62"/><path d="M1422.12 460L1418.51 460L1418.51 441.79L1411.52 441.79L1411.52 438.40L1429.11 438.40L1429.11 441.79L1422.12 441.79L1422.12 460Z" fill="#151D2A" opacity="0.62"/>
      
</svg>